<svg width="13" height="13" viewBox="0 0 13 13" fill="none" xmlns="http://www.w3.org/2000/svg">
<path d="M12.477 5.90625H2.76343L8.57729 1.15625C8.67026 1.07969 8.61382 0.9375 8.49097 0.9375H7.02173C6.95698 0.9375 6.89556 0.959375 6.84741 0.998437L0.573679 6.12187C0.516219 6.16875 0.470136 6.22671 0.438553 6.29181C0.40697 6.35692 0.390625 6.42765 0.390625 6.49922C0.390625 6.57079 0.40697 6.64152 0.438553 6.70663C0.470136 6.77173 0.516219 6.82968 0.573679 6.87656L6.88393 12.0312C6.90884 12.0516 6.93872 12.0625 6.97026 12.0625H8.4893C8.61216 12.0625 8.6686 11.9187 8.57563 11.8438L2.76343 7.09375H12.477C12.55 7.09375 12.6098 7.0375 12.6098 6.96875V6.03125C12.6098 5.9625 12.55 5.90625 12.477 5.90625Z" fill="black"/>
</svg>
