<svg width="81" height="80" viewBox="0 0 81 80" fill="none" xmlns="http://www.w3.org/2000/svg">
<g clip-path="url(#clip0_790_16400)">
<path d="M80.5 0H0.5V80H80.5V0Z" fill="white"/>
<path d="M58.9188 53.9472C66.7696 53.9472 73.134 47.5828 73.134 39.732C73.134 31.8811 66.7696 25.5163 58.9188 25.5163C58.424 25.5163 57.935 25.5418 57.4529 25.5911C57.2282 17.2811 50.4219 10.6133 42.0573 10.6133C35.9049 10.6133 30.5948 14.221 28.1275 19.4366C27.1098 19.0218 25.9967 18.7931 24.8303 18.7931C20.0048 18.7931 16.0933 22.7052 16.0933 27.5306C16.0933 28.5017 16.2516 29.4358 16.5441 30.3084C11.5282 31.769 7.86328 36.4005 7.86328 41.8879C7.86328 48.5482 13.2623 53.9472 19.9226 53.9472H23.9303V59.8739H17.2977C17.0983 58.7182 16.0894 57.836 14.8775 57.836C13.523 57.836 12.4209 58.938 12.4209 60.2926C12.4209 61.6472 13.523 62.7492 14.8775 62.7492C16.0894 62.7492 17.0983 61.867 17.2977 60.7113H24.349C24.5803 60.7113 24.7677 60.5238 24.7677 60.2926V53.9472H28.8383V66.5124H24.4211C24.2218 65.3566 23.2128 64.4744 22.001 64.4744C20.6464 64.4744 19.5443 65.5764 19.5443 66.9311C19.5443 68.2857 20.6463 69.3877 22.001 69.3877C23.2128 69.3877 24.2218 68.5055 24.4211 67.3498H29.257C29.4882 67.3498 29.6757 67.1623 29.6757 66.9311V53.9472H33.7356V59.7334C33.7356 59.9647 33.9231 60.1521 34.1543 60.1521C34.3856 60.1521 34.573 59.9647 34.573 59.7334V53.9472H39.0411V65.2244C39.0411 65.4556 39.2286 65.6431 39.4598 65.6431C39.691 65.6431 39.8785 65.4556 39.8785 65.2244V53.9472H44.3466V59.7334C44.3466 59.9647 44.534 60.1521 44.7652 60.1521C44.9965 60.1521 45.1839 59.9647 45.1839 59.7334V53.9472H49.2439V66.9311C49.2439 67.1623 49.4314 67.3498 49.6626 67.3498H54.4984C54.6978 68.5055 55.7068 69.3877 56.9186 69.3877C58.2732 69.3877 59.3752 68.2857 59.3752 66.9311C59.3752 65.5765 58.2732 64.4744 56.9186 64.4744C55.7068 64.4744 54.6978 65.3566 54.4984 66.5124H50.0813V53.9472H54.1518V60.2926C54.1518 60.5238 54.3393 60.7113 54.5705 60.7113H61.6219C61.8213 61.867 62.8302 62.7492 64.042 62.7492C65.3966 62.7492 66.4986 61.6472 66.4986 60.2926C66.4986 58.938 65.3966 57.836 64.042 57.836C62.8302 57.836 61.8213 58.7182 61.6219 59.8739H54.9892V53.9472H58.9188ZM14.8775 61.9118C13.9847 61.9118 13.2583 61.1854 13.2583 60.2926C13.2583 59.3997 13.9847 58.6734 14.8775 58.6734C15.7703 58.6734 16.4967 59.3997 16.4967 60.2926C16.4967 61.1854 15.7703 61.9118 14.8775 61.9118ZM22.001 68.5503C21.1081 68.5503 20.3817 67.8239 20.3817 66.9311C20.3817 66.0383 21.1081 65.3118 22.001 65.3118C22.8938 65.3118 23.6202 66.0382 23.6202 66.9311C23.6202 67.8239 22.8938 68.5503 22.001 68.5503ZM56.9186 65.3119C57.8114 65.3119 58.5379 66.0383 58.5379 66.9311C58.5379 67.8239 57.8115 68.5503 56.9186 68.5503C56.0258 68.5503 55.2994 67.8239 55.2994 66.9311C55.2994 66.0383 56.0258 65.3119 56.9186 65.3119ZM64.042 58.6734C64.9348 58.6734 65.6613 59.3998 65.6613 60.2926C65.6613 61.1854 64.9349 61.9119 64.042 61.9119C63.1492 61.9119 62.4229 61.1855 62.4229 60.2926C62.4229 59.3998 63.1492 58.6734 64.042 58.6734Z" fill="#01549A"/>
<path d="M34.5 45C33.95 45 33.4793 44.8043 33.088 44.413C32.6967 44.0217 32.5007 43.5507 32.5 43V33C32.5 32.45 32.696 31.9793 33.088 31.588C33.48 31.1967 33.9507 31.0007 34.5 31H35.5V29C35.5 27.6167 35.9877 26.4377 36.963 25.463C37.9383 24.4883 39.1173 24.0007 40.5 24C41.8827 23.9993 43.062 24.487 44.038 25.463C45.014 26.439 45.5013 27.618 45.5 29V31H46.5C47.05 31 47.521 31.196 47.913 31.588C48.305 31.98 48.5007 32.4507 48.5 33V43C48.5 43.55 48.3043 44.021 47.913 44.413C47.5217 44.805 47.0507 45.0007 46.5 45H34.5ZM40.5 40C41.05 40 41.521 39.8043 41.913 39.413C42.305 39.0217 42.5007 38.5507 42.5 38C42.4993 37.4493 42.3037 36.9787 41.913 36.588C41.5223 36.1973 41.0513 36.0013 40.5 36C39.9487 35.9987 39.478 36.1947 39.088 36.588C38.698 36.9813 38.502 37.452 38.5 38C38.498 38.548 38.694 39.019 39.088 39.413C39.482 39.807 39.9527 40.0027 40.5 40ZM37.5 31H43.5V29C43.5 28.1667 43.2083 27.4583 42.625 26.875C42.0417 26.2917 41.3333 26 40.5 26C39.6667 26 38.9583 26.2917 38.375 26.875C37.7917 27.4583 37.5 28.1667 37.5 29V31Z" fill="#EBF6FF"/>
</g>
<defs>
<clipPath id="clip0_790_16400">
<rect width="80" height="80" fill="white" transform="translate(0.5)"/>
</clipPath>
</defs>
</svg>
