<svg width="86" height="70" viewBox="0 0 86 70" fill="none" xmlns="http://www.w3.org/2000/svg">
<g clip-path="url(#clip0_790_652)">
<path d="M85.6969 14.3359H0.296875V16.4324H85.6969V14.3359Z" fill="#A1A1A3"/>
<path d="M2.33275 14.3359H1.53125V16.4324H2.33275V14.3359Z" fill="#979799"/>
<path d="M4.32103 14.3359H3.51953V16.4324H4.32103V14.3359Z" fill="#979799"/>
<path d="M6.30541 14.3359H5.50391V16.4324H6.30541V14.3359Z" fill="#979799"/>
<path d="M8.28978 14.3359H7.48828V16.4324H8.28978V14.3359Z" fill="#979799"/>
<path d="M10.2761 14.3359H9.47461V16.4324H10.2761V14.3359Z" fill="#979799"/>
<path d="M12.2605 14.3359H11.459V16.4324H12.2605V14.3359Z" fill="#979799"/>
<path d="M14.2429 14.3359H13.4414V16.4324H14.2429V14.3359Z" fill="#979799"/>
<path d="M16.2292 14.3359H15.4277V16.4324H16.2292V14.3359Z" fill="#979799"/>
<path d="M18.2156 14.3359H17.4141V16.4324H18.2156V14.3359Z" fill="#979799"/>
<path d="M20.2019 14.3359H19.4004V16.4324H20.2019V14.3359Z" fill="#979799"/>
<path d="M22.1863 14.3359H21.3848V16.4324H22.1863V14.3359Z" fill="#979799"/>
<path d="M24.1687 14.3359H23.3672V16.4324H24.1687V14.3359Z" fill="#979799"/>
<path d="M26.155 14.3359H25.3535V16.4324H26.155V14.3359Z" fill="#979799"/>
<path d="M28.1413 14.3359H27.3398V16.4324H28.1413V14.3359Z" fill="#979799"/>
<path d="M30.1238 14.3359H29.3223V16.4324H30.1238V14.3359Z" fill="#979799"/>
<path d="M32.114 14.3359H31.3125V16.4324H32.114V14.3359Z" fill="#979799"/>
<path d="M34.0945 14.3359H33.293V16.4324H34.0945V14.3359Z" fill="#979799"/>
<path d="M36.0808 14.3359H35.2793V16.4324H36.0808V14.3359Z" fill="#979799"/>
<path d="M38.0671 14.3359H37.2656V16.4324H38.0671V14.3359Z" fill="#979799"/>
<path d="M40.0515 14.3359H39.25V16.4324H40.0515V14.3359Z" fill="#979799"/>
<path d="M42.032 14.3359H41.2305V16.4324H42.032V14.3359Z" fill="#979799"/>
<path d="M44.0203 14.3359H43.2188V16.4324H44.0203V14.3359Z" fill="#979799"/>
<path d="M46.0066 14.3359H45.2051V16.4324H46.0066V14.3359Z" fill="#979799"/>
<path d="M47.9929 14.3359H47.1914V16.4324H47.9929V14.3359Z" fill="#979799"/>
<path d="M49.9773 14.3359H49.1758V16.4324H49.9773V14.3359Z" fill="#979799"/>
<path d="M51.9617 14.3359H51.1602V16.4324H51.9617V14.3359Z" fill="#979799"/>
<path d="M53.9441 14.3359H53.1426V16.4324H53.9441V14.3359Z" fill="#979799"/>
<path d="M55.9304 14.3359H55.1289V16.4324H55.9304V14.3359Z" fill="#979799"/>
<path d="M57.9187 14.3359H57.1172V16.4324H57.9187V14.3359Z" fill="#979799"/>
<path d="M59.9031 14.3359H59.1016V16.4324H59.9031V14.3359Z" fill="#979799"/>
<path d="M61.8874 14.3359H61.0859V16.4324H61.8874V14.3359Z" fill="#979799"/>
<path d="M63.8699 14.3359H63.0684V16.4324H63.8699V14.3359Z" fill="#979799"/>
<path d="M65.8562 14.3359H65.0547V16.4324H65.8562V14.3359Z" fill="#979799"/>
<path d="M67.8406 14.3359H67.0391V16.4324H67.8406V14.3359Z" fill="#979799"/>
<path d="M69.8249 14.3359H69.0234V16.4324H69.8249V14.3359Z" fill="#979799"/>
<path d="M71.8132 14.3359H71.0117V16.4324H71.8132V14.3359Z" fill="#979799"/>
<path d="M73.7976 14.3359H72.9961V16.4324H73.7976V14.3359Z" fill="#979799"/>
<path d="M75.782 14.3359H74.9805V16.4324H75.782V14.3359Z" fill="#979799"/>
<path d="M77.7663 14.3359H76.9648V16.4324H77.7663V14.3359Z" fill="#979799"/>
<path d="M79.7507 14.3359H78.9492V16.4324H79.7507V14.3359Z" fill="#979799"/>
<path d="M81.7351 14.3359H80.9336V16.4324H81.7351V14.3359Z" fill="#979799"/>
<path d="M83.7195 14.3359H82.918V16.4324H83.7195V14.3359Z" fill="#979799"/>
<path d="M85.7077 14.3359H84.9062V16.4324H85.7077V14.3359Z" fill="#979799"/>
<path d="M83.4607 62.7617H64.5117V69.9997H83.4607V62.7617Z" fill="#7F8081"/>
<path d="M82.8462 29.0117H64.4922V62.8427H82.8462V29.0117Z" fill="#B9B9B9"/>
<path d="M82.8468 29.0117H79.6758V62.8427H82.8468V29.0117Z" fill="#AFAEAE"/>
<path d="M67.5675 29.0117H64.3965V62.7622H67.5675V29.0117Z" fill="#AFAEAE"/>
<path d="M83.7946 25.6377H66.4766V26.7752H83.7946V25.6377Z" fill="#A1A1A3"/>
<path d="M83.4201 27.9121H66.4766V29.0496H83.4201V27.9121Z" fill="#A1A1A3"/>
<path d="M82.8584 26.7754H65.7539V27.9129H82.8584V26.7754Z" fill="#959595"/>
<path d="M82.9467 60.208H79.5762V61.167H82.9467V60.208Z" fill="#A9A9A9"/>
<path d="M83.789 23.3848H65.582V25.6388H83.789V23.3848Z" fill="#8D8C8B"/>
<path d="M65.582 23.3848H66.5795H67.605H68.6025H69.628H70.6255H71.651H72.6485H73.674H74.6715H75.697H76.6945H77.72H78.7175H79.743H80.7405H81.766H82.7635H83.789V23.7873V24.6378H82.7635V23.7873H81.766V24.6378H80.7405V23.7873H79.743V24.6378H78.7175V23.7873H77.72V24.6378H76.6945V23.7873H75.697V24.6378H74.6715V23.7873H73.674V24.6378H72.6485V23.7873H71.651V24.6378H70.6255V23.7873H69.628V24.6378H68.6025V23.7873H67.605V24.6378H66.5795V23.7873H65.582V23.3848Z" fill="#828282"/>
<path d="M76.5338 32.2246H71.1543V42.3746H76.5338V32.2246Z" fill="#815F53"/>
<path d="M76.1737 32.585H71.5117V42.014H76.1737V32.585Z" fill="#23424B"/>
<path d="M71.5117 33.3262L76.1737 36.7457V38.7862L71.5117 35.3667V33.3262Z" fill="#2E4B55"/>
<path d="M71.5117 37.3213L76.1737 40.7408V41.5353L71.5117 38.1158V37.3213Z" fill="#2E4B55"/>
<path d="M73.3808 32.585L76.1738 34.6325V35.2135L72.5898 32.585H73.3808Z" fill="#2E4B55"/>
<path d="M76.3483 38.6143H71.3398V38.9608H76.3483V38.6143Z" fill="#815F53"/>
<path d="M77.374 31.4258H70.3145V32.2238H77.374V31.4258Z" fill="#CDCCCC"/>
<path d="M76.5338 47.7119H71.1543V57.8619H76.5338V47.7119Z" fill="#815F53"/>
<path d="M76.1737 48.0703H71.5117V57.4993H76.1737V48.0703Z" fill="#23424B"/>
<path d="M71.5117 48.8164L76.1737 52.2359V54.2764L71.5117 50.8569V48.8164Z" fill="#2E4B55"/>
<path d="M71.5117 52.8086L76.1737 56.2281V57.0191L71.5117 53.6031V52.8086Z" fill="#2E4B55"/>
<path d="M73.3808 48.0703L76.1738 50.1213V50.7023L72.5898 48.0703H73.3808Z" fill="#2E4B55"/>
<path d="M76.3483 54.1035H71.3398V54.45H76.3483V54.1035Z" fill="#815F53"/>
<path d="M77.374 46.9111H70.3145V47.7091H77.374V46.9111Z" fill="#CDCCCC"/>
<path d="M21.2732 62.8418H2.32422V69.9993H21.2732V62.8418Z" fill="#7F8081"/>
<path d="M21.2915 29.0117H2.9375V62.8427H21.2915V29.0117Z" fill="#B9B9B9"/>
<path d="M6.1085 29.0117H2.9375V62.8427H6.1085V29.0117Z" fill="#AFAEAE"/>
<path d="M21.3858 29.0117H18.2148V62.7622H21.3858V29.0117Z" fill="#AFAEAE"/>
<path d="M64.5159 29.0498H21.2734V62.7618H64.5159V29.0498Z" fill="#787879"/>
<path d="M83.4612 17.8887H2.32422V23.3837H83.4612V17.8887Z" fill="#B9B9B9"/>
<path d="M83.5785 17.4014H2.20703V17.8879H83.5785V17.4014Z" fill="#B4B4B4"/>
<path d="M84.6537 16.4336H1.13672V16.9201H84.6537V16.4336Z" fill="#919090"/>
<path d="M83.4647 16.9189H2.32422V17.4054H83.4647V16.9189Z" fill="#A1A1A3"/>
<path d="M66.4746 27.9121H19.3086V29.0496H66.4746V27.9121Z" fill="#B4B4B4"/>
<path d="M66.4746 25.6377H19.3086V26.7752H66.4746V25.6377Z" fill="#B4B4B4"/>
<path d="M19.3102 25.6377H1.99219V26.7752H19.3102V25.6377Z" fill="#A1A1A3"/>
<path d="M19.3082 27.9121H2.24219V29.0496H19.3082V27.9121Z" fill="#A1A1A3"/>
<path d="M65.7549 26.7754H20.0273V27.9129H65.7549V26.7754Z" fill="#A1A1A3"/>
<path d="M20.0264 26.7754H2.92188V27.9129H20.0264V26.7754Z" fill="#959595"/>
<path d="M65.5818 23.3848H20.1973V25.6388H65.5818V23.3848Z" fill="#A1A1A3"/>
<path d="M65.6868 23.3848H65.5818H64.5143H63.4713H62.4038H61.3608H60.2933H59.2503H58.1828H57.1433H56.0723H55.0328H53.9618H52.9223H51.8513H50.8118H49.7408H48.7013H47.6303H46.5908H45.5198H44.4803H43.4093H42.3698H41.2988H40.2593H39.1883H38.1488H37.0778H36.0383H34.9708H33.9278H32.8603H31.8173H30.7498H29.7068H28.6393H27.5963H26.5288H25.4893H24.4183H23.3788H22.3078H21.2683H20.1973V23.7873V24.6378H21.2683V23.7873H22.3078V24.6378H23.3788V23.7873H24.4183V24.6378H25.4893V23.7873H26.5288V24.6378H27.5963V23.7873H28.6393V24.6378H29.7068V23.7873H30.7498V24.6378H31.8173V23.7873H32.8603V24.6378H33.9278V23.7873H34.9708V24.6378H36.0383V23.7873H37.0778V24.6378H38.1488V23.7873H39.1883V24.6378H40.2593V23.7873H41.2988V24.6378H42.3698V23.7873H43.4093V24.6378H44.4803V23.7873H45.5198V24.6378H46.5908V23.7873H47.6303V24.6378H48.7013V23.7873H49.7408V24.6378H50.8118V23.7873H51.8513V24.6378H52.9223V23.7873H53.9618V24.6378H55.0328V23.7873H56.0723V24.6378H57.1433V23.7873H58.1828V24.6378H59.2503V23.7873H60.2933V24.6378H61.3608V23.7873H62.4038V24.6378H63.4713V23.7873H64.5143V24.6378H65.5818V23.7873H65.6868V23.3848Z" fill="#868686"/>
<path d="M6.20448 60.208H2.83398V61.167H6.20448V60.208Z" fill="#A9A9A9"/>
<path d="M21.3861 60.208H18.0156V61.167H21.3861V60.208Z" fill="#A9A9A9"/>
<path d="M67.767 60.208H64.3965V61.167H67.767V60.208Z" fill="#A9A9A9"/>
<path d="M20.1992 23.3848H1.99219V25.6388H20.1992V23.3848Z" fill="#8D8C8B"/>
<path d="M20.1992 23.3848H19.2017H18.1762H17.1787H16.1532H15.1557H14.1302H13.1327H12.1072H11.1097H10.0842H9.08669H8.06119H7.06369H6.03819H5.04069H4.01519H3.01769H1.99219V23.7873V24.6378H3.01769V23.7873H4.01519V24.6378H5.04069V23.7873H6.03819V24.6378H7.06369V23.7873H8.06119V24.6378H9.08669V23.7873H10.0842V24.6378H11.1097V23.7873H12.1072V24.6378H13.1327V23.7873H14.1302V24.6378H15.1557V23.7873H16.1532V24.6378H17.1787V23.7873H18.1762V24.6378H19.2017V23.7873H20.1992V23.3848Z" fill="#828282"/>
<path d="M14.6256 32.2246H9.24609V42.3746H14.6256V32.2246Z" fill="#815F53"/>
<path d="M14.2694 32.585H9.60742V42.014H14.2694V32.585Z" fill="#23424B"/>
<path d="M14.2694 33.3262L9.60742 36.7457V38.7862L14.2694 35.3667V33.3262Z" fill="#2E4B55"/>
<path d="M14.2694 37.3213L9.60742 40.7408V41.5353L14.2694 38.1158V37.3213Z" fill="#2E4B55"/>
<path d="M12.4004 32.585L9.60742 34.6325V35.2135L13.1949 32.585H12.4004Z" fill="#2E4B55"/>
<path d="M14.444 38.6143H9.43555V38.9608H14.444V38.6143Z" fill="#815F53"/>
<path d="M15.4697 31.4258H8.41016V32.2238H15.4697V31.4258Z" fill="#CDCCCC"/>
<path d="M45.7272 33.5488H40.3477V43.6988H45.7272V33.5488Z" fill="#815F53"/>
<path d="M45.371 33.9092H40.709V43.3382H45.371V33.9092Z" fill="#23424B"/>
<path d="M45.371 34.6553L40.709 38.0713V40.1118L45.371 36.6958V34.6553Z" fill="#2E4B55"/>
<path d="M45.371 38.6475L40.709 42.0635V42.858L45.371 39.4385V38.6475Z" fill="#2E4B55"/>
<path d="M43.502 33.9092L40.709 35.9567V36.5377L44.293 33.9092H43.502Z" fill="#2E4B55"/>
<path d="M45.5417 39.9414H40.5332V40.2879H45.5417V39.9414Z" fill="#815F53"/>
<path d="M46.5673 32.75H39.5078V33.548H46.5673V32.75Z" fill="#A1A1A3"/>
<path d="M32.0045 33.5479H26.625V43.6979H32.0045V33.5479Z" fill="#815F53"/>
<path d="M31.6483 33.9082H26.9863V43.3372H31.6483V33.9082Z" fill="#23424B"/>
<path d="M31.6483 34.6543L26.9863 38.0703V40.1108L31.6483 36.6948V34.6543Z" fill="#2E4B55"/>
<path d="M31.6483 38.6465L26.9863 42.0625V42.857L31.6483 39.4375V38.6465Z" fill="#2E4B55"/>
<path d="M29.7793 33.9082L26.9863 35.9557V36.5367L30.5703 33.9082H29.7793Z" fill="#2E4B55"/>
<path d="M31.823 39.9404H26.8145V40.2869H31.823V39.9404Z" fill="#815F53"/>
<path d="M32.8447 32.749H25.7852V33.547H32.8447V32.749Z" fill="#A1A1A3"/>
<path d="M32.0045 48.1113H26.625V58.2613H32.0045V48.1113Z" fill="#815F53"/>
<path d="M31.6464 48.4727H26.9844V57.9017H31.6464V48.4727Z" fill="#23424B"/>
<path d="M31.6464 49.2139L26.9844 52.6334V54.6739L31.6464 51.2544V49.2139Z" fill="#2E4B55"/>
<path d="M31.6464 53.209L26.9844 56.6285V57.423L31.6464 54.0035V53.209Z" fill="#2E4B55"/>
<path d="M29.7774 48.4727L26.9844 50.5202V51.1012L30.5684 48.4727H29.7774Z" fill="#2E4B55"/>
<path d="M31.823 54.502H26.8145V54.8485H31.823V54.502Z" fill="#815F53"/>
<path d="M32.8447 47.3105H25.7852V48.1085H32.8447V47.3105Z" fill="#A1A1A3"/>
<path d="M59.8326 48.1113H54.4531V58.2613H59.8326V48.1113Z" fill="#815F53"/>
<path d="M59.4745 48.4727H54.8125V57.9017H59.4745V48.4727Z" fill="#23424B"/>
<path d="M59.471 49.2139L54.8125 52.6334V54.6739L59.471 51.2544V49.2139Z" fill="#2E4B55"/>
<path d="M59.471 53.209L54.8125 56.6285V57.423L59.471 54.0035V53.209Z" fill="#2E4B55"/>
<path d="M57.6055 48.4727L54.8125 50.5202V51.1012L58.3965 48.4727H57.6055Z" fill="#2E4B55"/>
<path d="M59.6452 54.502H54.6367V54.8485H59.6452V54.502Z" fill="#815F53"/>
<path d="M60.6708 47.3105H53.6113V48.1085H60.6708V47.3105Z" fill="#A1A1A3"/>
<path d="M59.5045 33.5488H54.125V43.6988H59.5045V33.5488Z" fill="#815F53"/>
<path d="M59.1464 33.9092H54.4844V43.3382H59.1464V33.9092Z" fill="#23424B"/>
<path d="M59.1464 34.6553L54.4844 38.0713V40.1118L59.1464 36.6958V34.6553Z" fill="#2E4B55"/>
<path d="M59.1464 38.6475L54.4844 42.0635V42.858L59.1464 39.4385V38.6475Z" fill="#2E4B55"/>
<path d="M57.2774 33.9092L54.4844 35.9567V36.5377L58.0684 33.9092H57.2774Z" fill="#2E4B55"/>
<path d="M59.3171 39.9414H54.3086V40.2879H59.3171V39.9414Z" fill="#815F53"/>
<path d="M60.3427 32.75H53.2832V33.548H60.3427V32.75Z" fill="#A1A1A3"/>
<path d="M14.6256 47.7119H9.24609V57.8619H14.6256V47.7119Z" fill="#815F53"/>
<path d="M14.2694 48.0703H9.60742V57.4993H14.2694V48.0703Z" fill="#23424B"/>
<path d="M14.2694 48.8164L9.60742 52.2359V54.2764L14.2694 50.8569V48.8164Z" fill="#2E4B55"/>
<path d="M14.2694 52.8086L9.60742 56.2281V57.0191L14.2694 53.6031V52.8086Z" fill="#2E4B55"/>
<path d="M12.4004 48.0703L9.60742 50.1213V50.7023L13.1949 48.0703H12.4004Z" fill="#2E4B55"/>
<path d="M14.444 54.1035H9.43555V54.45H14.444V54.1035Z" fill="#815F53"/>
<path d="M15.4697 46.9111H8.41016V47.7091H15.4697V46.9111Z" fill="#CDCCCC"/>
<path d="M43.042 46.2275H43.035C40.417 46.2275 38.2715 48.38 38.2715 51.0085V62.8245H47.8055V51.0085C47.8055 48.38 45.6635 46.2275 43.042 46.2275Z" fill="#332012"/>
<path d="M42.7171 52.4961H39.2031V57.4381H42.7171V52.4961Z" fill="#23424B"/>
<path d="M46.8538 52.4961H43.3398V57.4381H46.8538V52.4961Z" fill="#23424B"/>
<path d="M43.0628 47.3086C43.0628 47.3086 43.0488 47.3086 43.0383 47.3086C40.9138 47.3086 39.1953 49.0341 39.1953 51.1656H43.0383L43.0628 47.3086Z" fill="#23424B"/>
<path d="M43.0156 47.3086C43.0156 47.3086 43.0331 47.3086 43.0401 47.3086C45.1646 47.3086 46.8831 49.0341 46.8831 51.1656H43.0401L43.0156 47.3086Z" fill="#23424B"/>
<path d="M43.3572 46.4023H42.6992V53.9973H43.3572V46.4023Z" fill="#332012"/>
<path d="M42.6987 58.415H42.4922V60.7565H42.6987V58.415Z" fill="#805A24"/>
<path d="M43.5463 58.415H43.3398V60.7565H43.5463V58.415Z" fill="#805A24"/>
<path d="M42.7171 52.4961H41.6146L39.2031 55.7406V57.4381H39.6056L42.7171 53.2521V52.4961Z" fill="#2E4B55"/>
<path d="M40.9111 52.4961L39.2031 54.7956V55.4396L41.3906 52.4961H40.9111Z" fill="#2E4B55"/>
<path d="M42.7178 53.9873L40.1523 57.4383H40.5338L42.7178 54.5018V53.9873Z" fill="#2E4B55"/>
<path d="M46.8538 52.4961H45.7548L43.3398 55.7406V57.4381H43.7458L46.8538 53.2521V52.4961Z" fill="#2E4B55"/>
<path d="M45.0478 52.4961L43.3398 54.7956V55.4396L45.5308 52.4961H45.0478Z" fill="#2E4B55"/>
<path d="M46.8546 53.9873L44.2891 57.4383H44.6741L46.8546 54.5018V53.9873Z" fill="#2E4B55"/>
<path opacity="0.2" d="M25.5742 31.5943L59.5067 60.8123L59.9967 34.1038L65.0542 31.5943V29.0498H25.5742V31.5943Z" fill="#241F20"/>
<path d="M25.7839 34.0615H23.5264H21.2724L20.7754 60.7735H23.5264H26.2774L25.7839 34.0615Z" fill="#EEEDEE"/>
<path d="M27.8803 62.4987C27.8803 62.6912 27.6843 62.8417 27.4463 62.8417H19.6028C19.3648 62.8417 19.1758 62.6912 19.1758 62.4987V61.8932C19.1758 61.7077 19.3648 61.5537 19.6028 61.5537H27.4463C27.6843 61.5537 27.8803 61.7077 27.8803 61.8932V62.4987Z" fill="#CBCDCE"/>
<path d="M26.9511 61.5549V61.1139C26.9511 60.9284 26.7971 60.7744 26.6081 60.7744H20.4376C20.2521 60.7744 20.1016 60.9284 20.1016 61.1139V61.5549H26.9511Z" fill="#CBCDCE"/>
<path d="M22.2946 34.6279H21.7871V60.2024H22.2946V34.6279Z" fill="url(#paint0_linear_790_652)"/>
<path d="M23.2848 34.6279H22.7773V60.2024H23.2848V34.6279Z" fill="url(#paint1_linear_790_652)"/>
<path d="M24.277 34.6279H23.7695V60.2024H24.277V34.6279Z" fill="url(#paint2_linear_790_652)"/>
<path d="M25.2692 34.6279H24.7617V60.2024H25.2692V34.6279Z" fill="url(#paint3_linear_790_652)"/>
<path d="M26.2333 33.9195C26.2333 33.839 26.1598 33.7725 26.0723 33.7725H20.9833C20.8958 33.7725 20.8223 33.839 20.8223 33.9195C20.8223 34 20.8958 34.0665 20.9833 34.0665H26.0723C26.1598 34.0665 26.2333 34 26.2333 33.9195Z" fill="#C3C3C2"/>
<path d="M20.5705 33.3262H26.468C26.587 33.3262 26.685 33.4242 26.685 33.5432V33.5572C26.685 33.6762 26.587 33.7742 26.468 33.7742H20.5705C20.4515 33.7742 20.3535 33.6762 20.3535 33.5572V33.5432C20.3535 33.4242 20.4515 33.3262 20.5705 33.3262Z" fill="#C3C3C2"/>
<path d="M26.4104 30.1738H20.6914V30.4153H26.4104V30.1738Z" fill="#BEBEBD"/>
<path d="M26.5575 31.5557H20.541V33.3267H26.5575V31.5557Z" fill="#B9B9B9"/>
<path d="M26.0847 33.7725H20.9712C20.8907 33.7795 20.8242 33.8425 20.8242 33.916H26.2317C26.2317 33.839 26.1652 33.776 26.0847 33.7725Z" fill="#BEBEBD"/>
<path d="M26.6338 30.6877C26.6338 30.5372 26.4938 30.3867 26.3258 30.3867H20.7713C20.6033 30.3867 20.4668 30.5372 20.4668 30.6877V31.2547C20.4668 31.4262 20.6033 31.5522 20.7713 31.5522H26.3258C26.4938 31.5522 26.6338 31.4262 26.6338 31.2547V30.6877Z" fill="#CBCDCE"/>
<path d="M27.746 31.8036C27.746 32.5841 27.1125 33.2176 26.332 33.2176C25.5515 33.2176 24.918 32.5841 24.918 31.8036C24.918 31.0231 25.5515 30.3896 26.332 30.3896C27.1125 30.3896 27.746 31.0231 27.746 31.8036Z" fill="#CBCDCE"/>
<path d="M22.1385 31.8036C22.1385 32.5841 21.505 33.2176 20.7245 33.2176C19.944 33.2176 19.3105 32.5841 19.3105 31.8036C19.3105 31.0231 19.944 30.3896 20.7245 30.3896C21.505 30.3896 22.1385 31.0231 22.1385 31.8036Z" fill="#CBCDCE"/>
<path d="M24.9198 31.8042C24.9198 31.7202 24.9268 31.6362 24.9443 31.5557H22.1198C22.1338 31.6362 22.1443 31.7167 22.1443 31.8042C22.1443 32.5112 21.6263 33.0957 20.9473 33.2007C21.0138 33.2112 21.0838 33.2182 21.1538 33.2182C21.8153 33.2182 22.3543 32.6792 22.3543 32.0177C22.3543 31.9477 22.3473 31.8777 22.3333 31.8077H24.7308C24.7203 31.8742 24.7098 31.9442 24.7098 32.0177C24.7098 32.6792 25.2488 33.2182 25.9103 33.2182C25.9803 33.2182 26.0503 33.2112 26.1168 33.2007C25.4413 33.0957 24.9198 32.5112 24.9198 31.8042Z" fill="#A5A6A9"/>
<path d="M26.9633 31.8049C26.9633 32.1899 26.6518 32.5014 26.2668 32.5014C25.8818 32.5014 25.5703 32.1899 25.5703 31.8049C25.5703 31.4199 25.8818 31.1084 26.2668 31.1084C26.6518 31.1084 26.9633 31.4199 26.9633 31.8049Z" fill="#BABDBE"/>
<path d="M21.4203 31.8049C21.4203 32.1899 21.1088 32.5014 20.7238 32.5014C20.3388 32.5014 20.0273 32.1899 20.0273 31.8049C20.0273 31.4199 20.3388 31.1084 20.7238 31.1084C21.1088 31.1084 21.4203 31.4199 21.4203 31.8049Z" fill="#BABDBE"/>
<path d="M26.4104 30.1738H20.6914V30.2543H26.4104V30.1738Z" fill="#B9B9B9"/>
<path d="M26.8166 29.0498H20.2891V29.8723H26.8166V29.0498Z" fill="#C8C7C7"/>
<path d="M25.7884 34.0615H21.2734V34.3065H25.7884V34.0615Z" fill="#E0E1E0"/>
<path d="M26.2758 60.5254H20.7773V60.7704H26.2758V60.5254Z" fill="#E0E1E0"/>
<path d="M23.8136 29.873H23.5511H23.3481H20.2891L20.6916 30.174H23.3481H23.5511H23.8136H26.4106L26.8166 29.873H23.8136Z" fill="#C8C7C7"/>
<path d="M26.953 61.4082H20.1035V61.5517H26.953V61.4082Z" fill="#BEBEBD"/>
<path d="M37.0105 34.0615H34.753H32.499L32.002 60.7735H34.753H37.504L37.0105 34.0615Z" fill="#EEEDEE"/>
<path d="M39.1068 62.4987C39.1068 62.6912 38.9108 62.8417 38.6728 62.8417H30.8293C30.5913 62.8417 30.4023 62.6912 30.4023 62.4987V61.8932C30.4023 61.7077 30.5913 61.5537 30.8293 61.5537H38.6728C38.9108 61.5537 39.1068 61.7077 39.1068 61.8932V62.4987Z" fill="#CBCDCE"/>
<path d="M38.1776 61.5549V61.1139C38.1776 60.9284 38.0236 60.7744 37.8346 60.7744H31.6641C31.4786 60.7744 31.3281 60.9284 31.3281 61.1139V61.5549H38.1776Z" fill="#CBCDCE"/>
<path d="M33.5192 34.6279H33.0117V60.2024H33.5192V34.6279Z" fill="url(#paint4_linear_790_652)"/>
<path d="M34.5134 34.6279H34.0059V60.2024H34.5134V34.6279Z" fill="url(#paint5_linear_790_652)"/>
<path d="M35.5036 34.6279H34.9961V60.2024H35.5036V34.6279Z" fill="url(#paint6_linear_790_652)"/>
<path d="M36.4977 34.6279H35.9902V60.2024H36.4977V34.6279Z" fill="url(#paint7_linear_790_652)"/>
<path d="M37.4598 33.9195C37.4598 33.839 37.3863 33.7725 37.2988 33.7725H32.2098C32.1223 33.7725 32.0488 33.839 32.0488 33.9195C32.0488 34 32.1223 34.0665 32.2098 34.0665H37.2988C37.3863 34.0665 37.4598 34 37.4598 33.9195Z" fill="#C3C3C2"/>
<path d="M31.7971 33.3262H37.6946C37.8136 33.3262 37.9116 33.4242 37.9116 33.5432V33.5572C37.9116 33.6762 37.8136 33.7742 37.6946 33.7742H31.7971C31.6781 33.7742 31.5801 33.6762 31.5801 33.5572V33.5432C31.5801 33.4242 31.6781 33.3262 31.7971 33.3262Z" fill="#C3C3C2"/>
<path d="M37.637 30.1738H31.918V30.4153H37.637V30.1738Z" fill="#BEBEBD"/>
<path d="M37.7841 31.5557H31.7676V33.3267H37.7841V31.5557Z" fill="#B9B9B9"/>
<path d="M37.3113 33.7725H32.1978C32.1173 33.7795 32.0508 33.8425 32.0508 33.916H37.4583C37.4583 33.839 37.3918 33.776 37.3113 33.7725Z" fill="#BEBEBD"/>
<path d="M37.8584 30.6877C37.8584 30.5372 37.7184 30.3867 37.5504 30.3867H31.9959C31.8279 30.3867 31.6914 30.5372 31.6914 30.6877V31.2547C31.6914 31.4262 31.8279 31.5522 31.9959 31.5522H37.5504C37.7184 31.5522 37.8584 31.4262 37.8584 31.2547V30.6877Z" fill="#CBCDCE"/>
<path d="M38.9725 31.8036C38.9725 32.5841 38.339 33.2176 37.5585 33.2176C36.778 33.2176 36.1445 32.5841 36.1445 31.8036C36.1445 31.0231 36.778 30.3896 37.5585 30.3896C38.339 30.3896 38.9725 31.0231 38.9725 31.8036Z" fill="#CBCDCE"/>
<path d="M33.3651 31.8036C33.3651 32.5841 32.7316 33.2176 31.9511 33.2176C31.1706 33.2176 30.5371 32.5841 30.5371 31.8036C30.5371 31.0231 31.1706 30.3896 31.9511 30.3896C32.7316 30.3896 33.3651 31.0231 33.3651 31.8036Z" fill="#CBCDCE"/>
<path d="M36.1463 31.8042C36.1463 31.7202 36.1533 31.6362 36.1708 31.5557H33.3463C33.3603 31.6362 33.3708 31.7167 33.3708 31.8042C33.3708 32.5112 32.8528 33.0957 32.1738 33.2007C32.2403 33.2112 32.3103 33.2182 32.3803 33.2182C33.0418 33.2182 33.5808 32.6792 33.5808 32.0177C33.5808 31.9477 33.5738 31.8777 33.5598 31.8077H35.9573C35.9468 31.8742 35.9363 31.9442 35.9363 32.0177C35.9363 32.6792 36.4753 33.2182 37.1368 33.2182C37.2068 33.2182 37.2768 33.2112 37.3433 33.2007C36.6678 33.0957 36.1463 32.5112 36.1463 31.8042Z" fill="#A5A6A9"/>
<path d="M38.1899 31.8049C38.1899 32.1899 37.8784 32.5014 37.4934 32.5014C37.1084 32.5014 36.7969 32.1899 36.7969 31.8049C36.7969 31.4199 37.1084 31.1084 37.4934 31.1084C37.8784 31.1084 38.1899 31.4199 38.1899 31.8049Z" fill="#BABDBE"/>
<path d="M32.6469 31.8049C32.6469 32.1899 32.3354 32.5014 31.9504 32.5014C31.5654 32.5014 31.2539 32.1899 31.2539 31.8049C31.2539 31.4199 31.5654 31.1084 31.9504 31.1084C32.3354 31.1084 32.6469 31.4199 32.6469 31.8049Z" fill="#BABDBE"/>
<path d="M37.637 30.1738H31.918V30.2543H37.637V30.1738Z" fill="#B9B9B9"/>
<path d="M38.0431 29.0498H31.5156V29.8723H38.0431V29.0498Z" fill="#C8C7C7"/>
<path d="M37.015 34.0615H32.5V34.3065H37.015V34.0615Z" fill="#E0E1E0"/>
<path d="M37.5024 60.5254H32.0039V60.7704H37.5024V60.5254Z" fill="#E0E1E0"/>
<path d="M35.0401 29.873H34.7776H34.5746H31.5156L31.9181 30.174H34.5746H34.7776H35.0401H37.6371L38.0431 29.873H35.0401Z" fill="#C8C7C7"/>
<path d="M38.1796 61.4082H31.3301V61.5517H38.1796V61.4082Z" fill="#BEBEBD"/>
<path d="M53.2839 34.0615H51.0264H48.7724L48.2754 60.7735H51.0264H53.7774L53.2839 34.0615Z" fill="#EEEDEE"/>
<path d="M55.3803 62.4987C55.3803 62.6912 55.1843 62.8417 54.9463 62.8417H47.1028C46.8648 62.8417 46.6758 62.6912 46.6758 62.4987V61.8932C46.6758 61.7077 46.8648 61.5537 47.1028 61.5537H54.9463C55.1843 61.5537 55.3803 61.7077 55.3803 61.8932V62.4987Z" fill="#CBCDCE"/>
<path d="M54.4511 61.5549V61.1139C54.4511 60.9284 54.2971 60.7744 54.1081 60.7744H47.9376C47.7521 60.7744 47.6016 60.9284 47.6016 61.1139V61.5549H54.4511Z" fill="#CBCDCE"/>
<path d="M49.7927 34.6279H49.2852V60.2024H49.7927V34.6279Z" fill="url(#paint8_linear_790_652)"/>
<path d="M50.7868 34.6279H50.2793V60.2024H50.7868V34.6279Z" fill="url(#paint9_linear_790_652)"/>
<path d="M51.777 34.6279H51.2695V60.2024H51.777V34.6279Z" fill="url(#paint10_linear_790_652)"/>
<path d="M52.7712 34.6279H52.2637V60.2024H52.7712V34.6279Z" fill="url(#paint11_linear_790_652)"/>
<path d="M53.7333 33.9195C53.7333 33.839 53.6598 33.7725 53.5723 33.7725H48.4833C48.3958 33.7725 48.3223 33.839 48.3223 33.9195C48.3223 34 48.3958 34.0665 48.4833 34.0665H53.5723C53.6598 34.0665 53.7333 34 53.7333 33.9195Z" fill="#C3C3C2"/>
<path d="M48.0705 33.3262H53.968C54.087 33.3262 54.185 33.4242 54.185 33.5432V33.5572C54.185 33.6762 54.087 33.7742 53.968 33.7742H48.0705C47.9515 33.7742 47.8535 33.6762 47.8535 33.5572V33.5432C47.8535 33.4242 47.9515 33.3262 48.0705 33.3262Z" fill="#C3C3C2"/>
<path d="M53.9104 30.1738H48.1914V30.4153H53.9104V30.1738Z" fill="#BEBEBD"/>
<path d="M54.0575 31.5557H48.041V33.3267H54.0575V31.5557Z" fill="#B9B9B9"/>
<path d="M53.5847 33.7725H48.4712C48.3907 33.7795 48.3242 33.8425 48.3242 33.916H53.7317C53.7317 33.839 53.6652 33.776 53.5847 33.7725Z" fill="#BEBEBD"/>
<path d="M54.1318 30.6877C54.1318 30.5372 53.9918 30.3867 53.8238 30.3867H48.2693C48.1013 30.3867 47.9648 30.5372 47.9648 30.6877V31.2547C47.9648 31.4262 48.1013 31.5522 48.2693 31.5522H53.8238C53.9918 31.5522 54.1318 31.4262 54.1318 31.2547V30.6877Z" fill="#CBCDCE"/>
<path d="M55.246 31.8036C55.246 32.5841 54.6125 33.2176 53.832 33.2176C53.0515 33.2176 52.418 32.5841 52.418 31.8036C52.418 31.0231 53.0515 30.3896 53.832 30.3896C54.6125 30.3896 55.246 31.0231 55.246 31.8036Z" fill="#CBCDCE"/>
<path d="M49.6385 31.8036C49.6385 32.5841 49.005 33.2176 48.2245 33.2176C47.444 33.2176 46.8105 32.5841 46.8105 31.8036C46.8105 31.0231 47.444 30.3896 48.2245 30.3896C49.005 30.3896 49.6385 31.0231 49.6385 31.8036Z" fill="#CBCDCE"/>
<path d="M52.4182 31.8042C52.4182 31.7202 52.4252 31.6362 52.4427 31.5557H49.6182C49.6322 31.6362 49.6427 31.7167 49.6427 31.8042C49.6427 32.5112 49.1247 33.0957 48.4492 33.2007C48.5157 33.2112 48.5857 33.2182 48.6557 33.2182C49.3172 33.2182 49.8562 32.6792 49.8562 32.0177C49.8562 31.9477 49.8492 31.8777 49.8352 31.8077H52.2327C52.2222 31.8742 52.2117 31.9442 52.2117 32.0177C52.2117 32.6792 52.7507 33.2182 53.4122 33.2182C53.4822 33.2182 53.5522 33.2112 53.6187 33.2007C52.9432 33.0957 52.4252 32.5112 52.4252 31.8042H52.4182Z" fill="#A5A6A9"/>
<path d="M54.4633 31.8049C54.4633 32.1899 54.1518 32.5014 53.7668 32.5014C53.3818 32.5014 53.0703 32.1899 53.0703 31.8049C53.0703 31.4199 53.3818 31.1084 53.7668 31.1084C54.1518 31.1084 54.4633 31.4199 54.4633 31.8049Z" fill="#BABDBE"/>
<path d="M48.9203 31.8049C48.9203 32.1899 48.6088 32.5014 48.2238 32.5014C47.8388 32.5014 47.5273 32.1899 47.5273 31.8049C47.5273 31.4199 47.8388 31.1084 48.2238 31.1084C48.6088 31.1084 48.9203 31.4199 48.9203 31.8049Z" fill="#BABDBE"/>
<path d="M53.9104 30.1738H48.1914V30.2543H53.9104V30.1738Z" fill="#B9B9B9"/>
<path d="M54.3166 29.0498H47.7891V29.8723H54.3166V29.0498Z" fill="#C8C7C7"/>
<path d="M53.2884 34.0615H48.7734V34.3065H53.2884V34.0615Z" fill="#E0E1E0"/>
<path d="M53.7758 60.5254H48.2773V60.7704H53.7758V60.5254Z" fill="#E0E1E0"/>
<path d="M51.3136 29.873H51.0511H50.8481H47.7891L48.1916 30.174H50.8481H51.0511H51.3136H53.9106L54.3166 29.873H51.3136Z" fill="#C8C7C7"/>
<path d="M54.453 61.4082H47.6035V61.5517H54.453V61.4082Z" fill="#BEBEBD"/>
<path d="M64.5124 34.0615H62.2549H59.9974L59.5039 60.7735H62.2549H65.0059L64.5124 34.0615Z" fill="#EEEDEE"/>
<path d="M66.6049 62.4987C66.6049 62.6912 66.4089 62.8417 66.1709 62.8417H58.3274C58.0894 62.8417 57.9004 62.6912 57.9004 62.4987V61.8932C57.9004 61.7077 58.0894 61.5537 58.3274 61.5537H66.1709C66.4089 61.5537 66.6049 61.7077 66.6049 61.8932V62.4987Z" fill="#CBCDCE"/>
<path d="M65.6815 61.5549V61.1139C65.6815 60.9284 65.5275 60.7744 65.3385 60.7744H59.168C58.9825 60.7744 58.832 60.9284 58.832 61.1139V61.5549H65.6815Z" fill="#CBCDCE"/>
<path d="M61.0192 34.6279H60.5117V60.2024H61.0192V34.6279Z" fill="url(#paint12_linear_790_652)"/>
<path d="M62.0134 34.6279H61.5059V60.2024H62.0134V34.6279Z" fill="url(#paint13_linear_790_652)"/>
<path d="M63.0036 34.6279H62.4961V60.2024H63.0036V34.6279Z" fill="url(#paint14_linear_790_652)"/>
<path d="M63.9977 34.6279H63.4902V60.2024H63.9977V34.6279Z" fill="url(#paint15_linear_790_652)"/>
<path d="M64.9579 33.9195C64.9579 33.839 64.8844 33.7725 64.7969 33.7725H59.7079C59.6204 33.7725 59.5469 33.839 59.5469 33.9195C59.5469 34 59.6204 34.0665 59.7079 34.0665H64.7969C64.8844 34.0665 64.9579 34 64.9579 33.9195Z" fill="#C3C3C2"/>
<path d="M59.301 33.3262H65.1985C65.3175 33.3262 65.4155 33.4242 65.4155 33.5432V33.5572C65.4155 33.6762 65.3175 33.7742 65.1985 33.7742H59.301C59.182 33.7742 59.084 33.6762 59.084 33.5572V33.5432C59.084 33.4242 59.182 33.3262 59.301 33.3262Z" fill="#C3C3C2"/>
<path d="M65.137 30.1738H59.418V30.4153H65.137V30.1738Z" fill="#BEBEBD"/>
<path d="M65.286 31.5557H59.2695V33.3267H65.286V31.5557Z" fill="#B9B9B9"/>
<path d="M64.8093 33.7725H59.6958C59.6153 33.7795 59.5488 33.8425 59.5488 33.916H64.9563C64.9563 33.839 64.8898 33.776 64.8093 33.7725Z" fill="#BEBEBD"/>
<path d="M65.3584 30.6877C65.3584 30.5372 65.2184 30.3867 65.0504 30.3867H59.4959C59.3279 30.3867 59.1914 30.5372 59.1914 30.6877V31.2547C59.1914 31.4262 59.3279 31.5522 59.4959 31.5522H65.0504C65.2184 31.5522 65.3584 31.4262 65.3584 31.2547V30.6877Z" fill="#CBCDCE"/>
<path d="M66.4764 31.8036C66.4764 32.5841 65.8429 33.2176 65.0624 33.2176C64.2819 33.2176 63.6484 32.5841 63.6484 31.8036C63.6484 31.0231 64.2819 30.3896 65.0624 30.3896C65.8429 30.3896 66.4764 31.0231 66.4764 31.8036Z" fill="#CBCDCE"/>
<path d="M60.8651 31.8036C60.8651 32.5841 60.2316 33.2176 59.4511 33.2176C58.6706 33.2176 58.0371 32.5841 58.0371 31.8036C58.0371 31.0231 58.6706 30.3896 59.4511 30.3896C60.2316 30.3896 60.8651 31.0231 60.8651 31.8036Z" fill="#CBCDCE"/>
<path d="M63.6448 31.8042C63.6448 31.7202 63.6518 31.6362 63.6693 31.5557H60.8448C60.8588 31.6362 60.8693 31.7167 60.8693 31.8042C60.8693 32.5112 60.3513 33.0957 59.6758 33.2007C59.7423 33.2112 59.8123 33.2182 59.8823 33.2182C60.5438 33.2182 61.0828 32.6792 61.0828 32.0177C61.0828 31.9477 61.0758 31.8777 61.0618 31.8077H63.4593C63.4488 31.8742 63.4383 31.9442 63.4383 32.0177C63.4383 32.6792 63.9773 33.2182 64.6388 33.2182C64.7088 33.2182 64.7788 33.2112 64.8453 33.2007C64.1698 33.0957 63.6483 32.5112 63.6483 31.8042H63.6448Z" fill="#A5A6A9"/>
<path d="M65.6918 31.8049C65.6918 32.1899 65.3803 32.5014 64.9953 32.5014C64.6103 32.5014 64.2988 32.1899 64.2988 31.8049C64.2988 31.4199 64.6103 31.1084 64.9953 31.1084C65.3803 31.1084 65.6918 31.4199 65.6918 31.8049Z" fill="#BABDBE"/>
<path d="M60.143 31.8049C60.143 32.1899 59.8315 32.5014 59.4465 32.5014C59.0615 32.5014 58.75 32.1899 58.75 31.8049C58.75 31.4199 59.0615 31.1084 59.4465 31.1084C59.8315 31.1084 60.143 31.4199 60.143 31.8049Z" fill="#BABDBE"/>
<path d="M65.137 30.1738H59.418V30.2543H65.137V30.1738Z" fill="#B9B9B9"/>
<path d="M65.5412 29.0498H59.0137V29.8723H65.5412V29.0498Z" fill="#C8C7C7"/>
<path d="M64.513 34.0615H59.998V34.3065H64.513V34.0615Z" fill="#E0E1E0"/>
<path d="M65.0063 60.5254H59.5078V60.7704H65.0063V60.5254Z" fill="#E0E1E0"/>
<path d="M62.5417 29.873H62.2792H62.0727H59.0137L59.4197 30.174H62.0727H62.2792H62.5417H65.1387L65.5447 29.873H62.5417Z" fill="#C8C7C7"/>
<path d="M65.6815 61.4082H58.832V61.5517H65.6815V61.4082Z" fill="#BEBEBD"/>
<path d="M5.10886 18.416H2.63086V19.7215H5.10886V18.416Z" fill="#B1B1B1"/>
<path d="M5.4448 63.4727H2.9668V64.7782H5.4448V63.4727Z" fill="#7C7C7B"/>
<path d="M7.26902 65.7686H4.79102V67.0741H7.26902V65.7686Z" fill="#7C7C7B"/>
<path d="M8.40769 68.2666H5.92969V69.5721H8.40769V68.2666Z" fill="#7C7C7B"/>
<path d="M13.353 68.0918H10.875V69.3973H13.353V68.0918Z" fill="#7C7C7B"/>
<path d="M17.3413 68.6465H14.8633V69.952H17.3413V68.6465Z" fill="#7C7C7B"/>
<path d="M16.9311 66.0938H14.4531V67.3993H16.9311V66.0938Z" fill="#7C7C7B"/>
<path d="M11.7983 65.7686H9.32031V67.0741H11.7983V65.7686Z" fill="#7C7C7B"/>
<path d="M82.8471 65.7686H80.3691V67.0741H82.8471V65.7686Z" fill="#7C7C7B"/>
<path d="M80.9155 68.1348H78.4375V69.4403H80.9155V68.1348Z" fill="#7C7C7B"/>
<path d="M73.5718 68.0254H71.0938V69.3309H73.5718V68.0254Z" fill="#7C7C7B"/>
<path d="M71.396 63.375H68.918V64.6805H71.396V63.375Z" fill="#7C7C7B"/>
<path d="M73.2085 65.5898H70.7305V66.8953H73.2085V65.5898Z" fill="#7C7C7B"/>
<path d="M76.8452 63.8857H74.3672V65.1912H76.8452V63.8857Z" fill="#7C7C7B"/>
<path d="M77.8178 66.5879H75.3398V67.8934H77.8178V66.5879Z" fill="#7C7C7B"/>
<path d="M81.4428 63.4541H78.9648V64.7596H81.4428V63.4541Z" fill="#7C7C7B"/>
<path d="M15.353 63.4307H12.875V64.7362H15.353V63.4307Z" fill="#7C7C7B"/>
<path d="M10.0405 63.4307H7.5625V64.7362H10.0405V63.4307Z" fill="#7C7C7B"/>
<path d="M3.85372 67.9902H2.32422V69.2992H3.85372V67.9902Z" fill="#7C7C7B"/>
<path d="M8.42331 19.7227H5.94531V21.0282H8.42331V19.7227Z" fill="#B1B1B1"/>
<path d="M5.39988 21.6895H2.92188V22.995H5.39988V21.6895Z" fill="#B1B1B1"/>
<path d="M11.8882 21.8125H9.41016V23.118H11.8882V21.8125Z" fill="#B1B1B1"/>
<path d="M12.7163 18.1484H10.2383V19.4539H12.7163V18.1484Z" fill="#B1B1B1"/>
<path d="M73.6577 18.3398H71.1797V19.6453H73.6577V18.3398Z" fill="#B4B4B4"/>
<path d="M75.6186 22.0791H73.1406V23.3846H75.6186V22.0791Z" fill="#B4B4B4"/>
<path d="M77.0171 19.9854H74.5391V21.2909H77.0171V19.9854Z" fill="#B4B4B4"/>
<path d="M80.2436 18.1152H77.7656V19.4207H80.2436V18.1152Z" fill="#B4B4B4"/>
<path d="M80.4995 21.2627H78.0215V22.5682H80.4995V21.2627Z" fill="#B4B4B4"/>
<path d="M83.4116 19.6465H80.9336V20.952H83.4116V19.6465Z" fill="#B4B4B4"/>
<path d="M42.8108 0L11.8848 20.3525V23.3835H73.5548V20.3525L42.8108 0Z" fill="#CBCDCE"/>
<path d="M13.3711 21.9132V21.1327L42.8061 1.78125L72.0661 21.1327V21.9132H13.3711Z" fill="#A1A1A3"/>
<path d="M14.6797 21.1705L42.8057 2.66602L70.7567 21.1705H14.6797Z" fill="#CBCDCE"/>
<path d="M70.0849 67.4932H15.6914V69.9992H70.0849V67.4932Z" fill="#A1A1A3"/>
<path d="M67.7662 62.7617H18.0137V64.9947H67.7662V62.7617Z" fill="#A1A1A3"/>
<path d="M67.7662 64.085H18.0137V64.995H67.7662V64.085Z" fill="url(#paint16_linear_790_652)"/>
<path d="M68.633 64.9961H17.1445V67.4951H68.633V64.9961Z" fill="#A1A1A3"/>
<path d="M68.633 66.5879H17.1445V67.4944H68.633V66.5879Z" fill="url(#paint17_linear_790_652)"/>
<path d="M35.0702 15.6137C35.5497 15.7222 35.8787 15.8517 36.0712 16.0092C36.3442 16.2367 36.4842 16.5202 36.4842 16.8702C36.4842 17.2482 36.3337 17.5597 36.0327 17.7977C35.6547 18.1022 35.1227 18.2492 34.4192 18.2492H31.8887V18.1127C32.1232 18.1127 32.2772 18.0882 32.3542 18.0497C32.4417 18.0077 32.4942 17.9552 32.5292 17.8782C32.5572 17.8047 32.5782 17.6437 32.5782 17.3672V14.1332C32.5782 13.8602 32.5572 13.6957 32.5292 13.6292C32.4977 13.5557 32.4347 13.4997 32.3542 13.4507C32.2737 13.4227 32.1197 13.3947 31.8922 13.3947V13.2617H34.2792C34.8497 13.2617 35.2522 13.3142 35.4902 13.4227C35.7282 13.5137 35.9137 13.6712 36.0537 13.8602C36.1902 14.0597 36.2602 14.2837 36.2602 14.5217C36.2602 14.7597 36.1727 14.9662 35.9977 15.1552C35.8262 15.3512 35.5182 15.4947 35.0772 15.6067L35.0702 15.6137ZM33.7367 15.7887V17.5842C33.7332 17.7032 33.7717 17.8047 33.8382 17.8712C33.9047 17.9377 34.0062 17.9867 34.1322 17.9867C34.3317 17.9867 34.5102 17.9342 34.6782 17.8502C34.8392 17.7662 34.9652 17.6367 35.0562 17.4687C35.1402 17.3007 35.1892 17.1222 35.1892 16.9157C35.1892 16.6812 35.1297 16.4677 35.0282 16.2962C34.9162 16.1072 34.7727 15.9742 34.5802 15.9042C34.3877 15.8272 34.1147 15.7887 33.7332 15.7887H33.7367ZM33.7367 15.5157C34.0832 15.5157 34.3422 15.4632 34.5067 15.3862C34.6747 15.3092 34.7972 15.1972 34.8812 15.0467C34.9687 14.9172 35.0177 14.7317 35.0177 14.5112C35.0177 14.2907 34.9687 14.1122 34.8882 13.9652C34.8042 13.8252 34.6747 13.7132 34.5137 13.6467C34.3492 13.5732 34.0937 13.5382 33.7367 13.5382V15.5157Z" fill="#787879"/>
<path d="M39.8792 16.8294H38.1187L37.9122 17.3194C37.8422 17.4769 37.8072 17.6134 37.8072 17.7254C37.8072 17.8584 37.8632 17.9599 37.9752 18.0264C38.0417 18.0684 38.2062 18.0929 38.4652 18.1174V18.2539H36.8027V18.1174C36.9847 18.0859 37.1317 18.0124 37.2472 17.8829C37.3627 17.7814 37.5062 17.5259 37.6742 17.1339L39.4522 13.1719H39.5222L41.3247 17.2494C41.4927 17.6344 41.6397 17.8794 41.7482 17.9914C41.8357 18.0579 41.9512 18.1069 42.0982 18.1139V18.2504H39.6867V18.1139H39.7882C39.9807 18.1139 40.1172 18.0824 40.1977 18.0334C40.2502 17.9949 40.2782 17.9389 40.2782 17.8584C40.2782 17.8094 40.2642 17.7814 40.2537 17.7289C40.2537 17.7044 40.2152 17.6134 40.1417 17.4524L39.8827 16.8294H39.8792ZM39.7532 16.5669L39.0112 14.8484L38.2482 16.5669H39.7567H39.7532Z" fill="#787879"/>
<path d="M44.0527 13.2676L46.5132 16.3686V14.2266C46.5132 13.9151 46.4712 13.7156 46.3837 13.6106C46.2682 13.4566 46.0722 13.4006 45.7922 13.4006V13.2676H47.4407V13.4006C47.2272 13.4286 47.0907 13.4566 47.0137 13.5056C46.9472 13.5616 46.8842 13.6351 46.8457 13.7156C46.8072 13.8241 46.7897 13.9886 46.7897 14.2266V18.3636H46.6602L43.2897 14.2266V17.3906C43.2897 17.6671 43.3562 17.8631 43.4857 17.9681C43.6222 18.0731 43.7657 18.1186 43.9442 18.1186H44.0562V18.2551H42.2852V18.1186C42.5652 18.1186 42.7507 18.0556 42.8627 17.9436C42.9712 17.8386 43.0237 17.6566 43.0237 17.3906V13.8661L42.9152 13.7436C42.8137 13.6106 42.7157 13.5196 42.6422 13.4811C42.5582 13.4356 42.4427 13.4111 42.2887 13.4041V13.2711H44.0597L44.0527 13.2676Z" fill="#787879"/>
<path d="M50.7462 15.1706L52.4997 17.3721C52.7517 17.6766 52.9582 17.8831 53.1402 17.9951C53.2697 18.0721 53.3992 18.1141 53.5532 18.1141V18.2506H50.9562V18.1141C51.1207 18.0896 51.2257 18.0721 51.2782 18.0371C51.3272 17.9951 51.3447 17.9566 51.3447 17.9006C51.3447 17.7991 51.2362 17.6136 51.0122 17.3196L49.8712 15.8916L49.6822 16.0351V17.3966C49.6822 17.6521 49.7032 17.8096 49.7312 17.8831C49.7592 17.9391 49.8117 17.9986 49.8992 18.0546C49.9797 18.0931 50.1162 18.1176 50.2982 18.1176V18.2541H47.7852V18.1176H47.9497C48.0967 18.1176 48.2157 18.0861 48.2962 18.0406C48.3627 17.9986 48.4152 17.9426 48.4467 17.8586C48.4712 17.8026 48.4922 17.6521 48.4922 17.3966V14.1241C48.4922 13.8581 48.4712 13.7076 48.4467 13.6376C48.4187 13.5816 48.3662 13.5186 48.2822 13.4766C48.2052 13.4311 48.0897 13.3996 47.9497 13.3996H47.7852V13.2666H50.2702V13.3996C50.0917 13.3996 49.9622 13.4276 49.8817 13.4766C49.8117 13.5151 49.7627 13.5676 49.7277 13.6516C49.7032 13.7076 49.6787 13.8616 49.6787 14.1241V15.6711L51.5372 14.1801C51.7857 13.9666 51.9117 13.8091 51.9117 13.6761C51.9117 13.5816 51.8557 13.5046 51.7542 13.4556C51.6982 13.4276 51.5652 13.4031 51.3517 13.3996V13.2666H53.2977V13.3996C53.1227 13.4276 52.9827 13.4486 52.8882 13.5011C52.7867 13.5501 52.5592 13.7146 52.2022 14.0051L50.7427 15.1706H50.7462Z" fill="#787879"/>
</g>
<defs>
<linearGradient id="paint0_linear_790_652" x1="21.7871" y1="47.4169" x2="22.2946" y2="47.4169" gradientUnits="userSpaceOnUse">
<stop stop-color="#BABDBE"/>
<stop offset="0.06" stop-color="#C2C4C5"/>
<stop offset="0.18" stop-color="#CECECE"/>
<stop offset="0.35" stop-color="#D5D4D4"/>
<stop offset="0.82" stop-color="#D7D6D6"/>
</linearGradient>
<linearGradient id="paint1_linear_790_652" x1="22.7773" y1="-0.00106531" x2="23.2848" y2="-0.00106531" gradientUnits="userSpaceOnUse">
<stop stop-color="#BABDBE"/>
<stop offset="0.06" stop-color="#C2C4C5"/>
<stop offset="0.18" stop-color="#CECECE"/>
<stop offset="0.35" stop-color="#D5D4D4"/>
<stop offset="0.82" stop-color="#D7D6D6"/>
</linearGradient>
<linearGradient id="paint2_linear_790_652" x1="23.7695" y1="-0.00106386" x2="24.2805" y2="-0.00106386" gradientUnits="userSpaceOnUse">
<stop stop-color="#BABDBE"/>
<stop offset="0.06" stop-color="#C2C4C5"/>
<stop offset="0.18" stop-color="#CECECE"/>
<stop offset="0.35" stop-color="#D5D4D4"/>
<stop offset="0.82" stop-color="#D7D6D6"/>
</linearGradient>
<linearGradient id="paint3_linear_790_652" x1="24.7617" y1="-0.00106531" x2="25.2692" y2="-0.00106531" gradientUnits="userSpaceOnUse">
<stop stop-color="#BABDBE"/>
<stop offset="0.06" stop-color="#C2C4C5"/>
<stop offset="0.18" stop-color="#CECECE"/>
<stop offset="0.35" stop-color="#D5D4D4"/>
<stop offset="0.82" stop-color="#D7D6D6"/>
</linearGradient>
<linearGradient id="paint4_linear_790_652" x1="33.0117" y1="-0.00106531" x2="33.5192" y2="-0.00106531" gradientUnits="userSpaceOnUse">
<stop stop-color="#BABDBE"/>
<stop offset="0.06" stop-color="#C2C4C5"/>
<stop offset="0.18" stop-color="#CECECE"/>
<stop offset="0.35" stop-color="#D5D4D4"/>
<stop offset="0.82" stop-color="#D7D6D6"/>
</linearGradient>
<linearGradient id="paint5_linear_790_652" x1="34.0059" y1="-0.00106531" x2="34.5134" y2="-0.00106531" gradientUnits="userSpaceOnUse">
<stop stop-color="#BABDBE"/>
<stop offset="0.06" stop-color="#C2C4C5"/>
<stop offset="0.18" stop-color="#CECECE"/>
<stop offset="0.35" stop-color="#D5D4D4"/>
<stop offset="0.82" stop-color="#D7D6D6"/>
</linearGradient>
<linearGradient id="paint6_linear_790_652" x1="34.9961" y1="-0.00106531" x2="35.5036" y2="-0.00106531" gradientUnits="userSpaceOnUse">
<stop stop-color="#BABDBE"/>
<stop offset="0.06" stop-color="#C2C4C5"/>
<stop offset="0.18" stop-color="#CECECE"/>
<stop offset="0.35" stop-color="#D5D4D4"/>
<stop offset="0.82" stop-color="#D7D6D6"/>
</linearGradient>
<linearGradient id="paint7_linear_790_652" x1="35.9902" y1="-0.00106531" x2="36.4977" y2="-0.00106531" gradientUnits="userSpaceOnUse">
<stop stop-color="#BABDBE"/>
<stop offset="0.06" stop-color="#C2C4C5"/>
<stop offset="0.18" stop-color="#CECECE"/>
<stop offset="0.35" stop-color="#D5D4D4"/>
<stop offset="0.82" stop-color="#D7D6D6"/>
</linearGradient>
<linearGradient id="paint8_linear_790_652" x1="49.2852" y1="-0.00106531" x2="49.7927" y2="-0.00106531" gradientUnits="userSpaceOnUse">
<stop stop-color="#BABDBE"/>
<stop offset="0.06" stop-color="#C2C4C5"/>
<stop offset="0.18" stop-color="#CECECE"/>
<stop offset="0.35" stop-color="#D5D4D4"/>
<stop offset="0.82" stop-color="#D7D6D6"/>
</linearGradient>
<linearGradient id="paint9_linear_790_652" x1="50.2793" y1="-0.00106531" x2="50.7868" y2="-0.00106531" gradientUnits="userSpaceOnUse">
<stop stop-color="#BABDBE"/>
<stop offset="0.06" stop-color="#C2C4C5"/>
<stop offset="0.18" stop-color="#CECECE"/>
<stop offset="0.35" stop-color="#D5D4D4"/>
<stop offset="0.82" stop-color="#D7D6D6"/>
</linearGradient>
<linearGradient id="paint10_linear_790_652" x1="51.2695" y1="-0.00106531" x2="51.777" y2="-0.00106531" gradientUnits="userSpaceOnUse">
<stop stop-color="#BABDBE"/>
<stop offset="0.06" stop-color="#C2C4C5"/>
<stop offset="0.18" stop-color="#CECECE"/>
<stop offset="0.35" stop-color="#D5D4D4"/>
<stop offset="0.82" stop-color="#D7D6D6"/>
</linearGradient>
<linearGradient id="paint11_linear_790_652" x1="52.2637" y1="-0.00106531" x2="52.7712" y2="-0.00106531" gradientUnits="userSpaceOnUse">
<stop stop-color="#BABDBE"/>
<stop offset="0.06" stop-color="#C2C4C5"/>
<stop offset="0.18" stop-color="#CECECE"/>
<stop offset="0.35" stop-color="#D5D4D4"/>
<stop offset="0.82" stop-color="#D7D6D6"/>
</linearGradient>
<linearGradient id="paint12_linear_790_652" x1="60.5117" y1="-0.00106531" x2="61.0192" y2="-0.00106531" gradientUnits="userSpaceOnUse">
<stop stop-color="#BABDBE"/>
<stop offset="0.06" stop-color="#C2C4C5"/>
<stop offset="0.18" stop-color="#CECECE"/>
<stop offset="0.35" stop-color="#D5D4D4"/>
<stop offset="0.82" stop-color="#D7D6D6"/>
</linearGradient>
<linearGradient id="paint13_linear_790_652" x1="61.5059" y1="-0.00106531" x2="62.0134" y2="-0.00106531" gradientUnits="userSpaceOnUse">
<stop stop-color="#BABDBE"/>
<stop offset="0.06" stop-color="#C2C4C5"/>
<stop offset="0.18" stop-color="#CECECE"/>
<stop offset="0.35" stop-color="#D5D4D4"/>
<stop offset="0.82" stop-color="#D7D6D6"/>
</linearGradient>
<linearGradient id="paint14_linear_790_652" x1="62.4961" y1="-0.00106531" x2="63.0036" y2="-0.00106531" gradientUnits="userSpaceOnUse">
<stop stop-color="#BABDBE"/>
<stop offset="0.06" stop-color="#C2C4C5"/>
<stop offset="0.18" stop-color="#CECECE"/>
<stop offset="0.35" stop-color="#D5D4D4"/>
<stop offset="0.82" stop-color="#D7D6D6"/>
</linearGradient>
<linearGradient id="paint15_linear_790_652" x1="63.4902" y1="-0.00106531" x2="63.9977" y2="-0.00106531" gradientUnits="userSpaceOnUse">
<stop stop-color="#BABDBE"/>
<stop offset="0.06" stop-color="#C2C4C5"/>
<stop offset="0.18" stop-color="#CECECE"/>
<stop offset="0.35" stop-color="#D5D4D4"/>
<stop offset="0.82" stop-color="#D7D6D6"/>
</linearGradient>
<linearGradient id="paint16_linear_790_652" x1="42.8917" y1="64.085" x2="42.8917" y2="64.995" gradientUnits="userSpaceOnUse">
<stop stop-color="#8D9092"/>
<stop offset="1" stop-color="#8D9092"/>
</linearGradient>
<linearGradient id="paint17_linear_790_652" x1="42.8905" y1="66.5879" x2="42.8905" y2="67.4944" gradientUnits="userSpaceOnUse">
<stop stop-color="#8D9092"/>
<stop offset="1" stop-color="#8D9092"/>
</linearGradient>
<clipPath id="clip0_790_652">
<rect width="85.407" height="70" fill="white" transform="translate(0.296875)"/>
</clipPath>
</defs>
</svg>
