<svg width="24" height="24" viewBox="0 0 24 24" fill="none" xmlns="http://www.w3.org/2000/svg">
<g clip-path="url(#clip0_2568_1486)">
<path d="M22.5 2.24863L16.4948 2.24866V0.753906C16.4948 0.339531 16.1591 0.00390625 15.7448 0.00390625C15.3304 0.00390625 14.9948 0.339531 14.9948 0.753906V2.24828H8.99475V0.753906C8.99475 0.339531 8.65913 0.00390625 8.24475 0.00390625C7.83038 0.00390625 7.49475 0.339531 7.49475 0.753906V2.24828H1.5C0.671625 2.24828 0 2.91991 0 3.74828V22.4983C0 23.3266 0.671625 23.9983 1.5 23.9983H22.5C23.3284 23.9983 24 23.3266 24 22.4983V3.74828C24 2.92026 23.3284 2.24863 22.5 2.24863ZM22.5 22.4983H1.5V3.74828H7.49475V4.50391C7.49475 4.91826 7.83038 5.25391 8.24475 5.25391C8.65913 5.25391 8.99475 4.91826 8.99475 4.50391V3.74866H14.9948V4.50428C14.9948 4.91866 15.3304 5.25428 15.7448 5.25428C16.1591 5.25428 16.4948 4.91866 16.4948 4.50428V3.74866H22.5V22.4983ZM17.25 11.9986H18.75C19.164 11.9986 19.5 11.6626 19.5 11.2486V9.74863C19.5 9.33463 19.164 8.99863 18.75 8.99863H17.25C16.836 8.99863 16.5 9.33463 16.5 9.74863V11.2486C16.5 11.6626 16.836 11.9986 17.25 11.9986ZM17.25 17.9983H18.75C19.164 17.9983 19.5 17.6626 19.5 17.2483V15.7483C19.5 15.3343 19.164 14.9983 18.75 14.9983H17.25C16.836 14.9983 16.5 15.3343 16.5 15.7483V17.2483C16.5 17.663 16.836 17.9983 17.25 17.9983ZM12.75 14.9983H11.25C10.836 14.9983 10.5 15.3343 10.5 15.7483V17.2483C10.5 17.6626 10.836 17.9983 11.25 17.9983H12.75C13.164 17.9983 13.5 17.6626 13.5 17.2483V15.7483C13.5 15.3346 13.164 14.9983 12.75 14.9983ZM12.75 8.99863H11.25C10.836 8.99863 10.5 9.33463 10.5 9.74863V11.2486C10.5 11.6626 10.836 11.9986 11.25 11.9986H12.75C13.164 11.9986 13.5 11.6626 13.5 11.2486V9.74863C13.5 9.33426 13.164 8.99863 12.75 8.99863ZM6.75 8.99863H5.25C4.836 8.99863 4.5 9.33463 4.5 9.74863V11.2486C4.5 11.6626 4.836 11.9986 5.25 11.9986H6.75C7.164 11.9986 7.5 11.6626 7.5 11.2486V9.74863C7.5 9.33426 7.164 8.99863 6.75 8.99863ZM6.75 14.9983H5.25C4.836 14.9983 4.5 15.3343 4.5 15.7483V17.2483C4.5 17.6626 4.836 17.9983 5.25 17.9983H6.75C7.164 17.9983 7.5 17.6626 7.5 17.2483V15.7483C7.5 15.3346 7.164 14.9983 6.75 14.9983Z" fill="#5A5D62"/>
</g>
<defs>
<clipPath id="clip0_2568_1486">
<rect width="24" height="24" fill="white"/>
</clipPath>
</defs>
</svg>
