<svg width="78" height="72" viewBox="0 0 78 72" fill="none" xmlns="http://www.w3.org/2000/svg">
<path d="M56.2474 0.5C67.8931 0.5 77.3307 10.0833 77.3307 23.5C77.3307 50.3333 48.5807 65.6667 38.9974 71.4167C31.4151 66.8703 11.8421 56.3248 3.99523 38.8333H22.0004L25.5807 32.8687L37.0807 52.0353L45.0004 38.8333H58.1641V31.1667H40.6611L37.0807 37.1313L25.5807 17.9647L17.6611 31.1667H1.46906C0.933066 28.6463 0.663252 26.0767 0.664064 23.5C0.664064 10.0833 10.2474 0.5 21.7474 0.5C28.8774 0.5 35.1641 4.33333 38.9974 8.16667C42.8307 4.33333 49.1174 0.5 56.2474 0.5Z" fill="#01549A"/>
</svg>
