<svg width="70" height="70" viewBox="0 0 70 70" fill="none" xmlns="http://www.w3.org/2000/svg">
<path fill-rule="evenodd" clip-rule="evenodd" d="M69.5001 38.5497C69.5154 27.5365 66.4717 15.542 60.4821 0.5H9.51797C3.52647 15.542 0.484724 27.5365 0.500058 38.5497C0.515391 49.3098 3.44789 58.9813 9.13272 69.5H60.8674C66.5522 58.9794 69.4847 49.3098 69.5001 38.5497ZM33.3575 69.5V49.4632L19.8986 35.3316L22.2216 32.8917L33.0834 44.2958V38.8333C33.0834 38.325 33.2853 37.8375 33.6448 37.478C34.0042 37.1186 34.4917 36.9167 35.0001 36.9167C35.5084 36.9167 35.9959 37.1186 36.3553 37.478C36.7148 37.8375 36.9167 38.325 36.9167 38.8333V44.2977L47.7785 32.8936L50.1015 35.3316L36.6446 49.4632V69.5H33.3575Z" fill="#01549A"/>
</svg>
