<svg width="24" height="18" viewBox="0 0 24 18" fill="none" xmlns="http://www.w3.org/2000/svg">
<path d="M1.58594 7.45898L4.5099 4.17044C4.90081 3.73053 5.38048 3.37842 5.91731 3.13729C6.45415 2.89616 7.03598 2.77149 7.62448 2.77148H7.83594M1.58594 16.3132H7.3151L11.4818 13.1882C11.4818 13.1882 12.3255 12.6184 13.5651 11.6257C16.1693 9.54232 13.5651 6.2444 10.9609 7.97982C8.8401 9.39336 6.79427 10.584 6.79427 10.584" stroke="black" stroke-width="1.5625" stroke-linecap="round" stroke-linejoin="round"/>
<path d="M7.83594 10.0632V3.29232C7.83594 2.73978 8.05543 2.20988 8.44613 1.81918C8.83683 1.42848 9.36674 1.20898 9.91927 1.20898H20.3359C20.8885 1.20898 21.4184 1.42848 21.8091 1.81918C22.1998 2.20988 22.4193 2.73978 22.4193 3.29232V9.54232C22.4193 10.0949 22.1998 10.6248 21.8091 11.0155C21.4184 11.4062 20.8885 11.6257 20.3359 11.6257H13.5651" stroke="black" stroke-width="1.5625"/>
<path d="M19.8125 6.42773L19.8229 6.41628M10.4375 6.42773L10.4479 6.41628M15.125 8.50065C14.5725 8.50065 14.0426 8.28116 13.6519 7.89046C13.2612 7.49976 13.0417 6.96985 13.0417 6.41732C13.0417 5.86478 13.2612 5.33488 13.6519 4.94418C14.0426 4.55348 14.5725 4.33398 15.125 4.33398C15.6775 4.33398 16.2074 4.55348 16.5981 4.94418C16.9888 5.33488 17.2083 5.86478 17.2083 6.41732C17.2083 6.96985 16.9888 7.49976 16.5981 7.89046C16.2074 8.28116 15.6775 8.50065 15.125 8.50065Z" stroke="black" stroke-width="1.5625" stroke-linecap="round" stroke-linejoin="round"/>
</svg>
