<svg width="17" height="17" viewBox="0 0 17 17" fill="none" xmlns="http://www.w3.org/2000/svg">
<path d="M8.5 0.1875C6.85595 0.1875 5.24881 0.67502 3.88183 1.58841C2.51484 2.5018 1.44941 3.80003 0.820255 5.31894C0.191102 6.83785 0.0264864 8.50922 0.347226 10.1217C0.667966 11.7342 1.45965 13.2153 2.62218 14.3778C3.7847 15.5403 5.26585 16.332 6.87832 16.6528C8.49078 16.9735 10.1621 16.8089 11.6811 16.1797C13.2 15.5506 14.4982 14.4852 15.4116 13.1182C16.325 11.7512 16.8125 10.1441 16.8125 8.5C16.8125 6.29539 15.9367 4.18107 14.3778 2.62217C12.8189 1.06328 10.7046 0.1875 8.5 0.1875ZM7.3125 11.8191L4.34375 8.85031L5.28782 7.90625L7.3125 9.93094L11.7122 5.53125L12.6598 6.47294L7.3125 11.8191Z" fill="white"/>
</svg>
