<svg width="45" height="45" viewBox="0 0 45 45" fill="none" xmlns="http://www.w3.org/2000/svg">
<path d="M22.4974 0.416016C10.3516 0.416016 0.414062 10.3535 0.414062 22.4994C0.414062 34.6452 10.3516 44.5827 22.4974 44.5827C34.6432 44.5827 44.5807 34.6452 44.5807 22.4994C44.5807 10.3535 34.6432 0.416016 22.4974 0.416016ZM22.4974 40.166C12.7586 40.166 4.83073 32.2381 4.83073 22.4994C4.83073 12.7606 12.7586 4.83268 22.4974 4.83268C32.2361 4.83268 40.1641 12.7606 40.1641 22.4994C40.1641 32.2381 32.2361 40.166 22.4974 40.166ZM23.6016 11.4577H20.2891V24.7077L31.7724 31.7744L33.5391 28.9035L23.6016 22.941V11.4577Z" fill="#01549A"/>
</svg>
