<svg width="21" height="22" viewBox="0 0 21 22" fill="none" xmlns="http://www.w3.org/2000/svg">
<path d="M16.1038 8.32L17.6537 5L13.5037 4.64C14.1038 5.15 14.6337 5.78 15.0537 6.5C15.3737 7.05 15.5837 7.63 15.7337 8.22C15.1837 8.08 14.6038 8 14.0037 8H13.5837C13.1937 7.1095 12.553 6.35172 11.7398 5.81903C10.9266 5.28635 9.97591 5.00177 9.00375 5C6.24375 5 4.00375 7.24 4.00375 10C4.00552 10.9722 4.2901 11.9228 4.82278 12.736C5.35547 13.5493 6.11325 14.19 7.00375 14.58V15C7.00375 18.87 10.1337 22 14.0037 22C17.8737 22 21.0037 18.87 21.0037 15C21.0037 11.87 18.9438 9.21 16.1038 8.32ZM6.00375 10C6.00375 8.35 7.35375 7 9.00375 7C10.0837 7 11.0338 7.58 11.5638 8.45C9.66375 9.15 8.15375 10.66 7.45375 12.56C7.01254 12.2938 6.64735 11.9183 6.39338 11.47C6.13941 11.0216 6.00522 10.5153 6.00375 10ZM14.0037 20C11.2437 20 9.00375 17.76 9.00375 15C9.00375 12.24 11.2437 10 14.0037 10C16.7638 10 19.0037 12.24 19.0037 15C19.0037 17.76 16.7638 20 14.0037 20ZM14.5037 15.25L17.3638 16.94L16.6138 18.16L13.0037 16V11H14.5037V15.25ZM9.00375 3C8.16375 3 7.35375 3.15 6.61375 3.42L9.00375 0L11.3938 3.42C10.6538 3.15 9.84375 3 9.00375 3ZM2.95375 13.5C3.37375 14.24 3.91375 14.86 4.50375 15.37L0.36375 15L2.12375 11.23C2.26375 12 2.53375 12.78 2.95375 13.5ZM2.11375 8.79L0.34375 5L4.50375 4.65C3.8831 5.17424 3.35565 5.79974 2.94375 6.5C2.50375 7.24 2.25375 8 2.11375 8.79Z" fill="black"/>
</svg>
