<svg width="20" height="20" viewBox="0 0 20 20" fill="none" xmlns="http://www.w3.org/2000/svg">
<path d="M2.38462 3.07692C2.01739 3.07692 1.66521 3.2228 1.40554 3.48247C1.14588 3.74213 1 4.09432 1 4.46154V17.6154C1 17.9826 1.14588 18.3348 1.40554 18.5945C1.66521 18.8541 2.01739 19 2.38462 19H17.6154C17.9826 19 18.3348 18.8541 18.5945 18.5945C18.8541 18.3348 19 17.9826 19 17.6154V4.46154C19 4.09432 18.8541 3.74213 18.5945 3.48247C18.3348 3.2228 17.9826 3.07692 17.6154 3.07692H14.8462M5.15385 1V5.15385M14.8462 1V5.15385M5.15385 3.07692H12.0769" stroke="black" stroke-width="1.78571" stroke-linecap="round" stroke-linejoin="round"/>
<path d="M8.87322 6.625C8.68961 6.625 8.51351 6.69794 8.38368 6.82777C8.25385 6.95761 8.18091 7.1337 8.18091 7.31731V9.26408H6.23137C6.04776 9.26408 5.87167 9.33702 5.74183 9.46685C5.612 9.59668 5.53906 9.77277 5.53906 9.95638V12.2064C5.53906 12.39 5.612 12.5661 5.74183 12.6959C5.87167 12.8258 6.04776 12.8987 6.23137 12.8987H8.17952V14.8455C8.17952 15.0291 8.25246 15.2052 8.3823 15.335C8.51213 15.4648 8.68822 15.5378 8.87183 15.5378H11.1218C11.2127 15.5378 11.3028 15.5199 11.3868 15.4851C11.4708 15.4503 11.5471 15.3993 11.6114 15.335C11.6757 15.2707 11.7266 15.1944 11.7614 15.1104C11.7962 15.0264 11.8141 14.9364 11.8141 14.8455V12.8987H13.7609C13.9445 12.8987 14.1206 12.8258 14.2504 12.6959C14.3803 12.5661 14.4532 12.39 14.4532 12.2064V9.95638C14.4532 9.77277 14.3803 9.59668 14.2504 9.46685C14.1206 9.33702 13.9445 9.26408 13.7609 9.26408H11.8155V7.31731C11.8155 7.1337 11.7426 6.95761 11.6128 6.82777C11.4829 6.69794 11.3068 6.625 11.1232 6.625H8.87322Z" stroke="black" stroke-width="1.78571" stroke-linecap="round" stroke-linejoin="round"/>
</svg>
