<svg width="18" height="18" viewBox="0 0 18 18" fill="none" xmlns="http://www.w3.org/2000/svg">
<path d="M6.42634 10.9283H11.5692M8.99777 8.35686V13.4997M12.8549 4.49972V1.92829C12.8549 1.5873 12.7195 1.26027 12.4783 1.01916C12.2372 0.778037 11.9102 0.642578 11.5692 0.642578H6.42634C6.08535 0.642578 5.75832 0.778037 5.5172 1.01916C5.27608 1.26027 5.14063 1.5873 5.14063 1.92829V4.49972M16.0692 4.49972H1.92634C1.58535 4.49972 1.25832 4.63518 1.0172 4.8763C0.776084 5.11742 0.640625 5.44444 0.640625 5.78544V16.0712C0.640625 16.4121 0.776084 16.7392 1.0172 16.9803C1.25832 17.2214 1.58535 17.3569 1.92634 17.3569H16.0692C16.4102 17.3569 16.7372 17.2214 16.9783 16.9803C17.2195 16.7392 17.3549 16.4121 17.3549 16.0712V5.78544C17.3549 5.44444 17.2195 5.11742 16.9783 4.8763C16.7372 4.63518 16.4102 4.49972 16.0692 4.49972Z" stroke="black" stroke-width="1.71429" stroke-linecap="round" stroke-linejoin="round"/>
</svg>
