<svg width="10" height="12" viewBox="0 0 10 12" fill="none" xmlns="http://www.w3.org/2000/svg">
<path d="M1.41327 12C1.10616 12 0.849937 11.8973 0.644604 11.692C0.439271 11.4867 0.336382 11.2304 0.335938 10.9233V1.07667C0.335938 0.77 0.438826 0.514 0.644604 0.308667C0.850382 0.103333 1.1066 0.000444444 1.41327 0H8.5926C8.89927 0 9.15549 0.102889 9.36127 0.308667C9.56705 0.514445 9.66972 0.770667 9.66927 1.07733V10.9233C9.66927 11.23 9.5666 11.4862 9.36127 11.692C9.15594 11.8978 8.89949 12.0004 8.59194 12H1.41327ZM1.41327 11.3333H8.5926C8.69483 11.3333 8.78883 11.2907 8.87461 11.2053C8.96038 11.12 9.00305 11.0258 9.0026 10.9227V1.07733C9.0026 0.974667 8.95994 0.880444 8.87461 0.794667C8.78927 0.708889 8.69505 0.666222 8.59194 0.666667H7.66927V4.744L6.33594 3.94867L5.0026 4.744V0.666667H1.41327C1.3106 0.666667 1.21638 0.709333 1.1306 0.794667C1.04483 0.88 1.00216 0.974 1.0026 1.07667V10.9233C1.0026 11.0256 1.04527 11.1196 1.1306 11.2053C1.21594 11.2911 1.30994 11.3338 1.4126 11.3333" fill="black"/>
</svg>
