<svg width="36" height="35" viewBox="0 0 36 35" fill="none" xmlns="http://www.w3.org/2000/svg">
<path d="M3.7475 0.75H5.5225C5.68523 0.751307 5.8461 0.784695 5.9959 0.848253C6.14571 0.911811 6.2815 1.00429 6.39552 1.1204C6.50954 1.23651 6.59954 1.37396 6.66036 1.5249C6.72119 1.67583 6.75165 1.83728 6.75 2C6.75 2.69 6.2 3.25 5.52375 3.25H3.625C3.02 3.25 3 3.5625 3 3.875V7H3.00875C3.00362 8.08833 3.00362 9.17667 3.00875 10.265L3.005 10.75H0.500004V4.01375C0.498674 3.15056 0.839876 2.3221 1.44872 1.7102C2.05757 1.09831 2.88431 0.752979 3.7475 0.75ZM0.522504 12C0.731254 16.8425 3.47875 20.1675 8 20.6812V26.5275C8 30.9163 11.2288 34.5 15.5 34.5C19.7713 34.5 23 30.9287 23 26.5275V22C23 19.3925 24.13 18.25 26.75 18.25C28.9125 18.25 30.1413 19.0125 30.4325 20.9875C29.6033 21.298 28.9107 21.8918 28.4771 22.6638C28.0436 23.4359 27.8971 24.3364 28.0636 25.206C28.2302 26.0756 28.6989 26.8583 29.387 27.4156C30.075 27.9729 30.9381 28.2688 31.8233 28.251C32.7086 28.2332 33.559 27.9029 34.2241 27.3184C34.8892 26.734 35.3262 25.9331 35.4576 25.0575C35.5891 24.1818 35.4066 23.2879 34.9424 22.5339C34.4782 21.7799 33.7623 21.2144 32.9213 20.9375C32.4713 17.945 30.1125 15.7688 26.75 15.75C23.09 15.7288 20.5 18.25 20.5 22.125V26.5275C20.5 29.3837 18.2725 32 15.5 32C12.7275 32 10.5 29.3837 10.5 26.5275V20.6812C15.025 20.1725 17.77 16.8463 17.985 12H15.445C15.055 16.1663 12.6738 18.25 9.255 18.25C5.83625 18.25 3.4675 16.1663 3.065 12H0.522504ZM31.75 26.375C31.2527 26.375 30.7758 26.1775 30.4242 25.8258C30.0725 25.4742 29.875 24.9973 29.875 24.5C29.875 24.0027 30.0725 23.5258 30.4242 23.1742C30.7758 22.8225 31.2527 22.625 31.75 22.625C32.2473 22.625 32.7242 22.8225 33.0758 23.1742C33.4275 23.5258 33.625 24.0027 33.625 24.5C33.625 24.9973 33.4275 25.4742 33.0758 25.8258C32.7242 26.1775 32.2473 26.375 31.75 26.375ZM15.5 10.75H18C18.0038 9.61 18.0088 7.3075 18 7.02125V4.0125C18.001 3.14952 17.6597 2.32138 17.0508 1.70976C16.442 1.09814 15.6155 0.752979 14.7525 0.75H12.9775C12.8148 0.751307 12.6539 0.784695 12.5041 0.848253C12.3543 0.911811 12.2185 1.00429 12.1045 1.1204C11.9905 1.23651 11.9005 1.37396 11.8396 1.5249C11.7788 1.67583 11.7484 1.83728 11.75 2C11.75 2.69 12.3 3.25 12.9763 3.25H14.875C15.48 3.25 15.5 3.5625 15.5 3.875V10.75Z" fill="#01549A"/>
</svg>
