<svg width="20" height="19" viewBox="0 0 20 19" fill="none" xmlns="http://www.w3.org/2000/svg">
<path d="M10.0003 6.35077C10.6815 6.35041 11.3561 6.48429 11.9856 6.74477C12.6152 7.00534 13.1873 7.38747 13.6692 7.86931C14.151 8.35115 14.5331 8.92325 14.7937 9.55289C15.0542 10.1824 15.1881 10.8571 15.1877 11.5385M10.0003 6.35077C9.3189 6.35032 8.64407 6.48421 8.01443 6.74477C7.38479 7.00534 6.81269 7.38747 6.33085 7.86931C5.849 8.35115 5.46687 8.92325 5.20631 9.55289C4.94579 10.1824 4.8119 10.8571 4.81231 11.5385C4.8119 12.2198 4.94579 12.8945 5.20631 13.524C5.46687 14.1537 5.849 14.7258 6.33084 15.2076C6.81269 15.6895 7.38479 16.0716 8.01443 16.3322C8.64397 16.5927 9.31869 16.7266 10 16.7262M10.0003 6.35077L10 6.85077M10.0003 6.35077L10 6.85077M10.0003 6.35077C10.0001 6.35077 9.99989 6.35077 9.99967 6.35077L10 6.85077M10.0003 6.35077L10 6.85077M15.1877 11.5385C15.1881 12.2198 15.0542 12.8945 14.7937 13.524C14.5331 14.1537 14.151 14.7258 13.6692 15.2076C13.1873 15.6895 12.6152 16.0716 11.9856 16.3322C11.356 16.5927 10.6813 16.7266 10 16.7262M15.1877 11.5385C15.1877 11.5384 15.1877 11.5382 15.1877 11.5381L14.6877 11.5385M15.1877 11.5385C15.1877 11.5386 15.1877 11.5387 15.1877 11.5388L14.6877 11.5385M10 16.7262C10.0001 16.7262 10.0002 16.7262 10.0003 16.7262L10 16.2262L9.99967 16.7262C9.99978 16.7262 9.99989 16.7262 10 16.7262ZM10 6.85077C10.6157 6.85037 11.2255 6.97134 11.7944 7.20678C12.3633 7.44221 12.8802 7.78749 13.3156 8.22286C13.751 8.65823 14.0963 9.17516 14.3317 9.74408C14.5671 10.313 14.6881 10.9228 14.6877 11.5385M10 6.85077L14.6877 11.5385M9.23077 11.2692H9.73077V10.7692V9.73077H10.2692V10.7692V11.2692H10.7692H11.8077V11.8077H10.7692H10.2692V12.3077V13.3462H9.73077V12.3077V11.8077H9.23077H8.19231V11.2692H9.23077ZM5.88462 2.30769C5.88462 1.31845 6.70307 0.5 7.69231 0.5H12.3077C13.2969 0.5 14.1154 1.31845 14.1154 2.30769V3.34615H13.5769V2.30769C13.5769 1.59847 13.0169 1.03846 12.3077 1.03846H7.69231C6.98309 1.03846 6.42308 1.59847 6.42308 2.30769V3.34615H5.88462V2.30769ZM1.02946 5.64485C1.36847 5.30584 1.82826 5.11539 2.30769 5.11539H17.6923C18.1717 5.11539 18.6315 5.30584 18.9705 5.64485C19.3095 5.98385 19.5 6.44365 19.5 6.92308V16.1538C19.5 17.1516 18.69 17.9615 17.6923 17.9615H2.30769C1.82826 17.9615 1.36847 17.7711 1.02946 17.4321C0.690452 17.0931 0.5 16.6333 0.5 16.1538V6.92308C0.5 6.44365 0.690453 5.98385 1.02946 5.64485Z" stroke="black"/>
</svg>
