<svg width="11" height="18" viewBox="0 0 11 18" fill="none" xmlns="http://www.w3.org/2000/svg">
<path d="M4.97656 17.3542V15.2708H2.89323V14.2292H4.97656V11.0802C3.64531 10.9309 2.53108 10.3625 1.63385 9.375C0.737327 8.38681 0.289062 7.22326 0.289062 5.88438C0.289062 4.43785 0.795659 3.21007 1.80885 2.20104C2.82135 1.19201 4.05087 0.6875 5.4974 0.6875C6.94392 0.6875 8.17344 1.19201 9.18594 2.20104C10.1984 3.21007 10.705 4.43785 10.7057 5.88438C10.7057 7.22326 10.2575 8.38646 9.36094 9.37396C8.46371 10.3622 7.34948 10.9309 6.01823 11.0802V14.2292H8.10156V15.2708H6.01823V17.3542H4.97656ZM5.50052 10.0625C6.6526 10.0625 7.63455 9.65556 8.44635 8.84167C9.25816 8.02708 9.66406 7.0441 9.66406 5.89271C9.66406 4.74132 9.25712 3.75938 8.44323 2.94688C7.62934 2.13438 6.64635 1.72847 5.49427 1.72917C4.34219 1.72986 3.36024 2.13681 2.54844 2.95C1.73663 3.76458 1.33073 4.74757 1.33073 5.89896C1.33073 7.05104 1.73767 8.03299 2.55156 8.84479C3.36615 9.6566 4.34913 10.0625 5.50052 10.0625Z" fill="black"/>
</svg>
