<svg width="14" height="8" viewBox="0 0 14 8" fill="none" xmlns="http://www.w3.org/2000/svg">
<path d="M12.6272 0.490122L7.00445 5.97112L1.3817 0.490122C1.28124 0.391997 1.14638 0.337062 1.00595 0.337062C0.865519 0.337062 0.73066 0.391997 0.6302 0.490122C0.581557 0.537782 0.542913 0.594668 0.516532 0.65745C0.490151 0.720232 0.476562 0.787647 0.476562 0.855747C0.476562 0.923846 0.490151 0.991261 0.516532 1.05404C0.542913 1.11683 0.581557 1.17371 0.6302 1.22137L6.61182 7.05337C6.71687 7.15576 6.85776 7.21307 7.00445 7.21307C7.15114 7.21307 7.29203 7.15576 7.39707 7.05337L13.3787 1.2225C13.4277 1.1748 13.4666 1.11778 13.4932 1.05479C13.5198 0.991795 13.5335 0.924118 13.5335 0.855747C13.5335 0.787376 13.5198 0.719698 13.4932 0.656708C13.4666 0.593718 13.4277 0.536692 13.3787 0.488997C13.2782 0.390872 13.1434 0.335938 13.0029 0.335938C12.8625 0.335937 12.7277 0.390872 12.6272 0.488997V0.490122Z" fill="#01549A"/>
</svg>
