<svg width="293" height="251" viewBox="0 0 293 251" fill="none" xmlns="http://www.w3.org/2000/svg">
<rect x="249.303" y="30.3652" width="29.4111" height="220.583" rx="2" fill="url(#paint0_linear_790_15787)"/>
<rect x="210.078" y="67.1279" width="29.4111" height="183.819" rx="2" fill="url(#paint1_linear_790_15787)"/>
<rect x="170.875" y="103.893" width="29.4111" height="147.055" rx="2" fill="url(#paint2_linear_790_15787)"/>
<rect x="131.654" y="140.662" width="29.4111" height="110.291" rx="2" fill="url(#paint3_linear_790_15787)"/>
<rect x="94.8867" y="177.432" width="29.4111" height="73.5277" rx="2" fill="url(#paint4_linear_790_15787)"/>
<rect x="14.0078" y="226.44" width="29.4111" height="24.5092" rx="2" fill="url(#paint5_linear_790_15787)"/>
<rect x="54.4492" y="201.939" width="29.4111" height="49.0184" rx="2" fill="url(#paint6_linear_790_15787)"/>
<path d="M263.817 1.99881C264.218 1.47504 265.006 1.47503 265.407 1.99881L287.263 30.6011C287.765 31.2591 287.296 32.2082 286.468 32.2082H242.756C241.928 32.2082 241.458 31.2591 241.961 30.6011L263.817 1.99881Z" fill="#2F96EC"/>
<path d="M224.876 38.368C225.276 37.8442 226.065 37.8442 226.465 38.368L248.321 66.9702C248.824 67.6283 248.355 68.5774 247.527 68.5774H203.814C202.986 68.5774 202.517 67.6283 203.02 66.9702L224.876 38.368Z" fill="#2F96EC"/>
<path d="M183.96 76.9959C184.36 76.4721 185.149 76.4721 185.549 76.9959L207.405 105.598C207.908 106.256 207.439 107.205 206.611 107.205H162.898C162.07 107.205 161.601 106.256 162.104 105.598L183.96 76.9959Z" fill="#2F96EC"/>
<path d="M145.329 113.358C145.729 112.834 146.518 112.834 146.918 113.358L168.774 141.96C169.277 142.619 168.808 143.568 167.98 143.568H124.268C123.439 143.568 122.97 142.619 123.473 141.96L145.329 113.358Z" fill="#2F96EC"/>
<path d="M108.962 149.725C109.362 149.202 110.151 149.202 110.551 149.725L132.407 178.328C132.91 178.986 132.441 179.935 131.613 179.935H87.9003C87.0721 179.935 86.6029 178.986 87.1058 178.328L108.962 149.725Z" fill="#2F96EC"/>
<path d="M68.0635 174.72C68.4637 174.196 69.2524 174.196 69.6526 174.72L91.5087 203.322C92.0116 203.98 91.5424 204.929 90.7142 204.929H47.0019C46.1737 204.929 45.7045 203.98 46.2073 203.322L68.0635 174.72Z" fill="#2F96EC"/>
<path d="M27.1513 199.723C27.5516 199.2 28.3403 199.2 28.7405 199.723L50.5966 228.326C51.0995 228.984 50.6302 229.933 49.8021 229.933H6.08979C5.2616 229.933 4.79236 228.984 5.29521 228.326L27.1513 199.723Z" fill="#2F96EC"/>
<defs>
<linearGradient id="paint0_linear_790_15787" x1="264.008" y1="30.3652" x2="264.008" y2="250.948" gradientUnits="userSpaceOnUse">
<stop stop-color="#2F96EC"/>
<stop offset="0.5" stop-color="#8DC3F1"/>
<stop offset="1" stop-color="white"/>
</linearGradient>
<linearGradient id="paint1_linear_790_15787" x1="224.784" y1="67.1279" x2="224.784" y2="250.947" gradientUnits="userSpaceOnUse">
<stop stop-color="#2F96EC"/>
<stop offset="0.5" stop-color="#8DC3F1"/>
<stop offset="1" stop-color="white"/>
</linearGradient>
<linearGradient id="paint2_linear_790_15787" x1="185.581" y1="103.893" x2="185.581" y2="250.948" gradientUnits="userSpaceOnUse">
<stop stop-color="#2F96EC"/>
<stop offset="0.5" stop-color="#8DC3F1"/>
<stop offset="1" stop-color="white"/>
</linearGradient>
<linearGradient id="paint3_linear_790_15787" x1="146.36" y1="140.662" x2="146.36" y2="250.954" gradientUnits="userSpaceOnUse">
<stop stop-color="#2F96EC"/>
<stop offset="0.5" stop-color="#8DC3F1"/>
<stop offset="1" stop-color="white"/>
</linearGradient>
<linearGradient id="paint4_linear_790_15787" x1="109.592" y1="177.432" x2="109.592" y2="250.959" gradientUnits="userSpaceOnUse">
<stop stop-color="#2F96EC"/>
<stop offset="0.5" stop-color="#8DC3F1"/>
<stop offset="1" stop-color="white"/>
</linearGradient>
<linearGradient id="paint5_linear_790_15787" x1="28.7133" y1="226.44" x2="28.7133" y2="250.95" gradientUnits="userSpaceOnUse">
<stop stop-color="#2F96EC"/>
<stop offset="0.5" stop-color="#8DC3F1"/>
<stop offset="1" stop-color="white"/>
</linearGradient>
<linearGradient id="paint6_linear_790_15787" x1="69.1547" y1="201.939" x2="69.1547" y2="250.958" gradientUnits="userSpaceOnUse">
<stop stop-color="#2F96EC"/>
<stop offset="0.5" stop-color="#8DC3F1"/>
<stop offset="1" stop-color="white"/>
</linearGradient>
</defs>
</svg>
