<svg width="37" height="78" viewBox="0 0 37 78" fill="none" xmlns="http://www.w3.org/2000/svg">
<path d="M28.5833 8.33268C28.5833 10.366 27.7756 12.3161 26.3378 13.7538C24.9 15.1916 22.95 15.9993 20.9167 15.9993C18.8833 15.9993 16.9333 15.1916 15.4955 13.7538C14.0577 12.3161 13.25 10.366 13.25 8.33268C13.25 6.29936 14.0577 4.34931 15.4955 2.91153C16.9333 1.47375 18.8833 0.666016 20.9167 0.666016C22.95 0.666016 24.9 1.47375 26.3378 2.91153C27.7756 4.34931 28.5833 6.29936 28.5833 8.33268Z" fill="#01549A"/>
<path fill-rule="evenodd" clip-rule="evenodd" d="M14.4952 45.6495C13.9225 45.5478 13.3804 45.3171 12.9101 44.9749L2.36843 37.3082C1.57909 36.7344 1.03831 35.8812 0.856325 34.9224C0.674337 33.9637 0.864843 32.9717 1.38901 32.1485L1.39093 32.1447L1.39668 32.137L1.41584 32.1083L1.47718 32.0105C1.82633 31.4686 2.18351 30.9319 2.54859 30.4005C3.24818 29.3732 4.22376 27.9894 5.30284 26.5921C6.36467 25.2179 7.60859 23.7248 8.84484 22.5422C9.46009 21.9538 10.1673 21.3519 10.9283 20.8747C11.6087 20.4454 12.7721 19.832 14.2058 19.832H18.0391C18.8491 19.8324 19.6382 20.0894 20.2931 20.5661H20.2969L20.3008 20.5699L20.3123 20.5776L20.3448 20.6025L20.456 20.6849L20.8432 20.9801C21.169 21.2312 21.6309 21.5973 22.1925 22.0611C23.6876 23.3027 25.1247 24.6125 26.4993 25.9864C29.7576 29.2448 33.773 33.9924 35.9733 39.4913C37.2479 42.6768 37.2786 45.6629 36.257 48.2945C35.2738 50.8226 33.474 52.6166 31.7931 53.8375C30.1064 55.0661 28.3297 55.8692 27.0321 56.3599C26.4916 56.5649 26.0163 56.7221 25.6329 56.839L22.8308 71.582V73.4987C22.8308 74.5154 22.4269 75.4904 21.708 76.2093C20.9891 76.9282 20.0141 77.332 18.9974 77.332C17.9808 77.332 17.0057 76.9282 16.2868 76.2093C15.568 75.4904 15.1641 74.5154 15.1641 73.4987V71.582C15.1641 60.3599 15.1583 53.0728 14.4952 45.6495ZM13.234 35.7308C12.9316 33.8741 12.6032 32.0218 12.2488 30.1744C11.9575 30.5296 11.6643 30.8982 11.3691 31.2803C10.8401 31.9645 10.3341 32.6507 9.87984 33.2909L13.234 35.7308Z" fill="#01549A"/>
</svg>
