<svg width="54" height="44" viewBox="0 0 54 44" fill="none" xmlns="http://www.w3.org/2000/svg">
<path d="M0.75 3.3125C0.75 2.56658 1.04632 1.85121 1.57376 1.32376C2.10121 0.796316 2.81658 0.5 3.5625 0.5H50.4375C51.1834 0.5 51.8988 0.796316 52.4262 1.32376C52.9537 1.85121 53.25 2.56658 53.25 3.3125C53.25 4.05842 52.9537 4.77379 52.4262 5.30124C51.8988 5.82868 51.1834 6.125 50.4375 6.125H3.5625C2.81658 6.125 2.10121 5.82868 1.57376 5.30124C1.04632 4.77379 0.75 4.05842 0.75 3.3125ZM0.75 22.0625C0.75 21.3166 1.04632 20.6012 1.57376 20.0738C2.10121 19.5463 2.81658 19.25 3.5625 19.25H50.4375C51.1834 19.25 51.8988 19.5463 52.4262 20.0738C52.9537 20.6012 53.25 21.3166 53.25 22.0625C53.25 22.8084 52.9537 23.5238 52.4262 24.0512C51.8988 24.5787 51.1834 24.875 50.4375 24.875H3.5625C2.81658 24.875 2.10121 24.5787 1.57376 24.0512C1.04632 23.5238 0.75 22.8084 0.75 22.0625ZM3.5625 38H50.4375C51.1834 38 51.8988 38.2963 52.4262 38.8238C52.9537 39.3512 53.25 40.0666 53.25 40.8125C53.25 41.5584 52.9537 42.2738 52.4262 42.8012C51.8988 43.3287 51.1834 43.625 50.4375 43.625H3.5625C2.81658 43.625 2.10121 43.3287 1.57376 42.8012C1.04632 42.2738 0.75 41.5584 0.75 40.8125C0.75 40.0666 1.04632 39.3512 1.57376 38.8238C2.10121 38.2963 2.81658 38 3.5625 38Z" fill="#01549A"/>
</svg>
