<svg width="37" height="30" viewBox="0 0 37 30" fill="none" xmlns="http://www.w3.org/2000/svg">
<path d="M35.75 27.5H34.5V15C34.5 14.337 34.2366 13.7011 33.7678 13.2322C33.2989 12.7634 32.663 12.5 32 12.5H23.25V2.5C23.25 1.83696 22.9866 1.20107 22.5178 0.732233C22.0489 0.263392 21.413 0 20.75 0H5.75C5.08696 0 4.45107 0.263392 3.98223 0.732233C3.51339 1.20107 3.25 1.83696 3.25 2.5V27.5H2C1.66848 27.5 1.35054 27.6317 1.11612 27.8661C0.881696 28.1005 0.75 28.4185 0.75 28.75C0.75 29.0815 0.881696 29.3995 1.11612 29.6339C1.35054 29.8683 1.66848 30 2 30H35.75C36.0815 30 36.3995 29.8683 36.6339 29.6339C36.8683 29.3995 37 29.0815 37 28.75C37 28.4185 36.8683 28.1005 36.6339 27.8661C36.3995 27.6317 36.0815 27.5 35.75 27.5ZM32 15V27.5H23.25V15H32ZM5.75 2.5H20.75V27.5H18.25V20C18.25 19.6685 18.1183 19.3505 17.8839 19.1161C17.6495 18.8817 17.3315 18.75 17 18.75H9.5C9.16848 18.75 8.85054 18.8817 8.61612 19.1161C8.3817 19.3505 8.25 19.6685 8.25 20V27.5H5.75V2.5ZM15.75 27.5H10.75V21.25H15.75V27.5ZM8.25 10C8.25 9.66848 8.3817 9.35054 8.61612 9.11612C8.85054 8.8817 9.16848 8.75 9.5 8.75H12V6.25C12 5.91848 12.1317 5.60054 12.3661 5.36612C12.6005 5.1317 12.9185 5 13.25 5C13.5815 5 13.8995 5.1317 14.1339 5.36612C14.3683 5.60054 14.5 5.91848 14.5 6.25V8.75H17C17.3315 8.75 17.6495 8.8817 17.8839 9.11612C18.1183 9.35054 18.25 9.66848 18.25 10C18.25 10.3315 18.1183 10.6495 17.8839 10.8839C17.6495 11.1183 17.3315 11.25 17 11.25H14.5V13.75C14.5 14.0815 14.3683 14.3995 14.1339 14.6339C13.8995 14.8683 13.5815 15 13.25 15C12.9185 15 12.6005 14.8683 12.3661 14.6339C12.1317 14.3995 12 14.0815 12 13.75V11.25H9.5C9.16848 11.25 8.85054 11.1183 8.61612 10.8839C8.3817 10.6495 8.25 10.3315 8.25 10Z" fill="#01549A"/>
</svg>
