<svg width="18" height="15" viewBox="0 0 18 15" fill="none" xmlns="http://www.w3.org/2000/svg">
<path d="M17.4062 13.4375H16.8125V7.5C16.8125 7.18506 16.6874 6.88301 16.4647 6.66031C16.242 6.43761 15.9399 6.3125 15.625 6.3125H11.4688V1.5625C11.4688 1.24756 11.3436 0.94551 11.1209 0.722811C10.8982 0.500111 10.5962 0.375 10.2812 0.375H3.15625C2.84131 0.375 2.53926 0.500111 2.31656 0.722811C2.09386 0.94551 1.96875 1.24756 1.96875 1.5625V13.4375H1.375C1.21753 13.4375 1.06651 13.5001 0.955155 13.6114C0.843806 13.7228 0.78125 13.8738 0.78125 14.0312C0.78125 14.1887 0.843806 14.3397 0.955155 14.4511C1.06651 14.5624 1.21753 14.625 1.375 14.625H17.4062C17.5637 14.625 17.7147 14.5624 17.8261 14.4511C17.9374 14.3397 18 14.1887 18 14.0312C18 13.8738 17.9374 13.7228 17.8261 13.6114C17.7147 13.5001 17.5637 13.4375 17.4062 13.4375ZM8.5 13.4375H4.9375V9.875H8.5V13.4375ZM8.5 5.71875H7.3125V6.90625C7.3125 7.06372 7.24994 7.21475 7.13859 7.32609C7.02725 7.43744 6.87622 7.5 6.71875 7.5C6.56128 7.5 6.41025 7.43744 6.29891 7.32609C6.18756 7.21475 6.125 7.06372 6.125 6.90625V5.71875H4.9375C4.78003 5.71875 4.62901 5.65619 4.51766 5.54484C4.40631 5.4335 4.34375 5.28247 4.34375 5.125C4.34375 4.96753 4.40631 4.8165 4.51766 4.70516C4.62901 4.59381 4.78003 4.53125 4.9375 4.53125H6.125V3.34375C6.125 3.18628 6.18756 3.03526 6.29891 2.92391C6.41025 2.81256 6.56128 2.75 6.71875 2.75C6.87622 2.75 7.02725 2.81256 7.13859 2.92391C7.24994 3.03526 7.3125 3.18628 7.3125 3.34375V4.53125H8.5C8.65747 4.53125 8.8085 4.59381 8.91985 4.70516C9.03119 4.8165 9.09375 4.96753 9.09375 5.125C9.09375 5.28247 9.03119 5.4335 8.91985 5.54484C8.8085 5.65619 8.65747 5.71875 8.5 5.71875ZM15.625 13.4375H11.4688V7.5H15.625V13.4375Z" fill="#01549A"/>
</svg>
