<svg width="15" height="12" viewBox="0 0 15 12" fill="none" xmlns="http://www.w3.org/2000/svg">
<path d="M14.5 11H14V6C14 5.73478 13.8946 5.48043 13.7071 5.29289C13.5196 5.10536 13.2652 5 13 5H9.5V1C9.5 0.734784 9.39464 0.48043 9.20711 0.292893C9.01957 0.105357 8.76522 0 8.5 0H2.5C2.23478 0 1.98043 0.105357 1.79289 0.292893C1.60536 0.48043 1.5 0.734784 1.5 1V11H1C0.867392 11 0.740215 11.0527 0.646447 11.1464C0.552678 11.2402 0.5 11.3674 0.5 11.5C0.5 11.6326 0.552678 11.7598 0.646447 11.8536C0.740215 11.9473 0.867392 12 1 12H14.5C14.6326 12 14.7598 11.9473 14.8536 11.8536C14.9473 11.7598 15 11.6326 15 11.5C15 11.3674 14.9473 11.2402 14.8536 11.1464C14.7598 11.0527 14.6326 11 14.5 11ZM13 6V11H9.5V6H13ZM2.5 1H8.5V11H7.5V8C7.5 7.86739 7.44732 7.74021 7.35355 7.64645C7.25979 7.55268 7.13261 7.5 7 7.5H4C3.86739 7.5 3.74021 7.55268 3.64645 7.64645C3.55268 7.74021 3.5 7.86739 3.5 8V11H2.5V1ZM6.5 11H4.5V8.5H6.5V11ZM3.5 4C3.5 3.86739 3.55268 3.74021 3.64645 3.64645C3.74021 3.55268 3.86739 3.5 4 3.5H5V2.5C5 2.36739 5.05268 2.24021 5.14645 2.14645C5.24021 2.05268 5.36739 2 5.5 2C5.63261 2 5.75979 2.05268 5.85355 2.14645C5.94732 2.24021 6 2.36739 6 2.5V3.5H7C7.13261 3.5 7.25979 3.55268 7.35355 3.64645C7.44732 3.74021 7.5 3.86739 7.5 4C7.5 4.13261 7.44732 4.25979 7.35355 4.35355C7.25979 4.44732 7.13261 4.5 7 4.5H6V5.5C6 5.63261 5.94732 5.75979 5.85355 5.85355C5.75979 5.94732 5.63261 6 5.5 6C5.36739 6 5.24021 5.94732 5.14645 5.85355C5.05268 5.75979 5 5.63261 5 5.5V4.5H4C3.86739 4.5 3.74021 4.44732 3.64645 4.35355C3.55268 4.25979 3.5 4.13261 3.5 4Z" fill="black"/>
</svg>
