<svg width="14" height="14" viewBox="0 0 14 14" fill="none" xmlns="http://www.w3.org/2000/svg">
<path d="M6.32813 10.3789H7.66146V6.37891H6.32813V10.3789ZM6.99479 5.04557C7.18368 5.04557 7.34213 4.98157 7.47013 4.85357C7.59813 4.72557 7.6619 4.56735 7.66146 4.37891C7.66101 4.19046 7.59701 4.03224 7.46946 3.90424C7.3419 3.77624 7.18368 3.71224 6.99479 3.71224C6.8059 3.71224 6.64768 3.77624 6.52013 3.90424C6.39257 4.03224 6.32857 4.19046 6.32813 4.37891C6.32768 4.56735 6.39168 4.7258 6.52013 4.85424C6.64857 4.98268 6.80679 5.04646 6.99479 5.04557ZM6.99479 13.7122C6.07257 13.7122 5.2059 13.5371 4.39479 13.1869C3.58368 12.8367 2.87813 12.3618 2.27813 11.7622C1.67813 11.1627 1.20324 10.4571 0.853459 9.64557C0.503681 8.83402 0.32857 7.96735 0.328126 7.04557C0.327681 6.1238 0.502793 5.25713 0.853459 4.44557C1.20413 3.63402 1.67901 2.92846 2.27813 2.32891C2.87724 1.72935 3.58279 1.25446 4.39479 0.90424C5.20679 0.554017 6.07346 0.378906 6.99479 0.378906C7.91613 0.378906 8.78279 0.554017 9.59479 0.90424C10.4068 1.25446 11.1123 1.72935 11.7115 2.32891C12.3106 2.92846 12.7857 3.63402 13.1368 4.44557C13.4879 5.25713 13.6628 6.1238 13.6615 7.04557C13.6601 7.96735 13.485 8.83402 13.1361 9.64557C12.7872 10.4571 12.3123 11.1627 11.7115 11.7622C11.1106 12.3618 10.405 12.8369 9.59479 13.1876C8.78457 13.5382 7.9179 13.7131 6.99479 13.7122Z" fill="#01549A"/>
</svg>
