<svg width="18" height="18" viewBox="0 0 18 18" fill="none" xmlns="http://www.w3.org/2000/svg">
<mask id="path-1-inside-1_2727_728" fill="white">
<path d="M16.6062 8.94863H14.8169C14.5797 8.94863 14.3521 9.04289 14.1843 9.21067C14.0165 9.37845 13.9223 9.60601 13.9223 9.84328C13.9223 10.0806 14.0165 10.3081 14.1843 10.4759C14.3521 10.6437 14.5797 10.7379 14.8169 10.7379V12.5273H13.7559C13.8616 12.2406 13.9175 11.9381 13.9214 11.6326C13.9214 11.0418 13.7264 10.4675 13.3667 9.99878C13.007 9.53006 12.5028 9.19312 11.9321 9.0402C11.3614 8.88729 10.7562 8.92695 10.2104 9.15302C9.66453 9.3791 9.20853 9.77897 8.9131 10.2906C8.85343 10.3924 8.81448 10.505 8.7985 10.6219C8.78251 10.7388 8.78981 10.8577 8.81997 10.9718C8.85013 11.0858 8.90255 11.1928 8.97422 11.2865C9.04589 11.3802 9.13539 11.4589 9.23757 11.5179C9.33975 11.5769 9.45259 11.6151 9.56959 11.6303C9.68659 11.6455 9.80545 11.6374 9.91931 11.6065C10.0332 11.5756 10.1398 11.5224 10.2331 11.4501C10.3263 11.3779 10.4043 11.2878 10.4626 11.1853C10.5412 11.0493 10.6541 10.9363 10.7901 10.8578C10.9261 10.7793 11.0804 10.7379 11.2374 10.7379C11.4747 10.7379 11.7023 10.8322 11.87 11C12.0378 11.1678 12.1321 11.3953 12.1321 11.6326C12.1321 11.8699 12.0378 12.0974 11.87 12.2652C11.7023 12.433 11.4747 12.5273 11.2374 12.5273C11.0001 12.5273 10.7726 12.6215 10.6048 12.7893C10.437 12.9571 10.3428 13.1846 10.3428 13.4219C10.3428 13.6592 10.437 13.8867 10.6048 14.0545C10.7726 14.2223 11.0001 14.3166 11.2374 14.3166C11.4747 14.3166 11.7023 14.4108 11.87 14.5786C12.0378 14.7464 12.1321 14.9739 12.1321 15.2112C12.1321 15.4485 12.0378 15.6761 11.87 15.8438C11.7023 16.0116 11.4747 16.1059 11.2374 16.1059C11.0804 16.1059 10.9261 16.0645 10.7901 15.986C10.6541 15.9075 10.5412 15.7945 10.4626 15.6585C10.4043 15.556 10.3263 15.466 10.2331 15.3937C10.1398 15.3214 10.0332 15.2682 9.91931 15.2373C9.80545 15.2064 9.68659 15.1983 9.56959 15.2135C9.45259 15.2287 9.33975 15.2669 9.23757 15.3259C9.13539 15.3849 9.04589 15.4636 8.97422 15.5573C8.90255 15.651 8.85013 15.758 8.81997 15.8721C8.78981 15.9861 8.78251 16.105 8.7985 16.2219C8.81448 16.3388 8.85343 16.4514 8.9131 16.5532C9.20853 17.0648 9.66453 17.4647 10.2104 17.6908C10.7562 17.9169 11.3614 17.9565 11.9321 17.8036C12.5028 17.6507 13.007 17.3137 13.3667 16.845C13.7264 16.3763 13.9214 15.802 13.9214 15.2112C13.9175 14.9058 13.8616 14.6032 13.7559 14.3166H14.816V17.0005C14.816 17.2378 14.9103 17.4654 15.0781 17.6331C15.2459 17.8009 15.4734 17.8952 15.7107 17.8952C15.948 17.8952 16.1755 17.8009 16.3433 17.6331C16.5111 17.4654 16.6053 17.2378 16.6053 17.0005V10.7379C16.8426 10.7379 17.0702 10.6437 17.238 10.4759C17.4057 10.3081 17.5 10.0806 17.5 9.84328C17.5 9.60601 17.4057 9.37845 17.238 9.21067C17.0702 9.04289 16.8435 8.94863 16.6062 8.94863ZM5.89632 8.27138C5.92419 8.38607 5.97447 8.49411 6.04427 8.58928C6.11407 8.68445 6.20201 8.76487 6.30303 8.82591C6.40405 8.88694 6.51614 8.92739 6.63286 8.94491C6.74958 8.96243 6.86861 8.95669 6.9831 8.92801C7.09759 8.89933 7.20527 8.84828 7.29994 8.7778C7.39461 8.70732 7.4744 8.6188 7.53471 8.51735C7.59503 8.4159 7.63467 8.30352 7.65136 8.18668C7.66805 8.06984 7.66145 7.95085 7.63195 7.83657L6.06004 1.54715C5.95008 1.10535 5.69549 0.713043 5.33678 0.432676C4.97808 0.152308 4.53589 0 4.08062 0C3.62535 0 3.18316 0.152308 2.82446 0.432676C2.46575 0.713043 2.21116 1.10535 2.1012 1.54715L0.528392 7.83657C0.498895 7.95085 0.4923 8.06984 0.508989 8.18668C0.525679 8.30352 0.565322 8.4159 0.625634 8.51735C0.685947 8.6188 0.765737 8.70732 0.860408 8.7778C0.95508 8.84828 1.06276 8.89933 1.17725 8.92801C1.29174 8.95669 1.41077 8.96243 1.52748 8.94491C1.6442 8.92739 1.7563 8.88694 1.85732 8.82591C1.95833 8.76487 2.04628 8.68445 2.11608 8.58928C2.18588 8.49411 2.23616 8.38607 2.26402 8.27138L2.76503 6.26466H5.39532L5.89632 8.27138ZM3.21325 4.47535L3.83683 1.98195C3.85563 1.9324 3.88907 1.88974 3.93269 1.85963C3.97632 1.82953 4.02807 1.81341 4.08107 1.81341C4.13407 1.81341 4.18582 1.82953 4.22944 1.85963C4.27307 1.88974 4.3065 1.9324 4.32531 1.98195L4.94888 4.47535H3.21325ZM10.3437 4.47535H11.2383C11.4756 4.47535 11.7031 4.56961 11.8709 4.73739C12.0387 4.90517 12.133 5.13273 12.133 5.37001V6.26466C12.133 6.50194 12.2272 6.7295 12.395 6.89728C12.5628 7.06506 12.7903 7.15932 13.0276 7.15932C13.2649 7.15932 13.4925 7.06506 13.6602 6.89728C13.828 6.7295 13.9223 6.50194 13.9223 6.26466V5.37001C13.9216 4.6584 13.6386 3.97613 13.1354 3.47294C12.6322 2.96976 11.9499 2.68675 11.2383 2.68604H10.3437C10.1064 2.68604 9.87882 2.7803 9.71104 2.94808C9.54326 3.11586 9.449 3.34342 9.449 3.5807C9.449 3.81798 9.54326 4.04554 9.71104 4.21332C9.87882 4.3811 10.1064 4.47535 10.3437 4.47535ZM6.76503 12.5273H5.87038C5.6331 12.5273 5.40554 12.433 5.23776 12.2652C5.06998 12.0974 4.97572 11.8699 4.97572 11.6326V10.7379C4.97572 10.5007 4.88146 10.2731 4.71368 10.1053C4.5459 9.93754 4.31835 9.84328 4.08107 9.84328C3.84379 9.84328 3.61623 9.93754 3.44845 10.1053C3.28067 10.2731 3.18641 10.5007 3.18641 10.7379V11.6326C3.18712 12.3442 3.47013 13.0265 3.97331 13.5297C4.4765 14.0328 5.15876 14.3159 5.87038 14.3166H6.76503C7.00231 14.3166 7.22987 14.2223 7.39765 14.0545C7.56543 13.8867 7.65969 13.6592 7.65969 13.4219C7.65969 13.1846 7.56543 12.9571 7.39765 12.7893C7.22987 12.6215 7.00231 12.5273 6.76503 12.5273Z"/>
</mask>
<path d="M16.6062 8.94863H14.8169C14.5797 8.94863 14.3521 9.04289 14.1843 9.21067C14.0165 9.37845 13.9223 9.60601 13.9223 9.84328C13.9223 10.0806 14.0165 10.3081 14.1843 10.4759C14.3521 10.6437 14.5797 10.7379 14.8169 10.7379V12.5273H13.7559C13.8616 12.2406 13.9175 11.9381 13.9214 11.6326C13.9214 11.0418 13.7264 10.4675 13.3667 9.99878C13.007 9.53006 12.5028 9.19312 11.9321 9.0402C11.3614 8.88729 10.7562 8.92695 10.2104 9.15302C9.66453 9.3791 9.20853 9.77897 8.9131 10.2906C8.85343 10.3924 8.81448 10.505 8.7985 10.6219C8.78251 10.7388 8.78981 10.8577 8.81997 10.9718C8.85013 11.0858 8.90255 11.1928 8.97422 11.2865C9.04589 11.3802 9.13539 11.4589 9.23757 11.5179C9.33975 11.5769 9.45259 11.6151 9.56959 11.6303C9.68659 11.6455 9.80545 11.6374 9.91931 11.6065C10.0332 11.5756 10.1398 11.5224 10.2331 11.4501C10.3263 11.3779 10.4043 11.2878 10.4626 11.1853C10.5412 11.0493 10.6541 10.9363 10.7901 10.8578C10.9261 10.7793 11.0804 10.7379 11.2374 10.7379C11.4747 10.7379 11.7023 10.8322 11.87 11C12.0378 11.1678 12.1321 11.3953 12.1321 11.6326C12.1321 11.8699 12.0378 12.0974 11.87 12.2652C11.7023 12.433 11.4747 12.5273 11.2374 12.5273C11.0001 12.5273 10.7726 12.6215 10.6048 12.7893C10.437 12.9571 10.3428 13.1846 10.3428 13.4219C10.3428 13.6592 10.437 13.8867 10.6048 14.0545C10.7726 14.2223 11.0001 14.3166 11.2374 14.3166C11.4747 14.3166 11.7023 14.4108 11.87 14.5786C12.0378 14.7464 12.1321 14.9739 12.1321 15.2112C12.1321 15.4485 12.0378 15.6761 11.87 15.8438C11.7023 16.0116 11.4747 16.1059 11.2374 16.1059C11.0804 16.1059 10.9261 16.0645 10.7901 15.986C10.6541 15.9075 10.5412 15.7945 10.4626 15.6585C10.4043 15.556 10.3263 15.466 10.2331 15.3937C10.1398 15.3214 10.0332 15.2682 9.91931 15.2373C9.80545 15.2064 9.68659 15.1983 9.56959 15.2135C9.45259 15.2287 9.33975 15.2669 9.23757 15.3259C9.13539 15.3849 9.04589 15.4636 8.97422 15.5573C8.90255 15.651 8.85013 15.758 8.81997 15.8721C8.78981 15.9861 8.78251 16.105 8.7985 16.2219C8.81448 16.3388 8.85343 16.4514 8.9131 16.5532C9.20853 17.0648 9.66453 17.4647 10.2104 17.6908C10.7562 17.9169 11.3614 17.9565 11.9321 17.8036C12.5028 17.6507 13.007 17.3137 13.3667 16.845C13.7264 16.3763 13.9214 15.802 13.9214 15.2112C13.9175 14.9058 13.8616 14.6032 13.7559 14.3166H14.816V17.0005C14.816 17.2378 14.9103 17.4654 15.0781 17.6331C15.2459 17.8009 15.4734 17.8952 15.7107 17.8952C15.948 17.8952 16.1755 17.8009 16.3433 17.6331C16.5111 17.4654 16.6053 17.2378 16.6053 17.0005V10.7379C16.8426 10.7379 17.0702 10.6437 17.238 10.4759C17.4057 10.3081 17.5 10.0806 17.5 9.84328C17.5 9.60601 17.4057 9.37845 17.238 9.21067C17.0702 9.04289 16.8435 8.94863 16.6062 8.94863ZM5.89632 8.27138C5.92419 8.38607 5.97447 8.49411 6.04427 8.58928C6.11407 8.68445 6.20201 8.76487 6.30303 8.82591C6.40405 8.88694 6.51614 8.92739 6.63286 8.94491C6.74958 8.96243 6.86861 8.95669 6.9831 8.92801C7.09759 8.89933 7.20527 8.84828 7.29994 8.7778C7.39461 8.70732 7.4744 8.6188 7.53471 8.51735C7.59503 8.4159 7.63467 8.30352 7.65136 8.18668C7.66805 8.06984 7.66145 7.95085 7.63195 7.83657L6.06004 1.54715C5.95008 1.10535 5.69549 0.713043 5.33678 0.432676C4.97808 0.152308 4.53589 0 4.08062 0C3.62535 0 3.18316 0.152308 2.82446 0.432676C2.46575 0.713043 2.21116 1.10535 2.1012 1.54715L0.528392 7.83657C0.498895 7.95085 0.4923 8.06984 0.508989 8.18668C0.525679 8.30352 0.565322 8.4159 0.625634 8.51735C0.685947 8.6188 0.765737 8.70732 0.860408 8.7778C0.95508 8.84828 1.06276 8.89933 1.17725 8.92801C1.29174 8.95669 1.41077 8.96243 1.52748 8.94491C1.6442 8.92739 1.7563 8.88694 1.85732 8.82591C1.95833 8.76487 2.04628 8.68445 2.11608 8.58928C2.18588 8.49411 2.23616 8.38607 2.26402 8.27138L2.76503 6.26466H5.39532L5.89632 8.27138ZM3.21325 4.47535L3.83683 1.98195C3.85563 1.9324 3.88907 1.88974 3.93269 1.85963C3.97632 1.82953 4.02807 1.81341 4.08107 1.81341C4.13407 1.81341 4.18582 1.82953 4.22944 1.85963C4.27307 1.88974 4.3065 1.9324 4.32531 1.98195L4.94888 4.47535H3.21325ZM10.3437 4.47535H11.2383C11.4756 4.47535 11.7031 4.56961 11.8709 4.73739C12.0387 4.90517 12.133 5.13273 12.133 5.37001V6.26466C12.133 6.50194 12.2272 6.7295 12.395 6.89728C12.5628 7.06506 12.7903 7.15932 13.0276 7.15932C13.2649 7.15932 13.4925 7.06506 13.6602 6.89728C13.828 6.7295 13.9223 6.50194 13.9223 6.26466V5.37001C13.9216 4.6584 13.6386 3.97613 13.1354 3.47294C12.6322 2.96976 11.9499 2.68675 11.2383 2.68604H10.3437C10.1064 2.68604 9.87882 2.7803 9.71104 2.94808C9.54326 3.11586 9.449 3.34342 9.449 3.5807C9.449 3.81798 9.54326 4.04554 9.71104 4.21332C9.87882 4.3811 10.1064 4.47535 10.3437 4.47535ZM6.76503 12.5273H5.87038C5.6331 12.5273 5.40554 12.433 5.23776 12.2652C5.06998 12.0974 4.97572 11.8699 4.97572 11.6326V10.7379C4.97572 10.5007 4.88146 10.2731 4.71368 10.1053C4.5459 9.93754 4.31835 9.84328 4.08107 9.84328C3.84379 9.84328 3.61623 9.93754 3.44845 10.1053C3.28067 10.2731 3.18641 10.5007 3.18641 10.7379V11.6326C3.18712 12.3442 3.47013 13.0265 3.97331 13.5297C4.4765 14.0328 5.15876 14.3159 5.87038 14.3166H6.76503C7.00231 14.3166 7.22987 14.2223 7.39765 14.0545C7.56543 13.8867 7.65969 13.6592 7.65969 13.4219C7.65969 13.1846 7.56543 12.9571 7.39765 12.7893C7.22987 12.6215 7.00231 12.5273 6.76503 12.5273Z" stroke="black" stroke-width="2" mask="url(#path-1-inside-1_2727_728)"/>
</svg>
