<svg width="28" height="31" viewBox="0 0 28 31" fill="none" xmlns="http://www.w3.org/2000/svg">
<path d="M14.0031 0.300781C11.9875 0.300781 10.0544 1.10149 8.62911 2.52677C7.20384 3.95205 6.40312 5.88514 6.40312 7.90078C6.40312 9.91643 7.20384 11.8495 8.62911 13.2748C10.0544 14.7001 11.9875 15.5008 14.0031 15.5008C16.0188 15.5008 17.9519 14.7001 19.3771 13.2748C20.8024 11.8495 21.6031 9.91643 21.6031 7.90078C21.6031 5.88514 20.8024 3.95205 19.3771 2.52677C17.9519 1.10149 16.0188 0.300781 14.0031 0.300781ZM4.52022 17.4008C4.01976 17.3985 3.52379 17.4952 3.06078 17.6851C2.59776 17.8751 2.17683 18.1546 1.82216 18.5077C1.46748 18.8608 1.18605 19.2805 0.99401 19.7426C0.801974 20.2048 0.70312 20.7003 0.703125 21.2008C0.703125 24.4137 2.28583 26.8362 4.75963 28.4151C7.19543 29.9674 10.4786 30.7008 14.0031 30.7008C17.5276 30.7008 20.8108 29.9674 23.2466 28.4151C25.7204 26.8381 27.3031 24.4118 27.3031 21.2008C27.3031 20.193 26.9028 19.2264 26.1901 18.5138C25.4775 17.8011 24.5109 17.4008 23.5031 17.4008H4.52022Z" fill="#01549A"/>
</svg>
