<svg width="16" height="16" viewBox="0 0 16 16" fill="none" xmlns="http://www.w3.org/2000/svg">
<path d="M5.33594 4.66667V3.33333C5.33594 2.97971 5.47641 2.64057 5.72646 2.39052C5.97651 2.14048 6.31565 2 6.66927 2H9.33594C9.68956 2 10.0287 2.14048 10.2787 2.39052C10.5288 2.64057 10.6693 2.97971 10.6693 3.33333V4.66667" stroke="black" stroke-width="1.5" stroke-linecap="round" stroke-linejoin="round"/>
<path d="M5.33594 14.0013C5.68956 14.0013 6.0287 13.8608 6.27875 13.6108C6.52879 13.3607 6.66927 13.0216 6.66927 12.668V7.33464C6.66927 6.62739 6.38832 5.94911 5.88822 5.44902C5.38813 4.94892 4.70985 4.66797 4.0026 4.66797M4.0026 4.66797C3.29536 4.66797 2.61708 4.94892 2.11699 5.44902C1.61689 5.94911 1.33594 6.62739 1.33594 7.33464V12.668C1.33594 13.0216 1.47641 13.3607 1.72646 13.6108C1.97651 13.8608 2.31565 14.0013 2.66927 14.0013H13.3359C13.6896 14.0013 14.0287 13.8608 14.2787 13.6108C14.5288 13.3607 14.6693 13.0216 14.6693 12.668V7.33464C14.6693 6.62739 14.3883 5.94911 13.8882 5.44902C13.3881 4.94892 12.7098 4.66797 12.0026 4.66797H4.0026ZM1.33594 8.66797H14.6693" stroke="black" stroke-width="1.5" stroke-linecap="round" stroke-linejoin="round"/>
</svg>
