<svg width="78" height="78" viewBox="0 0 78 78" fill="none" xmlns="http://www.w3.org/2000/svg">
<path d="M31.8674 0.689453C34.5776 0.689453 36.1224 3.38812 36.1224 6.09829V22.7081H32.6916C32.0244 21.0588 30.8043 19.6928 29.2404 18.8444C27.6766 17.9959 25.8663 17.7178 24.1199 18.0576C22.3735 18.3975 20.7996 19.3342 19.6681 20.7071C18.5365 22.0801 17.9177 23.8039 17.9177 25.5831C17.9177 27.3623 18.5365 29.0861 19.6681 30.4591C20.7996 31.8321 22.3735 32.7688 24.1199 33.1086C25.8663 33.4485 27.6766 33.1703 29.2404 32.3219C30.8043 31.4734 32.0244 30.1075 32.6916 28.4581H36.1224V70.2338C36.1224 72.5185 35.1564 74.7916 33.1209 75.8305C31.2751 76.7971 29.2245 77.3071 27.1409 77.3178C21.3526 77.3178 17.0477 74.3891 14.2762 70.9238C12.3602 68.5302 11.0222 65.7269 10.3662 62.732C8.57626 62.2034 6.91843 61.302 5.50173 60.087C2.78006 57.7448 0.664062 53.9881 0.664062 48.4528C0.664062 45.5586 0.871063 43.0363 1.3924 40.9165H17.5307C20.1297 40.9165 22.2841 42.8331 22.6482 45.3286C21.0053 46.0083 19.6497 47.2378 18.8134 48.8068C17.9772 50.3758 17.7122 52.1867 18.0639 53.9295C18.4156 55.6723 19.362 57.2387 20.7413 58.3606C22.1206 59.4825 23.8469 60.0901 25.6248 60.0795C27.4028 60.0689 29.1217 59.4407 30.4875 58.3024C31.8533 57.1641 32.781 55.5865 33.1118 53.8396C33.4427 52.0927 33.1561 50.2852 32.3011 48.7263C31.4461 47.1674 30.076 45.9541 28.4251 45.2941C28.2237 42.5423 26.9885 39.9685 24.9677 38.0899C22.9468 36.2113 20.2899 35.1668 17.5307 35.1665H4.65073C5.22363 34.6904 5.86285 34.3004 6.54823 34.0088C6.15669 32.5995 5.92775 31.15 5.8659 29.6886C5.7394 26.8711 6.16106 23.9386 6.99673 21.3281C7.82473 18.7598 9.13573 16.2566 10.9757 14.5278C12.1269 13.3989 13.5906 12.6417 15.1771 12.3543C15.9399 9.13429 17.8834 6.47395 20.3636 4.54579C23.5491 2.06179 27.7236 0.689453 31.8636 0.689453M41.8724 58.1665H48.1974C51.0949 58.1665 53.8737 57.0154 55.9225 54.9666C57.9714 52.9178 59.1224 50.1389 59.1224 47.2415V40.3606C60.7717 39.6934 62.1377 38.4734 62.9862 36.9095C63.8346 35.3456 64.1127 33.5354 63.7729 31.789C63.433 30.0425 62.4964 28.4687 61.1234 27.3371C59.7504 26.2056 58.0266 25.5868 56.2474 25.5868C54.4682 25.5868 52.7444 26.2056 51.3714 27.3371C49.9984 28.4687 49.0618 30.0425 48.7219 31.789C48.382 33.5354 48.6602 35.3456 49.5086 36.9095C50.3571 38.4734 51.723 39.6934 53.3724 40.3606V47.2415C53.3724 48.6139 52.8272 49.9302 51.8567 50.9007C50.8862 51.8712 49.5699 52.4165 48.1974 52.4165H41.8724V6.09829C41.8724 3.38812 43.4172 0.689453 46.1274 0.689453C50.2751 0.689453 54.4457 2.06179 57.6312 4.54579C60.1114 6.47395 62.0549 9.13812 62.8177 12.3543C64.4277 12.6226 65.8614 13.443 67.0191 14.5278C68.8591 16.2566 70.1701 18.756 70.9981 21.3281C71.8337 23.9386 72.2554 26.8711 72.1289 29.6886C72.0637 31.13 71.8529 32.602 71.4466 34.0088L71.6996 34.1238C73.1179 34.7908 74.2679 35.8373 75.1266 37.2288C76.7557 39.8546 77.3307 43.6343 77.3307 48.4528C77.3307 53.992 75.2147 57.7525 72.4931 60.087C71.0752 61.3025 69.4161 62.2039 67.6247 62.732C66.9699 65.7266 65.6332 68.5298 63.7186 70.9238C60.9471 74.3891 56.6422 77.3178 50.8501 77.3178C48.7668 77.3083 46.7162 76.7996 44.8701 75.8343C42.8384 74.7916 41.8724 72.5185 41.8724 70.2338V58.1665ZM23.6641 25.5831C23.6641 25.0748 23.866 24.5873 24.2254 24.2278C24.5849 23.8684 25.0724 23.6665 25.5807 23.6665C26.0891 23.6665 26.5766 23.8684 26.936 24.2278C27.2955 24.5873 27.4974 25.0748 27.4974 25.5831C27.4974 26.0915 27.2955 26.579 26.936 26.9384C26.5766 27.2979 26.0891 27.4998 25.5807 27.4998C25.0724 27.4998 24.5849 27.2979 24.2254 26.9384C23.866 26.579 23.6641 26.0915 23.6641 25.5831ZM25.5807 50.4998C25.0724 50.4998 24.5849 50.7017 24.2254 51.0612C23.866 51.4206 23.6641 51.9081 23.6641 52.4165C23.6641 52.9248 23.866 53.4123 24.2254 53.7717C24.5849 54.1312 25.0724 54.3331 25.5807 54.3331C26.0891 54.3331 26.5766 54.1312 26.936 53.7717C27.2955 53.4123 27.4974 52.9248 27.4974 52.4165C27.4974 51.9081 27.2955 51.4206 26.936 51.0612C26.5766 50.7017 26.0891 50.4998 25.5807 50.4998ZM54.3307 33.2498C54.3307 33.7581 54.5327 34.2456 54.8921 34.6051C55.2515 34.9645 55.7391 35.1665 56.2474 35.1665C56.7557 35.1665 57.2432 34.9645 57.6027 34.6051C57.9621 34.2456 58.1641 33.7581 58.1641 33.2498C58.1641 32.7415 57.9621 32.2539 57.6027 31.8945C57.2432 31.5351 56.7557 31.3331 56.2474 31.3331C55.7391 31.3331 55.2515 31.5351 54.8921 31.8945C54.5327 32.2539 54.3307 32.7415 54.3307 33.2498Z" fill="#01549A"/>
</svg>
