<svg width="24" height="24" viewBox="0 0 24 24" fill="none" xmlns="http://www.w3.org/2000/svg">
<g clip-path="url(#clip0_1_2115)">
<path d="M3.988 13.3967C3.9879 13.188 4.02897 12.9813 4.10887 12.7884C4.18876 12.5956 4.3059 12.4204 4.45359 12.2729C4.60128 12.1253 4.77662 12.0084 4.96956 11.9287C5.1625 11.8491 5.36926 11.8083 5.578 11.8086C5.78676 11.8083 5.99354 11.8492 6.1865 11.9288C6.37946 12.0085 6.55482 12.1254 6.70256 12.2729C6.8503 12.4204 6.96752 12.5956 7.04751 12.7884C7.1275 12.9813 7.1687 13.188 7.16875 13.3967C7.16875 13.8185 7.00119 14.223 6.70294 14.5213C6.40469 14.8195 6.00017 14.9871 5.57838 14.9871C5.15658 14.9871 4.75206 14.8195 4.45381 14.5213C4.15556 14.223 3.988 13.8185 3.988 13.3967ZM19.3457 12.424C20.0451 12.424 20.6099 12.9722 20.6159 13.6663L20.6185 17.0203H7.85613V12.4273L19.3457 12.424ZM6.3865 17.0177C6.81813 17.0177 7.16875 16.6671 7.16875 16.2355C7.16875 15.8038 6.81813 15.4532 6.3865 15.4532H4.12525C4.02255 15.4532 3.92084 15.4734 3.82595 15.5127C3.73106 15.552 3.64486 15.6096 3.57227 15.6823C3.49968 15.7549 3.44214 15.8412 3.40292 15.9361C3.36371 16.031 3.3436 16.1328 3.34375 16.2355C3.34375 16.6671 3.69175 17.0177 4.12525 17.0177H6.3865Z" fill="black"/>
<path d="M21.3744 20.3177V23.8154H23.4455V12.7236C23.4456 12.5878 23.419 12.4533 23.3672 12.3278C23.3153 12.2024 23.2393 12.0883 23.1433 11.9922C23.0474 11.8961 22.9334 11.8199 22.808 11.7679C22.6826 11.7158 22.5482 11.689 22.4124 11.689C22.1375 11.6886 21.8738 11.7974 21.6792 11.9914C21.4845 12.1854 21.3749 12.4488 21.3744 12.7236V17.8142H2.7785V10.6311C2.7785 10.06 2.2805 9.59536 1.70788 9.59536V9.59611C1.13713 9.59611 0.6875 10.06 0.6875 10.6307V23.815H2.77813V20.3174L21.3744 20.3177ZM14.8115 0.0531094C15.4741 0.0531094 16.5594 0.331734 17.1631 0.992484L16.3494 2.55548C16.168 2.32019 15.935 2.12971 15.6684 1.99876C15.4017 1.86781 15.1086 1.79989 14.8115 1.80023C14.1931 1.80023 13.643 2.08898 13.2871 2.54011L12.4572 1.02698C13.1559 0.327984 14.1219 0.0527344 14.8115 0.0527344V0.0531094ZM14.5771 1.62811H15.0414V1.16348H15.506V0.699984H15.0414V0.235734H14.5771V0.699984H14.1132V1.16348H14.5771V1.62811Z" fill="black"/>
<path d="M16.3074 3.84259C16.3074 4.23868 16.1501 4.61854 15.87 4.89861C15.5899 5.17869 15.2101 5.33603 14.814 5.33603C14.4179 5.33603 14.0381 5.17869 13.758 4.89861C13.4779 4.61854 13.3206 4.23868 13.3206 3.84259C13.3206 3.44651 13.4779 3.06665 13.758 2.78657C14.0381 2.5065 14.4179 2.34916 14.814 2.34916C15.2101 2.34916 15.5899 2.5065 15.87 2.78657C16.1501 3.06665 16.3074 3.44651 16.3074 3.84259ZM13.3779 5.76147C12.3339 5.76709 11.7291 6.61422 11.5929 7.09272L10.3209 11.2676H11.6083L12.5458 8.06434H13.2129L12.2781 11.2668H17.3432L16.4151 8.06434H17.0818L18.0441 11.2676H19.3123L18.0354 7.09272C17.8997 6.62022 17.3076 5.78922 16.2864 5.76372L13.3779 5.76147ZM3.86156 6.72147C2.02856 6.72147 0.539062 5.23122 0.539062 3.39822C0.539062 1.56484 2.02819 0.0742188 3.86156 0.0742188C5.69381 0.0742188 7.18556 1.56522 7.18556 3.39822C7.18556 5.23122 5.69344 6.72147 3.86156 6.72147ZM3.86044 5.89872C5.23969 5.89872 6.36244 4.77709 6.36244 3.39747C6.36244 2.01934 5.24006 0.895844 3.86044 0.895844C2.48194 0.895844 1.36106 2.01897 1.36106 3.39747C1.36106 4.77747 2.48194 5.89872 3.86044 5.89872Z" fill="black"/>
<path d="M3.87744 3.83718C3.83926 3.85478 3.79722 3.86236 3.75529 3.85921C3.71337 3.85606 3.67294 3.84228 3.63781 3.81918C3.60805 3.80003 3.58275 3.77472 3.5636 3.74497C3.54445 3.71521 3.53191 3.68169 3.52681 3.64668L3.52344 1.71505C3.52594 1.65044 3.55337 1.58931 3.59997 1.54448C3.64657 1.49965 3.70871 1.47461 3.77338 1.47461C3.83804 1.47461 3.90018 1.49965 3.94678 1.54448C3.99338 1.58931 4.02081 1.65044 4.02331 1.71505V3.21355L5.30431 2.61018C5.36361 2.58577 5.43002 2.58511 5.48979 2.60832C5.54956 2.63153 5.59811 2.67685 5.62539 2.73488C5.65267 2.7929 5.65659 2.8592 5.63633 2.92004C5.61607 2.98088 5.57319 3.03159 5.51656 3.06168L3.87744 3.83718Z" fill="black"/>
</g>
<defs>
<clipPath id="clip0_1_2115">
<rect width="24" height="24" fill="white"/>
</clipPath>
</defs>
</svg>
