<svg width="78" height="78" viewBox="0 0 78 78" fill="none" xmlns="http://www.w3.org/2000/svg">
<path d="M0.664062 39.0001C0.664062 20.9297 0.664062 11.8984 6.27606 6.28258C10.7879 1.77074 17.5077 0.885245 29.3412 0.708911V8.56724C29.3412 10.6986 27.5166 12.3929 25.6612 13.4471C22.1537 15.4327 19.6812 19.9867 19.6812 24.0156C19.6812 26.5771 20.6988 29.0336 22.51 30.8449C24.3213 32.6561 26.7778 33.6737 29.3393 33.6737C31.9008 33.6737 34.3574 32.6561 36.1686 30.8449C37.9799 29.0336 38.9974 26.5771 38.9974 24.0156C38.9974 26.5765 40.0147 29.0326 41.8256 30.8435C43.6365 32.6544 46.0926 33.6717 48.6536 33.6717C51.2145 33.6717 53.6706 32.6544 55.4815 30.8435C57.2924 29.0326 58.3097 26.5765 58.3097 24.0156C58.3097 19.9867 55.8411 15.4289 52.3336 13.4471C50.4782 12.3929 48.6536 10.6986 48.6536 8.56724V0.705078C60.4909 0.881411 67.2069 1.76691 71.7149 6.27874C77.3307 11.8946 77.3307 20.9297 77.3307 39.0001C77.3307 57.0704 77.3307 66.1056 71.7149 71.7214C67.2261 76.2102 60.5446 77.1111 48.7992 77.2874V69.6092C48.7992 67.4741 50.6239 65.7797 52.4792 64.7294C55.9867 62.7437 58.4554 58.1897 58.4554 54.1571C58.4554 51.5961 57.438 49.14 55.6272 47.3291C53.8163 45.5183 51.3602 44.5009 48.7992 44.5009C46.2383 44.5009 43.7822 45.5183 41.9713 47.3291C40.1604 49.14 39.1431 51.5961 39.1431 54.1571C39.1431 51.5961 38.1257 49.14 36.3148 47.3291C34.504 45.5183 32.0479 44.5009 29.4869 44.5009C26.9259 44.5009 24.4698 45.5183 22.659 47.3291C20.8481 49.14 19.8307 51.5961 19.8307 54.1571C19.8307 58.1897 22.2994 62.7437 25.8031 64.7294C27.6622 65.7797 29.4869 67.4741 29.4869 69.6092V77.2951C17.5614 77.1226 10.8071 76.2486 6.27606 71.7214C0.664062 66.1017 0.664062 57.0704 0.664062 39.0001Z" fill="#01549A"/>
</svg>
