<svg width="24" height="24" viewBox="0 0 24 24" fill="none" xmlns="http://www.w3.org/2000/svg">
<path d="M20.1116 21.2458C21.7864 19.664 22.8476 17.4417 22.8476 14.9615C22.8476 11.9056 21.2426 9.14937 18.747 7.60138L21.543 2.76162L21.1039 2.5085L21.7935 1.30925L19.9856 0.265625L19.2945 1.463L18.8321 1.196L11.9584 13.103L12.5588 13.4495L11.7064 14.924L13.2169 15.7963L14.0696 14.321L14.6693 14.6675L17.5597 9.66162C18.451 10.2295 19.1848 11.0127 19.6933 11.9391C20.2019 12.8655 20.4688 13.9051 20.4694 14.9619C20.4694 18.4269 17.6486 21.2461 14.1832 21.2461H9.1185V23.6255H23.3752V21.2461H20.1124L20.1116 21.2458ZM7.45612 2.94912V1.06025H7.68863L7.68525 0.60725H5.56687L5.57025 1.06025H5.82V2.94912H4.23938V1.06025H4.47113L4.4685 0.60725H2.34825L2.35238 1.06025H2.60213V2.94912H0.28125V12.4108H9.75712V2.94912H7.45687H7.45612ZM8.95463 11.6097H1.08263V3.75013H2.60175V9.79513C2.60175 10.2526 2.97562 10.6243 3.42675 10.6243C3.87862 10.6224 4.239 10.2519 4.239 9.79513V3.75013H5.81962V9.79513C5.81962 10.2526 6.19387 10.6243 6.645 10.6243C7.09687 10.6224 7.45725 10.2519 7.4565 9.79513V3.75013H8.95463V11.6097Z" fill="black"/>
</svg>
