<svg width="40" height="40" viewBox="0 0 40 40" fill="none" xmlns="http://www.w3.org/2000/svg">
<path d="M13.3328 9.9987C13.3328 6.31536 16.3161 3.33203 19.9995 3.33203C23.6828 3.33203 26.6661 6.31536 26.6661 9.9987C26.6661 13.682 23.6828 16.6654 19.9995 16.6654C16.3161 16.6654 13.3328 13.682 13.3328 9.9987ZM28.3328 36.6654H29.9995C31.8328 36.6654 33.3328 35.1654 33.3328 33.332V25.3654C33.3328 23.4987 32.3161 21.782 30.6495 20.932C29.9328 20.5654 29.1661 20.2154 28.3328 19.8987V36.6654ZM20.5661 28.332L24.9995 18.882C23.4495 18.532 21.7828 18.332 19.9995 18.332C15.7828 18.332 12.1495 19.4987 9.34946 20.932C8.53622 21.3509 7.85496 21.9869 7.38129 22.7695C6.90762 23.5521 6.66007 24.4506 6.66612 25.3654V36.6654H10.5661C10.1995 35.9154 9.99946 35.0654 9.99946 34.1654C9.99946 30.9487 12.6161 28.332 15.8328 28.332H20.5661ZM16.6661 36.6654L19.0161 31.6654H15.8328C14.4495 31.6654 13.3328 32.782 13.3328 34.1654C13.3328 35.5487 14.4495 36.6654 15.8328 36.6654H16.6661Z" fill="white"/>
</svg>
