<svg width="92" height="74" viewBox="0 0 92 74" fill="none" xmlns="http://www.w3.org/2000/svg">
<path d="M46 0C47.525 0 48.9875 0.605802 50.0659 1.68414C51.1442 2.76247 51.75 4.22501 51.75 5.75C51.75 7.27499 51.1442 8.73753 50.0659 9.81586C48.9875 10.8942 47.525 11.5 46 11.5C44.475 11.5 43.0125 10.8942 41.9341 9.81586C40.8558 8.73753 40.25 7.27499 40.25 5.75C40.25 4.22501 40.8558 2.76247 41.9341 1.68414C43.0125 0.605802 44.475 0 46 0ZM52.4256 23.6181L54.0212 36.3687C54.2512 38.2663 52.9144 39.9769 51.0312 40.2212C49.1481 40.4656 47.4231 39.1144 47.1787 37.2313L46.5462 32.2H45.4538L44.8212 37.2313C44.5912 39.1287 42.8662 40.4656 40.9688 40.2212C39.0713 39.9769 37.7344 38.2663 37.9788 36.3687L39.5744 23.6037L36.7281 26.0187C35.2762 27.255 33.0912 27.0681 31.8694 25.6162C30.6475 24.1644 30.82 21.9794 32.2719 20.7575L36.2825 17.365C38.9994 15.065 42.4494 13.8 46 13.8C49.5506 13.8 53.0006 15.065 55.7175 17.3506L59.7281 20.7431C61.18 21.9794 61.3669 24.15 60.1306 25.6019C58.8944 27.0538 56.7237 27.2406 55.2719 26.0044L52.4256 23.6037V23.6181ZM5.75 9.2C8.92688 9.2 11.5 11.7731 11.5 14.95V37.9788C11.5 40.4225 12.4631 42.7656 14.1881 44.4906L21.5338 51.8363C22.7269 53.0294 24.5956 53.2163 25.99 52.2819C27.8444 51.0456 28.1031 48.415 26.5219 46.8481L24.3369 44.6631L19.7369 40.0631C17.94 38.2663 17.94 35.3481 19.7369 33.5512C21.5338 31.7544 24.4519 31.7544 26.2488 33.5512L30.8488 38.1512L33.0337 40.3363L36.6706 43.9731C39.6894 46.9919 41.3856 51.0887 41.3856 55.3581V66.7C41.3856 70.5094 38.295 73.6 34.4856 73.6H24.8975C22.4537 73.6 20.1106 72.6369 18.3856 70.9119L4.03937 56.5512C1.45187 53.9637 0 50.4562 0 46.7906V14.95C0 11.7731 2.57312 9.2 5.75 9.2ZM86.25 9.2C89.4269 9.2 92 11.7731 92 14.95V46.7906C92 50.4562 90.5481 53.9637 87.9606 56.5512L73.6 70.9119C71.875 72.6369 69.5319 73.6 67.0881 73.6H57.5C53.6906 73.6 50.6 70.5094 50.6 66.7V55.3581C50.6 51.0887 52.2962 46.9919 55.315 43.9731L58.9519 40.3363L61.1369 38.1512L65.7369 33.5512C67.5337 31.7544 70.4519 31.7544 72.2487 33.5512C74.0456 35.3481 74.0456 38.2663 72.2487 40.0631L67.6488 44.6631L65.4637 46.8481C63.8825 48.4294 64.1413 51.0456 65.9956 52.2819C67.39 53.2163 69.2588 53.0294 70.4519 51.8363L77.7975 44.4906C79.5225 42.7656 80.4856 40.4225 80.4856 37.9788V14.95C80.4856 11.7731 83.0588 9.2 86.2356 9.2H86.25Z" fill="#01549A"/>
</svg>
