<svg width="24" height="24" viewBox="0 0 24 24" fill="none" xmlns="http://www.w3.org/2000/svg">
<rect width="24" height="24" fill="#EFF8FF"/>
<path d="M9.53057 7.20084L9.78257 6.96084C10.4066 6.31284 10.2986 6.01284 9.68657 5.40084L6.42257 2.10084C5.45057 1.11684 5.27057 0.648839 4.34657 1.52484L4.09457 1.76484L9.53057 7.20084ZM8.89457 7.74084L3.61457 2.46084C2.77457 3.58884 0.806572 6.62484 1.77857 8.86884C2.65457 10.8728 3.08657 10.9688 4.17857 12.4688C6.39857 15.0008 9.19457 17.7128 11.3786 19.7528C12.8906 20.8448 12.9506 21.3488 14.9786 22.1528C17.1386 23.0048 20.2586 21.0848 21.4346 20.2808L16.1546 15.0008L14.7386 16.9448C14.3306 17.4968 13.2986 16.8728 12.5786 16.1528C11.3306 14.8928 8.76257 12.3368 7.77857 11.2688C7.07057 10.5608 6.43457 9.52884 6.98657 9.10884L8.89457 7.74084ZM22.1186 19.8008L22.3706 19.5488C23.1866 18.6608 22.7186 18.4688 21.7466 17.5088L18.4586 14.2448C17.8466 13.6568 17.5586 13.5248 16.9346 14.1128L16.6946 14.3648L22.1186 19.8008Z" fill="#01549A"/>
</svg>
