<svg width="42" height="42" viewBox="0 0 42 42" fill="none" xmlns="http://www.w3.org/2000/svg">
<path fill-rule="evenodd" clip-rule="evenodd" d="M41.8307 21.0013C41.8307 32.5075 32.5036 41.8346 20.9974 41.8346C9.49115 41.8346 0.164062 32.5075 0.164062 21.0013C0.164062 9.49505 9.49115 0.167969 20.9974 0.167969C32.5036 0.167969 41.8307 9.49505 41.8307 21.0013ZM25.3932 13.5409L28.4807 16.6326C30.5766 18.7284 31.6245 19.7784 31.3807 20.9096C31.1349 22.0409 29.7474 22.5617 26.9724 23.6034L25.0516 24.3242C24.3099 24.6034 23.937 24.743 23.6516 24.9909C23.5252 25.102 23.4134 25.2249 23.3161 25.3596C23.0953 25.668 22.9891 26.0513 22.7786 26.818C22.2995 28.5596 22.0599 29.4305 21.487 29.7555C21.2471 29.8924 20.9757 29.9642 20.6995 29.9638C20.0432 29.9638 19.4036 29.3242 18.1286 28.0471L17.1432 27.0617L13.7703 30.4367C13.476 30.7218 13.0816 30.8799 12.6719 30.8769C12.2621 30.8739 11.87 30.7101 11.5799 30.4208C11.2898 30.1315 11.1249 29.7399 11.1208 29.3302C11.1166 28.9205 11.2736 28.5256 11.5578 28.2305L14.9328 24.8513L14.0036 23.918C12.7328 22.6471 12.0995 22.0138 12.0953 21.3596C12.0953 21.0784 12.1682 20.7992 12.3078 20.5555C12.6349 19.9909 13.4995 19.7513 15.2286 19.2742C15.9953 19.0638 16.3786 18.9576 16.687 18.7346C16.8257 18.6352 16.9516 18.519 17.062 18.3888C17.3099 18.1013 17.4474 17.7263 17.7203 16.9784L18.4161 15.0805C19.4453 12.2742 19.9578 10.8721 21.0932 10.6221C22.2286 10.3721 23.2807 11.4284 25.3932 13.5409Z" fill="#01549A"/>
</svg>
