<svg width="19" height="18" viewBox="0 0 19 18" fill="none" xmlns="http://www.w3.org/2000/svg">
<path fill-rule="evenodd" clip-rule="evenodd" d="M4 9V13H8V9H4ZM7 12V10H5V12H7Z" fill="black"/>
<path fill-rule="evenodd" clip-rule="evenodd" d="M6.5 1.39307e-07C5.88085 -0.000151695 5.27682 0.191269 4.77076 0.548003C4.26471 0.904737 3.88143 1.40931 3.6735 1.9925H0V3.233L2 4.748V17H0.5C0.367392 17 0.240215 17.0527 0.146447 17.1464C0.0526785 17.2402 0 17.3674 0 17.5C0 17.6326 0.0526785 17.7598 0.146447 17.8536C0.240215 17.9473 0.367392 18 0.5 18H2V18.0075H16V18H17.5C17.6326 18 17.7598 17.9473 17.8536 17.8536C17.9473 17.7598 18 17.6326 18 17.5C18 17.3674 17.9473 17.2402 17.8536 17.1464C17.7598 17.0527 17.6326 17 17.5 17H16V4.766L18.25 3.251V1.992H9.3265C9.11849 1.4089 8.73517 0.904438 8.22912 0.547799C7.72308 0.191159 7.11909 -0.000188476 6.5 1.39307e-07ZM9.3295 4C9.44269 3.67876 9.50034 3.3406 9.5 3V2.9925H16.8435L15.3475 4H9.3295ZM8.736 5C8.45461 5.3146 8.11001 5.56628 7.72471 5.7386C7.33941 5.91092 6.92208 5.99999 6.5 6C6.07792 5.99999 5.66059 5.91092 5.27529 5.7386C4.88999 5.56628 4.54539 5.3146 4.264 5H3V17H9V9H14V17H15V5H8.736ZM3.5 3C3.5 3.3505 3.56 3.687 3.6705 4H2.668L1.338 2.9925H3.5V3ZM7 2.5V1.5H6V2.5H5V3.5H6V4.5H7V3.5H8V2.5H7ZM13 10V17H10V10H13Z" fill="black"/>
</svg>
