<svg width="16" height="15" viewBox="0 0 16 15" fill="none" xmlns="http://www.w3.org/2000/svg">
<path d="M5.49615 4.89524L1.24282 5.5119L1.16749 5.52724C1.05345 5.55751 0.949484 5.61751 0.866215 5.7011C0.782947 5.7847 0.723356 5.88889 0.693529 6.00305C0.663701 6.11721 0.664705 6.23724 0.696439 6.35088C0.728172 6.46453 0.789498 6.56771 0.874154 6.6499L3.95549 9.64923L3.22882 13.8859L3.22015 13.9592C3.21317 14.0772 3.23766 14.1949 3.29112 14.3002C3.34458 14.4056 3.42508 14.4949 3.52438 14.5589C3.62368 14.6229 3.73821 14.6594 3.85625 14.6646C3.97429 14.6699 4.0916 14.6436 4.19615 14.5886L8.00015 12.5886L11.7955 14.5886L11.8622 14.6192C11.9722 14.6626 12.0918 14.6759 12.2087 14.6577C12.3255 14.6396 12.4355 14.5907 12.5272 14.5161C12.619 14.4414 12.6892 14.3437 12.7307 14.233C12.7722 14.1223 12.7835 14.0025 12.7635 13.8859L12.0362 9.64923L15.1188 6.64923L15.1708 6.59257C15.2451 6.50108 15.2938 6.39154 15.312 6.2751C15.3301 6.15866 15.3171 6.03949 15.2742 5.92972C15.2313 5.81996 15.1601 5.72352 15.0678 5.65024C14.9755 5.57696 14.8654 5.52946 14.7488 5.51257L10.4955 4.89524L8.59415 1.0419C8.53914 0.930258 8.45397 0.836245 8.34828 0.770504C8.2426 0.704764 8.12062 0.669922 7.99615 0.669922C7.87169 0.669922 7.74971 0.704764 7.64403 0.770504C7.53834 0.836245 7.45317 0.930258 7.39815 1.0419L5.49615 4.89524Z" fill="#FFA600"/>
</svg>
