<svg width="13" height="17" viewBox="0 0 13 17" fill="none" xmlns="http://www.w3.org/2000/svg">
<path d="M6.5026 8.10482C5.9777 8.10482 5.47429 7.8963 5.10312 7.52513C4.73196 7.15397 4.52344 6.65056 4.52344 6.12565C4.52344 5.60074 4.73196 5.09733 5.10312 4.72617C5.47429 4.355 5.9777 4.14648 6.5026 4.14648C7.02751 4.14648 7.53092 4.355 7.90209 4.72617C8.27325 5.09733 8.48177 5.60074 8.48177 6.12565C8.48177 6.38556 8.43058 6.64292 8.33112 6.88305C8.23165 7.12317 8.08587 7.34135 7.90209 7.52513C7.7183 7.70892 7.50012 7.8547 7.26 7.95416C7.01988 8.05362 6.76251 8.10482 6.5026 8.10482ZM6.5026 0.583984C5.03286 0.583984 3.62332 1.16784 2.58405 2.2071C1.54479 3.24636 0.960938 4.65591 0.960938 6.12565C0.960938 10.2819 6.5026 16.4173 6.5026 16.4173C6.5026 16.4173 12.0443 10.2819 12.0443 6.12565C12.0443 4.65591 11.4604 3.24636 10.4212 2.2071C9.38189 1.16784 7.97235 0.583984 6.5026 0.583984Z" fill="#DC3545"/>
</svg>
