<svg width="12" height="12" viewBox="0 0 12 12" fill="none" xmlns="http://www.w3.org/2000/svg">
<path d="M6.00521 11.3737C4.51632 11.3737 3.25521 10.857 2.22187 9.8237C1.18854 8.79036 0.671875 7.52925 0.671875 6.04036C0.671875 4.55148 1.18854 3.29036 2.22187 2.25703C3.25521 1.2237 4.51632 0.707031 6.00521 0.707031C6.77188 0.707031 7.50521 0.865253 8.20521 1.1817C8.90521 1.49814 9.50521 1.95103 10.0052 2.54036V0.707031H11.3385V5.3737H6.67188V4.04036H9.47188C9.11632 3.41814 8.6301 2.92925 8.01321 2.5737C7.39632 2.21814 6.72699 2.04036 6.00521 2.04036C4.8941 2.04036 3.94965 2.42925 3.17188 3.20703C2.3941 3.98481 2.00521 4.92925 2.00521 6.04036C2.00521 7.15148 2.3941 8.09592 3.17188 8.8737C3.94965 9.65148 4.8941 10.0404 6.00521 10.0404C6.86076 10.0404 7.63299 9.79592 8.32188 9.30703C9.01076 8.81814 9.4941 8.1737 9.77188 7.3737H11.1719C10.8608 8.55148 10.2274 9.51259 9.27188 10.257C8.31632 11.0015 7.22743 11.3737 6.00521 11.3737Z" fill="#01549A"/>
</svg>
