<svg width="152" height="88" viewBox="0 0 152 88" fill="none" xmlns="http://www.w3.org/2000/svg">
<path d="M148.438 13.1068C144.893 11.5813 141.347 10.0556 137.802 8.53005C137.514 8.40612 137.37 8.34416 137.301 8.3256C136.555 8.12389 135.9 8.75238 136.068 9.50909C136.083 9.57869 136.143 9.7366 136.262 10.0524C144.735 32.5704 136.478 60.3939 116.709 74.5135C107.798 80.8778 94.8473 84.7007 84.334 80.8218C83.7896 80.6209 83.5175 80.5205 83.2752 80.5516C83.033 80.5828 82.7993 80.7458 82.3319 81.0719C77.0892 84.73 70.7228 86.8485 64.0883 87.1155C48.041 87.7617 34.067 77.815 25.755 64.6453C25.5073 64.2529 25.3835 64.0568 25.2136 63.94C25.1569 63.9011 25.1045 63.8723 25.0413 63.8452C24.8519 63.7641 24.6177 63.7648 24.1493 63.7663C20.4339 63.7778 16.7021 63.1936 13.0944 62.2217C9.14114 61.1568 5.34499 59.6201 1.62333 57.9322C-1.2177 56.6435 0.245863 51.8912 3.12654 53.1976C8.01646 55.4157 13.5465 57.5097 19.109 58.3876C20.5393 58.6134 21.2545 58.7262 21.6161 58.2746C21.9778 57.8229 21.6937 57.0943 21.1255 55.6371C19.4831 51.4251 18.5313 46.9559 18.9133 42.4762C19.4711 35.9314 23.2967 29.3429 29.5465 26.8204C41.7932 21.8777 52.4728 36.1961 49.008 47.5657C46.9752 54.2359 41.3258 59.2442 35.0218 61.7577C34.5064 61.9631 33.9875 62.1506 33.4657 62.3212C32.1483 62.7522 31.4896 62.9676 31.3356 63.4585C31.1815 63.9494 31.5647 64.4613 32.3312 65.4852C38.6008 73.861 47.4683 80.3589 57.9739 81.8499C64.7992 82.8188 71.8426 81.6551 77.6557 78.3006C78.1279 78.0281 78.1508 77.3678 77.7311 77.0183C71.7549 72.0456 68.8774 63.6277 68.056 56.0298C67.3262 49.2783 69.3119 41.3636 76.0941 38.3607C82.4307 35.5553 88.7403 39.3725 92.1444 44.7535C95.7365 50.4315 96.036 57.8504 94.2862 64.2482C93.2785 67.9328 91.6347 71.2409 89.5048 74.1225C88.6013 75.3449 88.1496 75.956 88.3735 76.484C88.5974 77.0121 89.2676 77.0997 90.608 77.2749C98.8724 78.3555 107.994 74.8748 114.466 70.1031C131.065 57.8642 138.53 34.6163 132.74 15.0305C132.029 12.6246 131.674 11.4216 130.89 11.4595C130.107 11.4974 129.863 12.7705 129.377 15.3166C128.357 20.6516 127.336 25.9865 126.316 31.3214C125.718 34.4509 121.035 32.9584 121.63 29.8497C122.587 24.841 123.545 19.8325 124.503 14.8237C124.913 12.6771 125.324 10.5305 125.734 8.38416C126.115 6.39185 126.149 3.64127 127.195 1.84379C129.261 -1.70899 133.854 1.44997 136.404 2.54762C140.916 4.48935 145.429 6.43086 149.941 8.37237C152.815 9.60914 151.347 14.3583 148.438 13.1068ZM38.7908 53.9558C43.0383 50.5059 45.8532 45.2189 44.4076 39.7127C43.299 35.49 39.8229 31.3077 35.2982 30.8099C29.7105 30.1951 25.3468 35.5028 24.1629 40.5101C22.6985 46.7054 25.0977 53.174 27.9415 58.5518C27.9532 58.573 27.9768 58.5849 28.0008 58.5816C31.8127 58.0587 35.48 56.6447 38.7908 53.9558ZM86.8801 69.227C89.6998 64.4712 91.0844 58.679 90.1048 53.2084C89.2506 48.4394 85.6982 41.8573 80.0015 42.3645C72.8549 43.001 72.2569 52.2522 73.2581 57.5584C74.4368 63.8058 76.7432 70.6054 82.2562 74.2388C82.512 74.4074 82.8536 74.3645 83.0695 74.1473C84.5049 72.7039 85.7894 71.0663 86.8801 69.227Z" fill="#F19647"/>
</svg>
