<svg width="25" height="24" viewBox="0 0 25 24" fill="none" xmlns="http://www.w3.org/2000/svg">
<rect x="0.078125" width="24" height="24" rx="12" fill="#09B5C8"/>
<path d="M12.2031 18C10.5281 18 9.10937 17.4187 7.94687 16.2562C6.78437 15.0937 6.20312 13.675 6.20312 12C6.20312 10.325 6.78437 8.90625 7.94687 7.74375C9.10937 6.58125 10.5281 6 12.2031 6C13.0656 6 13.8906 6.178 14.6781 6.534C15.4656 6.89 16.1406 7.3995 16.7031 8.0625V6H18.2031V11.25H12.9531V9.75H16.1031C15.7031 9.05 15.1561 8.5 14.4621 8.1C13.7681 7.7 13.0151 7.5 12.2031 7.5C10.9531 7.5 9.89062 7.9375 9.01562 8.8125C8.14062 9.6875 7.70312 10.75 7.70312 12C7.70312 13.25 8.14062 14.3125 9.01562 15.1875C9.89062 16.0625 10.9531 16.5 12.2031 16.5C13.1656 16.5 14.0344 16.225 14.8094 15.675C15.5844 15.125 16.1281 14.4 16.4406 13.5H18.0156C17.6656 14.825 16.9531 15.9063 15.8781 16.7438C14.8031 17.5813 13.5781 18 12.2031 18Z" fill="white"/>
</svg>
