<svg width="135" height="80" viewBox="0 0 135 80" fill="none" xmlns="http://www.w3.org/2000/svg">
<path d="M6.29924 0.406389C19.4161 4.54481 32.6082 10.1319 43.6101 18.5412C45.3746 16.868 47.2799 15.3402 49.3055 13.9872C63.3662 4.59193 82.1698 5.55956 96.5643 14.089C113.475 24.109 120.967 42.3538 119.005 61.1015C121.274 57.5104 123.543 53.9198 125.811 50.3287C128.826 45.5582 136.411 50.1056 133.384 54.8972C128.659 62.3757 123.934 69.855 119.209 77.3335C117.598 79.8826 114.426 80.0422 112.261 78.0908C107.279 73.599 103.025 68.5812 99.2398 63.0425C96.0239 58.3371 103.719 54.1309 106.92 58.8144C107.873 60.2094 108.878 61.5536 109.923 62.8621C112.272 49.5894 108.961 36.2166 98.9315 26.7514C90.4 18.699 77.8548 14.5631 66.3417 16.5676C60.4798 17.5882 54.8662 20.3626 50.3493 24.3424C52.982 26.9039 55.4354 29.675 57.65 32.7009C63.6719 40.9278 67.7014 52.1184 61.3319 61.2469C55.9599 68.9467 45.4486 69.3684 38.5116 63.3028C30.8453 56.5999 30.082 44.8739 32.8453 35.7311C33.9883 31.95 35.7282 28.4128 37.9295 25.1948C27.8893 17.612 15.9103 12.6737 4.0049 8.91701C-1.40849 7.21006 0.879335 -1.30359 6.29924 0.406389ZM40.24 43.8022C39.9494 47.8017 40.4938 52.2908 43.139 55.4891C45.7797 58.6839 50.6246 60.1564 53.6651 56.7507C59.8218 49.8539 52.3174 39.4478 47.545 34.0412C46.6047 32.9758 45.6212 31.9637 44.6187 30.9748C42.1641 34.7874 40.5784 39.1405 40.24 43.8022Z" fill="#2B7FEC"/>
</svg>
