<svg width="11" height="14" viewBox="0 0 11 14" fill="none" xmlns="http://www.w3.org/2000/svg">
<path fill-rule="evenodd" clip-rule="evenodd" d="M0.450521 0.375C0.362115 0.375 0.277331 0.410119 0.214819 0.472631C0.152307 0.535143 0.117188 0.619928 0.117188 0.708333V13.375C0.117188 13.4634 0.152307 13.5482 0.214819 13.6107C0.277331 13.6732 0.362115 13.7083 0.450521 13.7083H9.78385C9.87226 13.7083 9.95704 13.6732 10.0196 13.6107C10.0821 13.5482 10.1172 13.4634 10.1172 13.375V4.04167C10.1172 3.95327 10.082 3.8685 10.0195 3.806L6.68619 0.472667C6.62369 0.41015 6.53892 0.375019 6.45052 0.375H0.450521ZM0.783854 13.0417V1.04167H6.11719V4.04167C6.11719 4.13007 6.15231 4.21486 6.21482 4.27737C6.27733 4.33988 6.36211 4.375 6.45052 4.375H9.45052V13.0417H0.783854ZM8.97919 3.70833L6.78385 1.513V3.70833H8.97919ZM2.78385 10.0417H3.45052V7.70833H3.97919L5.64585 9.375L4.54819 10.4727L5.01952 10.944L6.11719 9.84633L7.21485 10.944L7.68619 10.4727L6.58852 9.375L7.68619 8.27733L7.21485 7.806L6.11719 8.90367L4.91552 7.702C5.25643 7.66866 5.57143 7.50539 5.79521 7.24605C6.01898 6.98672 6.13437 6.65121 6.11743 6.30909C6.1005 5.96697 5.95255 5.64449 5.70426 5.40852C5.45597 5.17255 5.12639 5.04118 4.78385 5.04167H3.11719C3.02878 5.04167 2.944 5.07679 2.88148 5.1393C2.81897 5.20181 2.78385 5.28659 2.78385 5.375V10.0417ZM4.78385 7.04167H3.45052V5.70833H4.78385C4.96066 5.70833 5.13023 5.77857 5.25526 5.9036C5.38028 6.02862 5.45052 6.19819 5.45052 6.375C5.45052 6.55181 5.38028 6.72138 5.25526 6.8464C5.13023 6.97143 4.96066 7.04167 4.78385 7.04167Z" fill="#01549A"/>
</svg>
