<svg width="22" height="16" viewBox="0 0 22 16" fill="none" xmlns="http://www.w3.org/2000/svg">
<path d="M18.3472 10.8085L17.6342 10.1005L19.2342 8.50047H15.3672V7.52047H19.2282L17.6342 5.94447L18.3672 5.21147L21.1552 8.00047L18.3472 10.8085ZM1.86719 1.23047V0.230469H11.8672V1.23047H1.86719ZM5.75119 13.1165H7.98119V10.6165H10.4812V8.38547H7.98119V5.88547H5.75119V8.38547H3.25119V10.6155H5.75119V13.1165ZM2.48119 16.0005C2.02119 16.0005 1.63719 15.8465 1.32919 15.5385C1.02119 15.2305 0.867188 14.8461 0.867188 14.3855V4.61547C0.867188 4.15547 1.02119 3.77147 1.32919 3.46347C1.63719 3.15547 2.02152 3.00114 2.48219 3.00047H11.2512C11.7112 3.00047 12.0955 3.1548 12.4042 3.46347C12.7129 3.77214 12.8672 4.15647 12.8672 4.61647V14.3855C12.8672 14.8455 12.7129 15.2298 12.4042 15.5385C12.0955 15.8471 11.7112 16.0011 11.2512 16.0005H2.48119ZM2.48119 15.0005H11.2512C11.4045 15.0005 11.5455 14.9365 11.6742 14.8085C11.8029 14.6798 11.8672 14.5385 11.8672 14.3845V4.61647C11.8672 4.46247 11.8029 4.32114 11.6742 4.19247C11.5462 4.06447 11.4052 4.00047 11.2512 4.00047H2.48119C2.32785 4.00047 2.18719 4.06447 2.05919 4.19247C1.93119 4.32047 1.86719 4.46147 1.86719 4.61547V14.3855C1.86719 14.5388 1.93119 14.6798 2.05919 14.8085C2.18719 14.9371 2.32785 15.0011 2.48119 15.0005Z" fill="black"/>
</svg>
