<svg width="12" height="21" viewBox="0 0 12 21" fill="none" xmlns="http://www.w3.org/2000/svg">
<path d="M0.687556 19.885C0.808509 20.0063 0.952195 20.1025 1.11039 20.1681C1.26858 20.2338 1.43816 20.2676 1.60943 20.2676C1.7807 20.2676 1.95029 20.2338 2.10848 20.1681C2.26667 20.1025 2.41035 20.0063 2.53131 19.885L11.1876 11.2288C11.2841 11.1324 11.3607 11.018 11.413 10.8919C11.4653 10.7659 11.4922 10.6308 11.4922 10.4944C11.4922 10.358 11.4653 10.2229 11.413 10.0969C11.3607 9.97088 11.2841 9.85641 11.1876 9.76004L2.53131 1.10379C2.02089 0.593374 1.19797 0.593374 0.687556 1.10379C0.177139 1.61421 0.177139 2.43713 0.687556 2.94754L8.22922 10.4996L0.677141 18.0517C0.177141 18.5517 0.177139 19.385 0.687556 19.885Z" fill="black"/>
</svg>
