<svg width="16" height="14" viewBox="0 0 16 14" fill="none" xmlns="http://www.w3.org/2000/svg">
<path d="M1.86766 13.3772C1.55604 13.3772 1.31004 13.277 1.12966 13.0766C0.963375 12.8914 0.873851 12.6486 0.861089 12.348L0.859375 12.2717V1.53345C0.859375 1.19326 0.94947 0.92402 1.12966 0.725734C1.29595 0.542496 1.51833 0.44383 1.7968 0.429734L1.86795 0.427734H9.52709C9.83471 0.427734 10.0787 0.526972 10.2591 0.725449C10.4254 0.908306 10.5149 1.15183 10.5277 1.45602L10.5291 1.53316V3.41602H14.1434C14.4272 3.41602 14.6568 3.50145 14.8322 3.67231L14.8751 3.71688C15.0416 3.90164 15.1311 4.1444 15.1437 4.44516L15.1454 4.52145V12.2717C15.1454 12.6077 15.0553 12.876 14.8751 13.0766C14.7088 13.2614 14.4881 13.361 14.2131 13.3754L14.1431 13.3772H1.86766ZM10.5288 12.2717C10.5288 12.3155 10.5273 12.3581 10.5242 12.3994H13.8208C13.9383 12.3994 14.0255 12.3711 14.0822 12.3143C14.1308 12.2655 14.1585 12.1932 14.1654 12.0972L14.1674 12.0472V4.74631C14.1674 4.62478 14.139 4.53564 14.0822 4.47888C14.0337 4.43031 13.9627 4.40259 13.8694 4.39573L13.8208 4.39402L10.5288 4.39373V12.2717ZM9.20509 1.40573H2.18966C2.06814 1.40573 1.97899 1.43402 1.92223 1.49059C1.87366 1.53935 1.84595 1.61173 1.83909 1.70773L1.83737 1.75802V12.0472C1.83737 12.1685 1.86566 12.2575 1.92223 12.3143C1.97099 12.3629 2.04338 12.3906 2.13938 12.3974L2.18966 12.3994L3.58023 12.3992V10.6077C3.58023 10.3683 3.62976 10.1867 3.7288 10.0629L3.75966 10.0274C3.86823 9.91507 4.02957 9.85383 4.24366 9.84373L4.30938 9.84231H7.07909C7.32995 9.84231 7.51414 9.90402 7.63166 10.0274C7.73852 10.1398 7.7968 10.3098 7.80652 10.5374L7.80795 10.6074L7.80766 12.3992H9.2048C9.32233 12.3992 9.40938 12.3709 9.46595 12.3143C9.51452 12.2655 9.54233 12.1932 9.54938 12.0972L9.55109 12.0472V1.75802C9.55109 1.6365 9.52271 1.54735 9.46595 1.49059C9.40938 1.43402 9.32261 1.40573 9.20509 1.40573ZM6.81795 10.638H4.57052C4.4528 10.638 4.38852 10.6915 4.37766 10.7986L4.37623 10.8323L4.37595 12.3992H7.01195V10.8323C7.01195 10.7146 6.95852 10.6503 6.85166 10.6394L6.81795 10.638ZM12.8371 10.0366C12.9632 10.0366 13.0315 10.0944 13.0419 10.21L13.0434 10.2432V11.1906C13.0434 11.3169 12.9856 11.3853 12.8699 11.3957L12.8371 11.3972H11.8591C11.7368 11.3972 11.6704 11.3394 11.6599 11.2237L11.6588 11.1906V10.2432C11.6588 10.1169 11.715 10.0485 11.8274 10.038L11.8591 10.0366H12.8371ZM12.8371 7.71659C12.9632 7.71659 13.0315 7.7744 13.0419 7.89002L13.0434 7.92288V8.87031C13.0434 8.99659 12.9856 9.06497 12.8699 9.07545L12.8371 9.07688H11.8591C11.7368 9.07688 11.6704 9.01907 11.6599 8.90345L11.6588 8.87031V7.92288C11.6588 7.79659 11.715 7.72821 11.8274 7.71773L11.8591 7.71631L12.8371 7.71659ZM4.86195 7.22431C5.01547 7.22431 5.09804 7.29507 5.10966 7.43659L5.11109 7.47345V8.62145C5.11109 8.77459 5.04033 8.85707 4.8988 8.86888L4.86195 8.87031H3.67766C3.53195 8.87031 3.45347 8.79964 3.44223 8.65831L3.4408 8.62116V7.47345C3.4408 7.32031 3.50804 7.23773 3.64252 7.22573L3.67766 7.22431H4.86195ZM7.7048 7.22431C7.85795 7.22431 7.94042 7.29507 7.95223 7.43659L7.95366 7.47345V8.62145C7.95366 8.77459 7.8829 8.85707 7.74138 8.86888L7.70452 8.87031H6.52623C6.37671 8.87031 6.29623 8.79964 6.2848 8.65831L6.28338 8.62116V7.47345C6.28338 7.32031 6.35233 7.23773 6.49023 7.22573L6.52623 7.22431H7.7048ZM12.8371 5.39602C12.9632 5.39602 13.0315 5.45393 13.0419 5.56973L13.0434 5.60259V6.55031C13.0434 6.6764 12.9856 6.74469 12.8699 6.75516L12.8371 6.75659H11.8591C11.7368 6.75659 11.6704 6.69878 11.6599 6.58316L11.6588 6.55031V5.60259C11.6588 5.47669 11.715 5.40831 11.8274 5.39745L11.8591 5.39602H12.8371ZM4.86195 4.81888C5.01547 4.81888 5.09804 4.88973 5.10966 5.03145L5.11109 5.06802V6.21602C5.11109 6.36954 5.04033 6.45212 4.8988 6.46373L4.86195 6.46516H3.67766C3.53195 6.46516 3.45347 6.3944 3.44223 6.25288L3.4408 6.21602V5.06802C3.4408 4.91488 3.50804 4.8324 3.64252 4.82059L3.67766 4.81916L4.86195 4.81888ZM7.7048 4.81888C7.85795 4.81888 7.94042 4.88973 7.95223 5.03145L7.95366 5.06802V6.21602C7.95366 6.36954 7.8829 6.45212 7.74138 6.46373L7.70452 6.46516H6.52623C6.37671 6.46516 6.29623 6.3944 6.2848 6.25288L6.28338 6.21602V5.06802C6.28338 4.91488 6.35233 4.8324 6.49023 4.82059L6.52623 4.81916L7.7048 4.81888ZM4.86195 2.41402C5.01547 2.41402 5.09804 2.48469 5.10966 2.62602L5.11109 2.66316V3.81088C5.11109 3.96402 5.04033 4.0465 4.8988 4.05831L4.86195 4.06002H3.67766C3.53195 4.06002 3.45347 3.98926 3.44223 3.84773L3.4408 3.81088V2.66288C3.4408 2.50973 3.50804 2.42726 3.64252 2.41545L3.67766 2.41402H4.86195ZM7.7048 2.41402C7.85795 2.41402 7.94042 2.48469 7.95223 2.62602L7.95366 2.66316V3.81088C7.95366 3.96402 7.8829 4.0465 7.74138 4.05831L7.70452 4.06002H6.52623C6.37671 4.06002 6.29623 3.98926 6.2848 3.84773L6.28338 3.81088V2.66288C6.28338 2.50973 6.35233 2.42726 6.49023 2.41545L6.52623 2.41402H7.7048Z" fill="black"/>
</svg>
