<svg width="350" height="311" viewBox="0 0 350 311" fill="none" xmlns="http://www.w3.org/2000/svg">
<g clip-path="url(#clip0_790_15661)">
<path d="M350 -19H0V331H350V-19Z" fill="white"/>
<path d="M162.513 64.013C162.513 64.013 122.986 65.7532 102.047 107.083C81.1083 148.412 59.4888 135.512 46.7208 172.794C33.9528 210.075 59.6995 252.471 76.958 257.064C94.2165 261.657 291.349 257.064 291.349 257.064C291.349 257.064 317.395 239.256 319.438 193.002C321.481 146.748 282.667 131.3 266.58 124.724C250.493 118.148 225.702 62.9917 162.513 64.013Z" fill="#F3F5F4"/>
<path d="M219.149 177.044C264.681 146.409 273.51 130.678 295.984 127.753C350.723 120.629 310.616 262.124 185.268 292.359C125.713 306.725 51.9416 267.543 41.3912 237.101C31.1915 207.668 58.6525 196.628 99.2014 212.414C139.752 228.199 195.95 192.653 219.149 177.044Z" stroke="#BBBFBD" stroke-miterlimit="10"/>
<path d="M272.584 146.781C275.168 143.956 274.973 139.571 272.148 136.987C269.323 134.402 264.938 134.597 262.353 137.422C259.769 140.247 259.964 144.632 262.789 147.217C265.614 149.801 269.999 149.606 272.584 146.781Z" fill="#D9D9D9"/>
<path d="M269.58 283.232C272.287 280.525 272.287 276.135 269.58 273.428C266.872 270.721 262.483 270.72 259.775 273.428C257.068 276.135 257.068 280.525 259.775 283.232C262.483 285.94 266.872 285.94 269.58 283.232Z" stroke="#BBBFBD" stroke-miterlimit="10"/>
<path d="M174.384 127.562C178.213 127.562 181.317 124.458 181.317 120.629C181.317 116.8 178.213 113.696 174.384 113.696C170.555 113.696 167.451 116.8 167.451 120.629C167.451 124.458 170.555 127.562 174.384 127.562Z" stroke="#BBBFBD" stroke-miterlimit="10"/>
<path d="M154.767 148.325L147.734 158.114H161.099L154.767 148.325Z" stroke="#BBBFBD" stroke-miterlimit="10" stroke-linecap="round" stroke-linejoin="round"/>
<path d="M121.719 272.675L117.299 281.186H130.663L121.719 272.675Z" fill="#D9D9D9"/>
<path d="M56.1746 168.023C57.8531 160.914 53.4512 153.791 46.3425 152.112C39.2339 150.433 32.1104 154.835 30.4319 161.944C28.7533 169.053 33.1553 176.176 40.2639 177.855C47.3726 179.533 54.496 175.131 56.1746 168.023Z" stroke="#BBBFBD" stroke-miterlimit="10" stroke-linecap="round" stroke-linejoin="round"/>
<path d="M42.5727 177.004C42.4065 176.138 42.3234 175.366 42.3234 174.689C42.3234 173.585 42.4778 172.688 42.7865 172C43.0952 171.299 43.487 170.729 43.9619 170.29C44.4369 169.839 44.9237 169.429 45.4224 169.061C46.0873 168.574 46.675 168.058 47.1856 167.512C47.6962 166.953 47.9515 166.152 47.9515 165.107C47.9515 164.086 47.6487 163.314 47.0431 162.792C46.4376 162.269 45.6599 162.008 44.71 162.008C43.5939 162.008 42.6677 162.305 41.9316 162.899C41.1954 163.492 40.673 164.086 40.3643 164.68L37.8352 161.224C38.4408 160.476 39.3431 159.764 40.5424 159.087C41.7535 158.399 43.1783 158.054 44.8168 158.054C47.4528 158.054 49.406 158.63 50.6764 159.782C51.9469 160.934 52.5821 162.554 52.5821 164.644C52.5821 165.558 52.4396 166.324 52.1547 166.942C51.8816 167.547 51.5194 168.075 51.0683 168.527C50.6171 168.966 50.1362 169.393 49.6256 169.809C49.0794 170.248 48.5511 170.723 48.0405 171.234C47.5299 171.744 47.1084 172.374 46.776 173.122C46.4435 173.858 46.2773 174.796 46.2773 175.936V177.004H42.5727ZM42.5371 185.731V180.424H46.5622V185.731H42.5371Z" fill="#94BDE0"/>
<path d="M188.855 77.6391C194.02 72.4741 194.02 64.1001 188.855 58.9352C183.69 53.7702 175.316 53.7702 170.151 58.9351C164.986 64.1001 164.986 72.4741 170.151 77.6391C175.316 82.804 183.69 82.804 188.855 77.6391Z" fill="#94BDE0"/>
<path d="M178.766 80.3189C178.6 79.4521 178.517 78.6803 178.517 78.0035C178.517 76.8993 178.671 76.0028 178.98 75.3142C179.289 74.6136 179.68 74.0437 180.155 73.6044C180.63 73.1532 181.117 72.7435 181.616 72.3755C182.281 71.8886 182.868 71.3721 183.379 70.826C183.89 70.2679 184.145 69.4664 184.145 68.4216C184.145 67.4004 183.842 66.6287 183.236 66.1062C182.631 65.5838 181.853 65.3226 180.903 65.3226C179.787 65.3226 178.861 65.6194 178.125 66.2131C177.389 66.8068 176.866 67.4004 176.558 67.9941L174.029 64.5389C174.634 63.7909 175.536 63.0785 176.736 62.4017C177.947 61.713 179.372 61.3687 181.01 61.3687C183.646 61.3687 185.599 61.9446 186.87 63.0963C188.14 64.248 188.775 65.8688 188.775 67.9585C188.775 68.8728 188.633 69.6386 188.348 70.256C188.075 70.8616 187.713 71.39 187.262 71.8411C186.81 72.2805 186.33 72.7079 185.819 73.1235C185.273 73.5628 184.744 74.0378 184.234 74.5483C183.723 75.0589 183.302 75.6882 182.969 76.4362C182.637 77.1724 182.471 78.1104 182.471 79.2502V80.3189H178.766ZM178.73 89.0459V83.7384H182.756V89.0459H178.73Z" fill="white"/>
<path d="M84.1868 172.022C85.0285 168.441 82.8076 164.855 79.2262 164.014C75.6448 163.172 72.0592 165.393 71.2174 168.974C70.3757 172.556 72.5966 176.141 76.178 176.983C79.7594 177.825 83.3451 175.604 84.1868 172.022Z" fill="#D9D9D9"/>
<path d="M313.668 51.4561H254.059C250.656 51.4561 247.898 54.2141 247.898 57.6168V93.4925C247.898 96.8952 250.656 99.6532 254.059 99.6532H266.192L263.786 105.87C263.09 107.67 265.174 109.265 266.73 108.122L278.252 99.6525H313.668C317.071 99.6525 319.829 96.8945 319.829 93.4917V57.6161C319.828 54.2141 317.07 51.4561 313.668 51.4561Z" fill="#A9C6DE"/>
<path d="M254.93 61.5127H311.949" stroke="white" stroke-miterlimit="10" stroke-linecap="round" stroke-linejoin="round"/>
<path d="M254.93 66.6914H311.949" stroke="white" stroke-miterlimit="10" stroke-linecap="round" stroke-linejoin="round"/>
<path d="M254.93 71.8711H311.949" stroke="white" stroke-miterlimit="10" stroke-linecap="round" stroke-linejoin="round"/>
<path d="M254.93 77.0498H311.949" stroke="white" stroke-miterlimit="10" stroke-linecap="round" stroke-linejoin="round"/>
<path d="M254.93 82.2295H311.949" stroke="white" stroke-miterlimit="10" stroke-linecap="round" stroke-linejoin="round"/>
<path d="M254.93 87.4092H311.949" stroke="white" stroke-miterlimit="10" stroke-linecap="round" stroke-linejoin="round"/>
<path d="M127.288 165.501C127.288 165.501 126.681 160.406 125.893 157.979C125.104 155.553 121.768 150.942 121.768 150.942C121.768 150.942 120.434 153.794 122.375 156.159C122.375 156.159 122.254 159.92 122.436 161.254C122.436 161.254 116.129 155.868 114.916 155.322C114.147 154.708 113.208 153.959 112.062 153.046C107.877 149.71 105.087 150.741 105.45 150.984C105.701 151.15 110.487 155.021 113.45 157.421L113.063 157.976C112.162 157.258 110.729 156.113 108.604 154.42C104.419 151.084 101.628 152.115 101.992 152.358C102.297 152.561 109.303 158.236 111.588 160.087L110.914 161.053C110.027 160.346 108.553 159.17 106.298 157.373C102.113 154.036 99.323 155.068 99.6863 155.31C99.9978 155.518 107.339 161.466 109.438 163.167L108.723 164.191C107.944 163.483 105.78 161.561 103.69 160.103C101.082 158.283 99.2012 159.132 99.2012 159.132C99.2012 159.132 99.2012 159.132 100.353 160.163C101.506 161.194 107.511 165.926 107.511 165.926C107.511 165.926 116.679 174.115 118.98 174.904L121.224 177.044L129.479 168.109L127.288 165.501Z" fill="#FF996A"/>
<path d="M193.292 222.065C188.37 229.163 181.485 233.547 172.331 231.685C147.817 226.702 118.873 179.119 118.873 179.119L120.33 177.542L131.133 165.855L168.731 200.021L180.472 183.024L191.941 166.427L197.609 158.225C197.609 158.225 200.928 163.473 203.017 180.157C204.321 190.613 201.568 210.158 193.292 222.065Z" fill="#D3AA7D"/>
<path d="M193.292 222.065C188.37 229.163 181.485 233.547 172.331 231.685C147.817 226.702 118.873 179.119 118.873 179.119L120.33 177.542L121.228 177.043C121.228 177.043 155.72 224.494 170.255 217.435C179.242 213.072 180.686 195.676 180.473 183.023L191.942 166.426L193.292 222.065Z" fill="#C1966B"/>
<path d="M285.364 217.436L283.131 256.766H274.469L277.874 217.436H285.364Z" fill="#01549A"/>
<path d="M232.35 217.436L230.116 256.766H221.455L224.86 217.436H232.35Z" fill="#01549A"/>
<path d="M286.251 224.244H217.629C210.809 224.244 205.279 218.714 205.279 211.893V173.508C205.279 166.687 210.809 161.158 217.629 161.158H286.251C293.072 161.158 298.601 166.687 298.601 173.508V211.893C298.601 218.714 293.072 224.244 286.251 224.244Z" fill="#01549A"/>
<path d="M280.464 224.244H211.842C205.021 224.244 199.492 218.714 199.492 211.893V173.508C199.492 166.687 205.021 161.158 211.842 161.158H280.464C287.285 161.158 292.814 166.687 292.814 173.508V211.893C292.813 218.714 287.284 224.244 280.464 224.244Z" fill="#4E85B3"/>
<path d="M228.74 143.449C228.74 143.449 242.274 141.276 260.482 160.112L264.682 256.766H188.586C188.586 256.766 180.277 191.56 189.962 168.371C199.648 145.181 217.044 142.413 228.74 143.449Z" fill="#FFD294"/>
<path d="M202.193 91.0296L205.534 86.4551L234.018 95.9919L233.771 106.691H235.651C239.471 106.691 242.569 109.787 242.569 113.608C242.569 117.429 239.472 120.525 235.651 120.525H233.451L233.115 135.047V147.808L212.493 150.644L211.988 142.109L211.721 137.624L208.728 136.196C200.163 132.108 194.707 123.462 194.707 113.971C194.707 105.72 197.33 97.688 202.193 91.0296Z" fill="#FF996A"/>
<path d="M211.719 137.624L211.986 142.108C212.744 142.018 213.538 141.9 214.362 141.751C227.098 139.429 232.085 127.916 231.567 121.985C231.567 121.985 227.273 136.25 211.719 137.624Z" fill="#D37A57"/>
<path d="M235.863 111.626C235.329 112.03 234.838 112.564 234.662 113.232C234.662 113.232 235.725 113.586 235.822 114.779C235.919 115.971 234.662 116.487 234.662 116.487C234.662 116.487 235.629 118.099 237.24 117.229C238.852 116.358 238.584 113.321 236.983 112.685C236.983 112.685 239.529 112.395 240.462 113.33C240.462 113.33 240.676 112.392 239.612 111.563C238.515 110.707 236.971 110.787 235.863 111.626Z" fill="#D37A57"/>
<path d="M202.191 91.0299C202.191 91.0299 206.048 97.6687 211.032 99.817C216.016 101.965 221.343 98.8384 226.327 101.691C231.311 104.543 228.132 109.889 229.249 112.458C230.366 115.027 231.605 115.37 231.605 115.37C231.605 115.37 232.275 108.066 233.77 106.692C233.77 106.692 238.245 106.654 239.638 107.958C239.638 107.958 242.138 102.911 242.568 98.9581C242.998 95.0052 238.615 93.7165 238.615 93.7165C238.615 93.7165 237.584 84.2644 225.984 80.7413C214.383 77.2182 205.533 82.8035 200.893 80.7413C196.252 78.6791 192.042 81.7731 191.784 86.4561C191.527 91.1384 194.706 92.8576 194.706 92.8576C194.706 92.8576 192.558 94.6685 193.417 97.458C194.277 100.247 196.973 100.891 196.973 100.891C196.973 100.891 200.147 93.818 202.191 91.0299Z" fill="#3F2D1F"/>
<path d="M204.502 125.003L216.313 124.423C216.313 124.423 213.579 128.677 209.687 128.636C206.103 128.598 204.502 125.003 204.502 125.003Z" fill="white"/>
<path d="M218.078 105.766C217.929 105.766 217.78 105.716 217.656 105.614C215.163 103.56 212.712 105.305 212.686 105.323C212.39 105.541 211.973 105.475 211.757 105.179C211.541 104.882 211.605 104.466 211.902 104.249C213.036 103.421 215.876 102.424 218.501 104.587C218.785 104.821 218.825 105.24 218.592 105.524C218.461 105.683 218.27 105.766 218.078 105.766Z" fill="#3F2D1F"/>
<path d="M203.39 105.766C203.241 105.766 203.092 105.716 202.968 105.614C200.476 103.56 198.023 105.305 197.999 105.323C197.702 105.541 197.286 105.475 197.069 105.179C196.853 104.882 196.917 104.466 197.214 104.249C198.349 103.421 201.188 102.424 203.814 104.587C204.098 104.821 204.138 105.24 203.904 105.524C203.773 105.683 203.583 105.766 203.39 105.766Z" fill="#3F2D1F"/>
<path d="M236.897 144.458L233.159 139.596L218.312 144.828L215.908 148.999L214.282 145.252L212.028 142.79L209.688 147.302C209.688 147.302 209.758 151.827 215.485 153.029C221.211 154.231 233.724 149.564 236.897 144.458Z" fill="#9C897A"/>
<path d="M239.638 107.957C239.638 107.957 237.33 107.076 235.139 109.091C232.948 111.105 233.69 113.085 233.69 113.085C233.69 113.085 234.702 110.698 236.872 110.958C239.041 111.219 240.619 117.079 237.72 118.175C234.821 119.271 231.122 117.601 231.251 113.085C231.381 108.569 233.037 106.015 235.767 105.626C238.497 105.237 239.577 107.531 239.638 107.957Z" fill="#01549A"/>
<path d="M219.142 130.657C218.862 130.657 218.613 130.459 218.558 130.174C218.496 129.851 218.707 129.539 219.031 129.476C230.259 127.317 234.063 116.743 234.1 116.636C234.208 116.326 234.546 116.162 234.858 116.269C235.169 116.377 235.334 116.716 235.226 117.027C235.186 117.14 231.174 128.354 219.255 130.646C219.218 130.654 219.18 130.657 219.142 130.657Z" fill="#01549A"/>
<path d="M216.637 130.266C216.637 131.653 217.762 132.778 219.15 132.778C220.538 132.778 221.662 131.653 221.662 130.266C221.662 128.879 220.537 127.753 219.15 127.753C217.762 127.753 216.637 128.878 216.637 130.266Z" fill="#01549A"/>
<path d="M236.589 112.041C236.589 112.041 236.271 114.817 236.881 116.302C237.49 117.787 238.445 117.018 238.631 115.215C238.815 113.412 237.013 110.883 236.589 112.041Z" fill="#01549A"/>
<path d="M212.695 111.11C212.695 111.11 212.7 113.7 216.091 114.13C219.483 114.56 220.1 111.11 220.1 111.11C220.1 111.11 218.174 109.304 215.684 109.251C213.195 109.197 212.695 111.11 212.695 111.11Z" fill="white"/>
<path d="M197.203 111.11C197.203 111.11 197.207 113.7 200.526 114.13C203.844 114.56 204.289 111.112 204.289 111.112C204.289 111.112 202.564 109.304 200.128 109.251C197.692 109.197 197.203 111.11 197.203 111.11Z" fill="white"/>
<path d="M204.288 111.112C204.288 111.112 202.511 109.16 200.609 108.809C198.707 108.458 197.401 109.384 197.203 111.112C197.203 111.112 197.58 109.685 199.482 109.51C201.385 109.335 204.288 111.112 204.288 111.112Z" fill="#3F2D1F"/>
<path d="M220.102 111.109C220.102 111.109 218.245 109.069 216.257 108.703C214.269 108.337 212.904 109.304 212.697 111.109C212.697 111.109 213.091 109.618 215.079 109.435C217.067 109.252 220.102 111.109 220.102 111.109Z" fill="#3F2D1F"/>
<path d="M207.546 111.184L205.982 120.624C205.982 120.624 204.738 120.72 203.014 120.018C203.014 120.018 207.1 112.244 207.546 111.184Z" fill="#D37A57"/>
<path d="M161.009 256.766C161.009 256.766 160.755 249.227 169.244 246.866C177.734 244.503 188.076 251.41 189.736 256.766H161.009Z" fill="#01549A"/>
<path d="M215.952 114.464C217.126 114.464 218.079 113.259 218.079 111.773C218.079 110.286 217.126 109.081 215.952 109.081C214.777 109.081 213.824 110.286 213.824 111.773C213.824 113.259 214.777 114.464 215.952 114.464Z" fill="#3F2D1F"/>
<path d="M203.163 111.857C203.163 113.296 202.234 114.464 201.088 114.464C199.943 114.464 199.014 113.296 199.014 111.857C199.014 110.417 199.943 109.249 201.088 109.249C202.234 109.249 203.163 110.416 203.163 111.857Z" fill="#3F2D1F"/>
<path d="M225.356 118.504C225.356 119.678 223.967 120.63 222.252 120.63C220.538 120.63 219.148 119.678 219.148 118.504C219.148 117.331 220.538 116.38 222.252 116.38C223.967 116.379 225.356 117.33 225.356 118.504Z" fill="#D37A57"/>
<path d="M200.012 117.486C200.012 118.659 198.623 119.61 196.909 119.61C195.194 119.61 193.805 118.659 193.805 117.486C193.805 116.312 195.194 115.36 196.909 115.36C198.623 115.36 200.012 116.312 200.012 117.486Z" fill="#D37A57"/>
<path d="M281.393 232.768C279.244 239.234 275.313 244.124 270.657 247.583C267.484 249.932 263.978 251.615 260.479 252.672C245.871 257.103 191.768 256.763 191.768 256.763L193.803 240.419L254.385 226.802C254.385 226.802 246.549 201.943 246.895 181.859C247.208 163.166 252.782 155.463 259.061 159.102C259.534 159.381 260.006 159.714 260.478 160.113C260.478 160.113 270.044 174.368 279.916 203.645C283.955 215.619 283.881 225.252 281.393 232.768Z" fill="#E5BC89"/>
<path d="M187.65 242.589L174.797 240.247C174.797 240.247 172.435 239.842 170.073 240.864C167.711 241.886 165.029 246.865 165.029 246.865C165.029 246.865 167.2 246.898 168.668 245.573C170.137 244.248 170.328 243.099 170.328 243.099L175.044 243.467L175.128 244.561C173.553 244.905 169.069 245.928 166.881 246.866C164.2 248.016 162.795 251.526 162.795 251.526C162.795 251.526 166.306 251.016 168.093 248.845L175.394 248.017L175.447 248.699C173.942 248.801 171.254 249.138 168.732 250.25C164.966 251.91 163.817 254.144 163.817 254.144C163.817 254.144 167.584 254.144 170.232 252.101L172.016 251.954C170.253 253.084 168.732 255.804 168.732 255.804C168.732 255.804 169.498 255.996 171.222 255.23C172.946 254.464 173.393 253.59 173.393 253.59L178.416 253.966C181.024 254.339 184.97 254.705 187.225 253.953L192.028 254.692L193.536 242.592H187.65V242.589Z" fill="#FF996A"/>
<path d="M294.646 264.676H52.9687C50.7847 264.676 49.0137 262.905 49.0137 260.721C49.0137 258.537 50.7847 256.766 52.9687 256.766H294.647C296.831 256.766 298.602 258.537 298.602 260.721C298.601 262.905 296.831 264.676 294.646 264.676Z" fill="#01549A"/>
<path d="M202.003 264.676H51.3867C50.0763 264.676 49.0137 262.905 49.0137 260.721C49.0137 258.537 50.0763 256.766 51.3867 256.766H126.695H202.003C203.313 256.766 204.376 258.537 204.376 260.721C204.376 262.905 203.313 264.676 202.003 264.676Z" fill="#4E85B3"/>
<path d="M156.458 241.523H73.2276C70.4206 241.523 67.9909 239.57 67.3868 236.829L56.6285 187.969C56.1007 185.573 57.9256 183.303 60.3791 183.303H144.548C147.036 183.303 149.189 185.033 149.724 187.463L160.516 236.475C161.086 239.068 159.112 241.523 156.458 241.523Z" fill="#4E85B3"/>
<path d="M86.8743 233.248C86.1792 236.749 82.0933 238.889 77.7477 238.025C73.4021 237.163 70.4432 233.625 71.1383 230.124C71.8334 226.622 75.9193 224.484 80.2649 225.346C84.6105 226.209 87.5694 229.747 86.8743 233.248Z" fill="#94BDE0"/>
<path d="M160.515 236.475L149.723 187.463C149.188 185.033 147.035 183.303 144.547 183.303H139.695C142.183 183.303 144.336 185.033 144.871 187.463L155.663 236.475C156.234 239.068 154.26 241.524 151.605 241.524H156.457C159.112 241.524 161.086 239.068 160.515 236.475Z" fill="#01549A"/>
<path d="M146.111 254.802C146.111 255.887 145.235 256.762 144.151 256.762H75.0586C73.9505 256.762 72.9432 256.309 72.2166 255.583C71.4837 254.856 71.0371 253.855 71.0371 252.741C71.0371 251.948 71.2751 251.174 71.7161 250.513L88.8164 224.892C89.305 224.171 90.1156 223.736 90.985 223.736H120.883C121.956 223.736 122.629 224.898 122.087 225.828L107.65 250.769C107.114 251.692 107.781 252.842 108.841 252.842H144.15C144.693 252.842 145.181 253.063 145.538 253.421C145.89 253.772 146.111 254.261 146.111 254.802Z" fill="#01549A"/>
<path d="M125.599 212.073H83.2103C82.7168 212.073 82.3164 211.673 82.3164 211.179C82.3164 210.686 82.7168 210.285 83.2103 210.285H125.599C126.092 210.285 126.493 210.686 126.493 211.179C126.493 211.673 126.092 212.073 125.599 212.073Z" fill="#01549A"/>
<path d="M127.642 217.435H85.2533C84.7598 217.435 84.3594 217.035 84.3594 216.541C84.3594 216.048 84.7598 215.647 85.2533 215.647H127.642C128.135 215.647 128.536 216.048 128.536 216.541C128.536 217.036 128.136 217.435 127.642 217.435Z" fill="#01549A"/>
<path d="M57.5059 186.197H147.268C147.998 186.197 148.7 186.332 149.347 186.572C148.54 184.622 146.624 183.303 144.452 183.303H60.2835C58.4152 183.303 56.9151 184.619 56.5371 186.305C56.8465 186.235 57.1706 186.197 57.5059 186.197Z" fill="#94BDE0"/>
<path d="M149.722 233.248C149.027 236.749 144.941 238.889 140.595 238.025C136.25 237.163 133.291 233.625 133.986 230.124C134.681 226.622 138.767 224.484 143.113 225.346C147.457 226.209 150.416 229.747 149.722 233.248Z" fill="#94BDE0"/>
<path d="M146.107 254.945C146.033 255.989 145.093 256.763 144.047 256.763H104.726C103.139 256.763 101.852 255.476 101.852 253.889C101.852 253.346 102.006 252.814 102.295 252.355L120.36 223.737H120.885C121.957 223.737 122.63 224.899 122.088 225.829L107.651 250.77C107.115 251.693 107.782 252.843 108.842 252.843H144.151C144.694 252.843 145.182 253.064 145.539 253.422C145.922 253.802 146.149 254.347 146.107 254.945Z" fill="#5A7A95"/>
<path d="M260.479 252.672C245.871 257.102 191.768 256.763 191.768 256.763L261.67 238.162C268.98 236.217 273.635 229.064 272.446 221.594C269.374 202.284 263.427 167.634 259.061 159.101C259.534 159.38 260.006 159.712 260.478 160.111C260.478 160.111 270.044 174.367 279.916 203.644C289.789 232.927 275.094 248.248 260.479 252.672Z" fill="#D3AA7D"/>
<path d="M256.357 227.487C256.357 227.487 266.353 227.346 274.47 234.757" stroke="#9C897A" stroke-miterlimit="10" stroke-linecap="round" stroke-linejoin="round"/>
<path d="M235.441 146.202C235.441 146.202 248.594 150.674 255.071 158.342" stroke="#E5BC89" stroke-miterlimit="10" stroke-linecap="round" stroke-linejoin="round"/>
<path d="M169.973 202.255C169.973 202.255 177.236 211.663 178.165 222.497" stroke="#9C897A" stroke-miterlimit="10" stroke-linecap="round" stroke-linejoin="round"/>
<path d="M207.542 147.371C207.542 147.371 204.78 155.119 216.313 156.069C227.847 157.02 240.488 145.705 240.488 145.705" stroke="#E5BC89" stroke-miterlimit="10" stroke-linecap="round" stroke-linejoin="round"/>
<path d="M191.767 242.589L189.066 254.234L192.027 254.69L193.535 242.589H191.767Z" fill="#D37A57"/>
<path d="M215.485 153.029C215.485 153.029 212.065 162.773 209.688 187.973" stroke="#E5BC89" stroke-miterlimit="10" stroke-linecap="round" stroke-linejoin="round"/>
<path d="M237.571 93.8237C237.571 93.8237 232.183 92.549 227.309 94.4236" stroke="#543E2F" stroke-miterlimit="10" stroke-linecap="round" stroke-linejoin="round"/>
<path d="M202.193 91.0303C202.193 91.0303 201.65 98.9193 211.63 100.046" stroke="#543E2F" stroke-miterlimit="10" stroke-linecap="round" stroke-linejoin="round"/>
<path d="M238.459 88.623C238.459 88.623 239.62 91.7584 238.615 93.7156" stroke="#543E2F" stroke-miterlimit="10" stroke-linecap="round" stroke-linejoin="round"/>
<path d="M193.259 85.4238C193.259 85.4238 192.809 90.2685 197.758 92.1739" stroke="#543E2F" stroke-miterlimit="10" stroke-linecap="round" stroke-linejoin="round"/>
<path d="M195.06 94.4238C195.06 94.4238 194.14 98.0498 197.562 99.6115" stroke="#543E2F" stroke-miterlimit="10" stroke-linecap="round" stroke-linejoin="round"/>
<path d="M211.035 82.0482C211.035 82.0482 217.418 79.2489 226.485 83.3229C234.663 86.9979 235.443 91.5731 235.443 91.5731" stroke="#543E2F" stroke-miterlimit="10" stroke-linecap="round" stroke-linejoin="round"/>
<path d="M238.459 95.7734C238.459 95.7734 240.259 96.6232 240.259 99.1733C240.259 101.723 239.025 104.323 239.025 104.323" stroke="#543E2F" stroke-miterlimit="10" stroke-linecap="round" stroke-linejoin="round"/>
<path d="M208.484 94.874C208.484 94.874 209.758 98.2487 217.183 98.6239C224.609 98.9991 227.009 98.9991 229.034 101.399C231.059 103.799 230.385 106.424 230.385 106.424" stroke="#543E2F" stroke-miterlimit="10" stroke-linecap="round" stroke-linejoin="round"/>
<g clip-path="url(#clip1_790_15661)">
<path d="M118.069 115.621L115.465 110.214C114.904 109.058 114.18 108.218 112.929 108.73L110.461 109.646C108.485 110.562 107.501 109.646 106.51 108.265L102.066 98.1551C101.506 96.9998 101.8 95.9129 103.051 95.4002L106.503 94.0193C107.754 93.4998 107.556 92.4197 106.995 91.2645L104.035 85.7547C103.475 84.5994 102.326 84.3192 101.075 84.8318C98.5733 85.8641 96.502 87.4842 95.1553 89.8836C93.5147 92.8162 94.335 96.8973 94.6631 98.6131C94.9913 100.329 96.1397 103.337 97.6231 106.42C99.1065 109.51 100.405 111.936 101.574 113.31C102.736 114.684 105.525 118.444 108.978 119.285C111.808 119.969 114.863 119.394 117.365 118.362C118.623 117.87 118.623 116.783 118.069 115.621Z" fill="#A9C6DE"/>
</g>
<path d="M67.111 109.771C67.1693 109.334 67.1985 108.882 67.1985 108.4C67.1985 107.934 67.1693 107.467 67.0964 107.03L70.0568 104.725C70.1844 104.62 70.2716 104.474 70.3035 104.312C70.3354 104.15 70.3101 103.981 70.2318 103.836L67.4318 98.9941C67.349 98.8481 67.2173 98.7359 67.06 98.6772C66.9026 98.6186 66.7297 98.6172 66.5714 98.6733L63.086 100.073C62.3568 99.5191 61.5839 99.0525 60.7235 98.7025L60.1985 94.9983C60.1727 94.8314 60.0878 94.6792 59.9594 94.5695C59.8309 94.4598 59.6674 94.3998 59.4985 94.4004H53.8985C53.5485 94.4004 53.2714 94.6483 53.2131 94.9983L52.6881 98.7025C51.8277 99.0525 51.0402 99.5337 50.3256 100.073L46.8402 98.6733C46.5193 98.5566 46.1547 98.6733 45.9797 98.9941L43.1943 103.836C43.0193 104.142 43.0777 104.521 43.3693 104.725L46.3297 107.03C46.2568 107.467 46.1985 107.948 46.1985 108.4C46.1985 108.852 46.2277 109.334 46.3006 109.771L43.3402 112.075C43.2126 112.181 43.1254 112.327 43.0935 112.489C43.0616 112.651 43.0869 112.819 43.1652 112.965L45.9652 117.807C46.1402 118.127 46.5047 118.23 46.8256 118.127L50.311 116.727C51.0402 117.282 51.8131 117.748 52.6735 118.098L53.1985 121.802C53.2714 122.152 53.5485 122.4 53.8985 122.4H59.4985C59.8485 122.4 60.1402 122.152 60.1839 121.802L60.7089 118.098C61.5693 117.748 62.3568 117.282 63.0714 116.727L66.5568 118.127C66.8777 118.244 67.2422 118.127 67.4172 117.807L70.2172 112.965C70.3922 112.644 70.3193 112.28 70.0422 112.075L67.111 109.771ZM56.6985 113.65C53.811 113.65 51.4485 111.288 51.4485 108.4C51.4485 105.513 53.811 103.15 56.6985 103.15C59.586 103.15 61.9485 105.513 61.9485 108.4C61.9485 111.288 59.586 113.65 56.6985 113.65Z" fill="#A9C6DE"/>
<path d="M146.28 53.8662H121.119C120.882 53.8666 120.655 53.961 120.487 54.1288C120.319 54.2965 120.225 54.524 120.225 54.7612V56.5616C120.225 56.6445 120.315 56.7397 120.388 56.7782L133.613 64.3323C133.647 64.3516 133.685 64.3616 133.724 64.3613C133.764 64.3615 133.804 64.3508 133.838 64.3305L146.663 56.7856C146.735 56.7453 146.926 56.6389 146.998 56.5899C147.085 56.5308 147.175 56.4772 147.175 56.3712V54.7608C147.174 54.5237 147.08 54.2963 146.912 54.1286C146.744 53.961 146.517 53.8666 146.28 53.8662ZM147.063 59.2762C147.029 59.2564 146.99 59.2461 146.95 59.2463C146.91 59.2466 146.871 59.2574 146.837 59.2776L139.579 63.5479C139.55 63.5648 139.526 63.5879 139.507 63.6156C139.488 63.6434 139.476 63.675 139.471 63.7081C139.466 63.7412 139.469 63.775 139.479 63.8069C139.489 63.8389 139.506 63.8682 139.529 63.8927L146.788 71.7176C146.808 71.7402 146.834 71.7583 146.862 71.7706C146.89 71.7829 146.92 71.7892 146.951 71.789C147.01 71.7889 147.067 71.7653 147.109 71.7234C147.151 71.6815 147.175 71.6246 147.175 71.5654V59.4704C147.175 59.4311 147.164 59.3924 147.145 59.3583C147.125 59.3242 147.097 59.2959 147.063 59.2762ZM137.488 64.9819C137.453 64.9443 137.407 64.9198 137.357 64.9123C137.306 64.9047 137.255 64.9147 137.211 64.9406L134.302 66.6524C134.131 66.751 133.938 66.8035 133.741 66.8048C133.544 66.8061 133.351 66.7561 133.179 66.6598L130.619 65.1971C130.577 65.1736 130.529 65.1638 130.482 65.1692C130.435 65.1746 130.391 65.1949 130.356 65.2272L120.633 74.2453C120.608 74.2691 120.588 74.2986 120.576 74.3313C120.564 74.364 120.56 74.3991 120.564 74.4338C120.568 74.4685 120.58 74.5018 120.599 74.531C120.618 74.5603 120.643 74.5847 120.673 74.6023C120.825 74.6912 120.97 74.7336 121.119 74.7336H146.022C146.066 74.7334 146.108 74.7206 146.145 74.6967C146.181 74.6727 146.21 74.6387 146.227 74.5988C146.244 74.5589 146.25 74.5149 146.242 74.4721C146.235 74.4293 146.215 74.3895 146.186 74.3577L137.488 64.9819ZM128.217 64.1604C128.242 64.1366 128.262 64.107 128.274 64.0742C128.286 64.0413 128.291 64.0061 128.287 63.9712C128.283 63.9364 128.271 63.903 128.252 63.8737C128.232 63.8443 128.207 63.8199 128.176 63.8024L120.558 59.4512C120.524 59.4319 120.486 59.4218 120.447 59.422C120.408 59.4223 120.369 59.4328 120.335 59.4525C120.302 59.4722 120.274 59.5004 120.254 59.5343C120.235 59.5682 120.225 59.6067 120.225 59.6458V71.0628C120.224 71.1064 120.237 71.1491 120.261 71.1856C120.284 71.2222 120.318 71.2509 120.358 71.2684C120.398 71.2858 120.443 71.2911 120.486 71.2837C120.529 71.2763 120.568 71.2564 120.6 71.2266L128.217 64.1604Z" fill="#A9C6DE"/>
</g>
<defs>
<clipPath id="clip0_790_15661">
<rect width="350" height="350" fill="white" transform="translate(0 -19)"/>
</clipPath>
<clipPath id="clip1_790_15661">
<rect width="35" height="35" fill="white" transform="translate(88.9004 84.5996)"/>
</clipPath>
</defs>
</svg>
