<svg width="20" height="16" viewBox="0 0 20 16" fill="none" xmlns="http://www.w3.org/2000/svg">
<path fill-rule="evenodd" clip-rule="evenodd" d="M2.184 10.975C1.982 11.5 2.2535 12.091 2.7915 12.256C5.12688 12.9734 7.55643 13.3374 9.9995 13.336C12.4429 13.3375 14.8728 12.9735 17.2085 12.256C17.7465 12.091 18.0175 11.5 17.816 10.9745L14.6115 2.631C14.426 2.147 13.902 1.889 13.3965 2.002C12.2812 2.25019 11.1421 2.37511 9.9995 2.3745C8.834 2.3745 7.6975 2.246 6.6035 2.002C6.0975 1.889 5.5735 2.147 5.3885 2.631L2.184 10.975ZM15.103 7.077C15.103 8.317 14.0695 9.3225 12.7945 9.3225C12.6972 9.3225 12.6017 9.31683 12.508 9.3055C12.421 9.4225 12.328 9.5815 12.2215 9.7645C11.7615 10.552 11.043 11.7835 9.433 12.0135C8.176 12.195 7.307 11.136 6.7295 10.0085C6.657 9.867 6.5865 9.73 6.5205 9.6035L6.217 9.7395C5.9525 9.858 5.693 9.9745 5.57 10.0225C5.0435 10.2275 4.4465 9.978 4.2365 9.466C4.0265 8.954 4.282 8.3735 4.8085 8.1685C4.8835 8.1395 5.0445 8.067 5.2555 7.972C5.398 7.908 5.5635 7.8335 5.7405 7.7555C5.9415 7.667 6.1505 7.5765 6.321 7.5095C6.4082 7.4749 6.49659 7.44338 6.586 7.415C6.64698 7.39606 6.70911 7.38103 6.772 7.37C6.8105 7.3635 6.8745 7.354 6.953 7.353C7.09588 7.35061 7.23786 7.37609 7.371 7.428C7.52481 7.48897 7.66204 7.58542 7.7715 7.7095C7.8115 7.7545 7.8415 7.7955 7.857 7.818C7.8915 7.8665 7.922 7.9165 7.9465 7.9565C7.9965 8.04 8.056 8.1465 8.118 8.2605C8.193 8.3985 8.4155 8.8435 8.523 9.059C8.53361 9.07903 8.55123 9.09445 8.57251 9.10229C8.59378 9.11012 8.61719 9.10983 8.63826 9.10147C8.65933 9.0931 8.67657 9.07725 8.68667 9.05696C8.69677 9.03666 8.69903 9.01335 8.693 8.9915L8.3655 7.912C8.28397 7.63921 8.20147 7.3667 8.118 7.0945C8.07758 6.96377 8.03591 6.83343 7.993 6.7035C7.78 6.1925 8.033 5.6105 8.558 5.4035C9.0835 5.196 9.682 5.4425 9.8945 5.9535L10.391 7.6385C10.3968 7.65786 10.4093 7.67454 10.4262 7.68553C10.4432 7.69653 10.4635 7.70112 10.4835 7.6985C10.4945 7.69675 10.5049 7.69274 10.5143 7.68673C10.5236 7.68071 10.5316 7.67282 10.5377 7.66356C10.5438 7.65429 10.5479 7.64386 10.5498 7.63292C10.5516 7.62197 10.5512 7.61077 10.5485 7.6C10.5068 7.4288 10.4858 7.25321 10.486 7.077C10.486 6.113 10.9285 5.4675 11.865 5.0905C12.461 4.8505 13.145 4.7685 13.735 5.025C14.541 5.375 15.103 6.162 15.103 7.077ZM18.5 1.75V2.75C18.5 2.88261 18.5527 3.00979 18.6464 3.10355C18.7402 3.19732 18.8674 3.25 19 3.25C19.1326 3.25 19.2598 3.19732 19.3536 3.10355C19.4473 3.00979 19.5 2.88261 19.5 2.75V1.5C19.5 1.30109 19.421 1.11032 19.2803 0.96967C19.1397 0.829018 18.9489 0.75 18.75 0.75H17.5C17.3674 0.75 17.2402 0.802679 17.1464 0.896447C17.0527 0.990215 17 1.11739 17 1.25C17 1.38261 17.0527 1.50979 17.1464 1.60355C17.2402 1.69732 17.3674 1.75 17.5 1.75H18.5ZM1.5 1.75H2.5C2.63261 1.75 2.75979 1.69732 2.85355 1.60355C2.94732 1.50979 3 1.38261 3 1.25C3 1.11739 2.94732 0.990215 2.85355 0.896447C2.75979 0.802679 2.63261 0.75 2.5 0.75H1.25C1.05109 0.75 0.860322 0.829018 0.71967 0.96967C0.579018 1.11032 0.5 1.30109 0.5 1.5V2.75C0.5 2.88261 0.552679 3.00979 0.646447 3.10355C0.740215 3.19732 0.867392 3.25 1 3.25C1.13261 3.25 1.25979 3.19732 1.35355 3.10355C1.44732 3.00979 1.5 2.88261 1.5 2.75V1.75ZM18.5 14.25V13.25C18.5 13.1174 18.5527 12.9902 18.6464 12.8964C18.7402 12.8027 18.8674 12.75 19 12.75C19.1326 12.75 19.2598 12.8027 19.3536 12.8964C19.4473 12.9902 19.5 13.1174 19.5 13.25V14.5C19.5 14.6989 19.421 14.8897 19.2803 15.0303C19.1397 15.171 18.9489 15.25 18.75 15.25H17.5C17.3674 15.25 17.2402 15.1973 17.1464 15.1036C17.0527 15.0098 17 14.8826 17 14.75C17 14.6174 17.0527 14.4902 17.1464 14.3964C17.2402 14.3027 17.3674 14.25 17.5 14.25H18.5ZM1.5 14.25H2.5C2.63261 14.25 2.75979 14.3027 2.85355 14.3964C2.94732 14.4902 3 14.6174 3 14.75C3 14.8826 2.94732 15.0098 2.85355 15.1036C2.75979 15.1973 2.63261 15.25 2.5 15.25H1.25C1.05109 15.25 0.860322 15.171 0.71967 15.0303C0.579018 14.8897 0.5 14.6989 0.5 14.5V13.25C0.5 13.1174 0.552679 12.9902 0.646447 12.8964C0.740215 12.8027 0.867392 12.75 1 12.75C1.13261 12.75 1.25979 12.8027 1.35355 12.8964C1.44732 12.9902 1.5 13.1174 1.5 13.25V14.25Z" fill="black"/>
</svg>
