<svg width="24" height="24" viewBox="0 0 24 24" fill="none" xmlns="http://www.w3.org/2000/svg">
<path d="M20.6621 20.4914C20.9772 20.1082 21.1867 19.6494 21.2701 19.1603C21.3534 18.6712 21.3076 18.1689 21.1373 17.7029L20.8118 16.8037H22.7873V0.148438H1.35938V16.8037H12.8824L14.1394 20.2518C14.3087 20.7179 14.5967 21.1317 14.9749 21.4524C15.3532 21.773 15.8085 21.9895 16.296 22.0803L16.8866 23.8679L21.831 23.8687L20.6621 20.4914ZM18.8648 11.4929C18.3573 11.678 17.944 12.057 17.7159 12.5466C17.4878 13.0363 17.4634 13.5965 17.6483 14.1041L18.4102 16.1831H1.97925V0.769437H22.1678V16.1834H20.5819L18.8644 11.4933L18.8648 11.4929Z" fill="black"/>
<path d="M13.002 9.67245V10.8612H16.4756C16.6207 10.8612 16.8326 10.991 16.8326 11.2182C16.8326 13.2421 16.5784 14.1987 15.5119 14.1987C14.4037 14.1987 14.1765 11.7991 13.0024 11.6423V13.9362H11.145V11.6393C9.912 11.732 9.71362 14.1987 8.56237 14.1987C7.49587 14.1987 7.299 13.2421 7.299 11.2182C7.299 10.991 7.5105 10.8612 7.65675 10.8612H11.145V9.67245H7.53262C7.48318 9.67255 7.4342 9.66291 7.38849 9.64408C7.34277 9.62525 7.30121 9.5976 7.26618 9.56271C7.23115 9.52782 7.20333 9.48637 7.18432 9.44073C7.16531 9.39508 7.15547 9.34615 7.15537 9.2967C7.15537 9.08933 7.3245 8.9217 7.53262 8.9217H11.145V7.7322H7.07925C6.97949 7.7322 6.88383 7.69257 6.81329 7.62204C6.74275 7.5515 6.70312 7.45583 6.70312 7.35608C6.70312 7.25632 6.74275 7.16065 6.81329 7.09012C6.88383 7.01958 6.97949 6.97995 7.07925 6.97995H11.145V5.7912H7.32862C7.22877 5.7912 7.13301 5.75154 7.0624 5.68093C6.99179 5.61032 6.95212 5.51456 6.95212 5.4147C6.95212 5.31485 6.99179 5.21908 7.0624 5.14848C7.13301 5.07787 7.22877 5.0382 7.32862 5.0382H11.145V3.84945H8.15625C8.0564 3.84945 7.96063 3.80979 7.89002 3.73918C7.81942 3.66857 7.77975 3.57281 7.77975 3.47295C7.77975 3.3731 7.81942 3.27733 7.89002 3.20673C7.96063 3.13612 8.0564 3.09645 8.15625 3.09645H11.145V2.43945H13.0024V3.09645H15.9911C16.091 3.09645 16.1867 3.13612 16.2573 3.20673C16.328 3.27733 16.3676 3.3731 16.3676 3.47295C16.3676 3.57281 16.328 3.66857 16.2573 3.73918C16.1867 3.80979 16.091 3.84945 15.9911 3.84945H13.0024V5.0382H16.8296C16.9295 5.0382 17.0252 5.07787 17.0958 5.14848C17.1665 5.21908 17.2061 5.31485 17.2061 5.4147C17.2061 5.51456 17.1665 5.61032 17.0958 5.68093C17.0252 5.75154 16.9295 5.7912 16.8296 5.7912H13.0024V6.97995H17.0798C17.1766 6.98428 17.268 7.0258 17.3351 7.09586C17.4021 7.16592 17.4395 7.25913 17.4395 7.35608C17.4395 7.45302 17.4021 7.54623 17.3351 7.6163C17.268 7.68636 17.1766 7.72788 17.0798 7.7322H13.0024V8.9217H16.6147C16.7143 8.9217 16.8098 8.96125 16.8802 9.03165C16.9506 9.10204 16.9901 9.19752 16.9901 9.29708C16.9901 9.39663 16.9506 9.49211 16.8802 9.56251C16.8098 9.6329 16.7143 9.67245 16.6147 9.67245H13.002Z" fill="black"/>
</svg>
